<?xml version="1.0" standalone="no"?>
<!DOCTYPE svg PUBLIC "-//W3C//DTD SVG 1.1//EN" "http://www.w3.org/Graphics/SVG/1.1/DTD/svg11.dtd" >
<svg xmlns="http://www.w3.org/2000/svg" xmlns:xlink="http://www.w3.org/1999/xlink" version="1.1">
<metadata>
Created by FontForge 20170731 at Fri Feb 26 16:28:56 2016
 By Aleksey,,,
jozolo LLC
</metadata>
<defs>
<font id="Yahfie" horiz-adv-x="447" >
  <font-face 
    font-family="Yahfie"
    font-weight="600"
    font-stretch="normal"
    units-per-em="1024"
    panose-1="0 0 0 0 0 0 0 0 0 0"
    ascent="819"
    descent="-205"
    x-height="483"
    cap-height="694"
    bbox="-43 -316 829 827"
    underline-thickness="1"
    underline-position="-2"
    unicode-range="U+000D-3000"
  />
<missing-glyph horiz-adv-x="543" 
d="M51 102h307v471h-307v-118v-353zM0 625h410v-574h-206h-204v574z" />
    <glyph glyph-name=".notdef" horiz-adv-x="543" 
d="M51 102h307v471h-307v-118v-353zM0 625h410v-574h-206h-204v574z" />
    <glyph glyph-name=".null" horiz-adv-x="0" 
 />
    <glyph glyph-name=".null" horiz-adv-x="0" 
 />
    <glyph glyph-name="nonmarkingreturn" unicode="&#xd;" horiz-adv-x="0" 
 />
    <glyph glyph-name="space" unicode=" " horiz-adv-x="307" 
 />
    <glyph glyph-name="exclam" unicode="!" horiz-adv-x="159" 
d="M73 660q5 1 10 1q16 0 22 -12q3 -8 3 -31q0 -22 -3 -58q-10 -152 -11 -281q2 -120 -10 -120q-4 0 -12 12t-12 29q-11 49 -13 69v14q0 21 3 56q3 68 3 155q-1 131 9 158q2 6 11 8zM71 80q6 6 13 5h4q5 -2 8 -2t7 -8q5 -8 7 -18v-5q1 -20 -26 -26q-4 -1 -8 -1q-11 0 -16 5
q-7 6 -7 15q0 4 1 8q3 16 17 27z" />
    <glyph glyph-name="quotedbl" unicode="&#x22;" horiz-adv-x="276" 
d="M47 641q12 7 24 7q11 -1 22 -6q14 -8 14 -14q0 -2 -3 -4q-3 -3 -11 -2q-5 1 -7 -6q-2 -6 -4 -29q-2 -22 4 -54q6 -30 8 -46q3 -15 3 -26q0 -9 -3 -11q-2 -3 -7 -3t-14 8q-8 8 -13 32q-17 77 -19 110q-1 7 -1 14q0 21 7 30zM191 645q6 5 17 5t25 -7q4 -3 4 -5q-1 -2 -2 -3
q-3 -4 -1 -7t-4 -21q-7 -11 -7 -47q-1 -37 5 -76q3 -46 0 -46q-6 0 -6 -4q0 -5 -6 -5q-13 0 -20 24q-3 19 -10 48q-10 40 -10 77q0 19 3 37q4 23 12 30z" />
    <glyph glyph-name="numbersign" unicode="#" horiz-adv-x="639" 
d="M237 655q5 4 11 4h1q6 -1 10 -5l5 -5q0 -2 -2 -7t-7 -5q-6 0 -11 -16q-4 -16 -7 -37q-4 -31 -8 -78q-1 -44 -6 -53q-2 -7 5 -7q9 0 69 12q60 13 62 16q2 1 7 36q13 78 24 98q6 20 14 27q8 8 15 11q4 1 9 1q4 -1 7 -3q4 -2 3 -4t1 -14q2 -14 -4 -29q-17 -41 -17 -93
q0 -21 1 -24q1 -4 6 -2q7 2 52 7q66 8 71 10q25 3 33 1q7 -1 6 -11t-6 -14q-6 -4 -35 -10q-71 -14 -122 -28q-5 -1 -7 -37q-1 -36 -5 -58q-4 -19 -3 -20t18 3q20 3 54 5q37 4 51 7q70 14 73 9q8 -7 8 -14t-6 -14q-5 -7 -39 -18q-59 -10 -119 -24q-48 -11 -49 -17
q-2 -9 -5 -45q-4 -45 0 -79q8 -51 -4 -47t-20 19q-9 15 -12 34q-5 21 -5 65q-1 16 -2 49q-3 -1 -12 -2q-52 -9 -87 -11q-17 -2 -23 -4q-6 -1 -20 -4q1 -13 2 -41q3 -49 -1 -72q-4 -29 -6 -49q-8 -38 -28 -39q-13 0 -10 46q1 36 3 77q1 38 4 57v13v5q-3 0 -57 -15t-61 -17
q-16 -8 -27 2q-12 9 -4 20q4 9 34 25t67 20q26 9 38 10q3 0 9 1q0 12 3 48q-1 53 3 65q0 3 2 11q-7 -1 -29 -3q-23 -1 -77 -13q-50 -10 -67 -11q-18 -2 -22 4q-1 3 -1 6q0 10 22 28q13 6 27 11t87 9q48 4 55 6h1q4 1 6 8q2 8 8 70q0 8 2 12q5 64 18 92t26 39zM355 368
q1 30 1 40q0 9 -2 15q-3 0 -48 -6q-55 -9 -73 -10q-4 -1 -14 -3q-1 -10 -3 -38q-5 -44 -5 -65q0 -20 4 -20l1 1q6 3 53 9q48 7 62 10q20 4 20 1q1 3 4 66z" />
    <glyph glyph-name="dollar" unicode="$" horiz-adv-x="478" 
d="M241 744q8 3 13 3t9 -2q6 -5 7 -31q1 -30 2 -32q0 -1 31 -5q25 -4 33 -8q9 -3 28 -18q67 -54 74 -85q6 -21 -2 -26q-2 -1 -4 1q-4 4 -11 4q-8 -5 -21 15q-9 16 -19 28q-7 10 -28 24q-22 15 -32 18q-9 1 -16 4q-10 3 -21 4q-4 1 -11 2q-1 -4 -2 -16q1 -17 0 -37
q0 -22 -2 -59q1 -39 0 -90q1 -36 3 -43q1 -8 7 -10q9 -3 44 -21t49 -27q70 -47 70 -117q0 -15 -4 -32q-5 -27 -12 -42q-13 -36 -46 -60q-15 -11 -43 -26t-47 -21q-4 -1 -14 -3q-1 -4 -3 -18q-1 -13 -2 -51t1 -46q2 -5 0 -6t-10 -1q-10 -1 -8 -3q4 -3 1 -5l-1 -1q-3 0 -7 5
q-5 5 -11 38q-7 34 -7 65v17q-3 -1 -12 -2q-78 -12 -119 8q-37 18 -65 83q-19 38 -21 60q-2 15 -2 28q0 26 8 42q5 6 8 8t10 1q9 0 16 -2q8 -2 3 -17q-5 -16 -6 -44q-1 -29 6 -45q13 -28 25 -42t43 -25q21 -7 60 -10q38 6 41 9q6 -8 5 209v66q-6 3 -25 14q-28 16 -33 17
q-23 7 -50 38t-38 53q-9 19 -9 45q0 46 21 84q22 37 56 54q14 7 65 13q3 1 10 2v28q0 28 2 32q3 3 13 7zM228 612q-1 8 -2 30h-12h-5q-19 0 -42 -14q-26 -16 -42 -38q-11 -23 -19 -62q1 -34 55 -77l33 -21q23 -14 26 -14q4 4 4 55q2 65 3 84q2 13 2 31q0 12 -1 26zM298 327
q-25 11 -26 11t-3 -111v-67q0 -75 5 -75q1 0 1 1q8 0 33 11q26 12 37 19q28 17 45 53q12 25 13 37v5q0 11 -2 21q-9 40 -32 58q-24 18 -71 37z" />
    <glyph glyph-name="percent" unicode="%" horiz-adv-x="637" 
d="M471 723q32 9 45 10q25 0 32 -16q2 -6 2 -13q0 -12 -7 -27q-7 -13 -18 -27t-51 -57q-41 -43 -85 -95q-31 -40 -32 -40q-4 -5 -24 -34q-131 -196 -192 -305q-22 -41 -34 -55q-9 -10 -13 -27q-5 -17 -2 -30q2 -13 -13 -17q-5 -2 -9 -2q-9 0 -14 7t-5 23q0 17 6 45
q12 54 40 133q22 57 97 159q43 60 86 105q42 46 156 156q50 56 50 61q4 7 -6 5q-4 -6 -67 -19q-74 -19 -109 -24q-35 -6 -39 -8q-6 -3 -14 -3q-7 0 -9 -3q-1 -2 -2 -18q-3 -25 -20 -50q-18 -25 -43 -37q-14 -7 -34 -9t-31 4q-34 14 -47 43t5 64q5 18 30 40t36 27
q26 12 79 -11q17 -8 25 -9q7 -1 26 1q38 3 112 25q47 16 93 28zM178 648q-10 5 -15 6q-2 0 -2 -1q-3 -2 -12 -7q-23 -15 -34 -38q-5 -10 -6 -22v-5q0 -8 4 -13q4 -9 21 -10q2 -1 4 -1q15 0 28 7t24 24q12 16 12 30q0 12 -5 18t-19 12zM421 295q21 9 32 11q5 1 10 1
q9 0 21 -2q53 -9 87 -79q6 -17 6 -36q0 -33 -20 -74q-31 -63 -87 -102q-21 -17 -37 -22q-15 -6 -35 -6q-27 0 -40 9q-28 18 -37 61q-8 32 -8 65q0 41 11 83q16 35 37 55q22 20 60 36zM459 248h-8q-14 0 -20 -2q-8 -4 -32 -21q-23 -26 -29 -38q-5 -13 -11 -47q4 -70 39 -85
q12 0 30 8q17 8 34 26q48 39 55 100q-12 62 -58 59z" />
    <glyph glyph-name="ampersand" unicode="&#x26;" horiz-adv-x="593" 
d="M280 712q7 7 14 7h3q16 -4 26 -30q4 -10 4 -13q-1 -2 -5 -6q-7 -6 -9 -27q-2 -16 -1 -19t6 -3q15 0 57 -18q24 -9 69 -37q44 -27 55 -41q5 -5 5 -17q0 -4 1 -12q-4 0 -17 1q-16 -6 -33 5q-36 24 -100 46q-38 15 -40 15q-3 1 -5 -8q-1 -9 -1 -51t2 -64q0 -7 2 -22
q6 -2 23 -6q16 -4 15 -7q0 -3 1 -9q1 -9 -1 -14q-1 -4 -20 -7q-6 -2 -19 -4v-65q-1 -13 -3 -51q2 0 7 2q4 1 21 6q69 16 133 37q58 19 76 17q17 -3 22 -8q3 -3 3 -5t-4 -7q-6 -8 -21 -15q-15 -8 -62 -25q-93 -35 -134 -45q-17 -7 -29 -10q-4 -1 -11 -3q0 -19 1 -76
q1 -68 -1 -92q-2 -25 -8 -28q-2 -1 -3 -1q-6 1 -16 10q-13 14 -22 34q-9 21 -11 74q-2 59 -5 59q-4 0 -41 -8q-35 -7 -80 -8t-74 5q-48 10 -59 32q-6 10 -6 27v3q1 19 8 31q15 31 62 61q47 29 116 52q33 11 33 13q0 1 -4 2q-92 20 -125 79q-9 16 -9 39q0 22 9 40
q13 23 47 43q34 19 67 30q18 4 38 7q12 0 34 1q0 5 -2 19q5 48 21 65zM258 544v29q-6 0 -21 -1q-36 0 -70 -21q-35 -29 -35 -57q0 -11 2 -15q3 -5 14 -15q18 -18 30 -25q11 -8 52 -11q8 -1 22 -2q0 12 2 48t4 70zM245 295q1 17 1 31t-1 21v8q-5 -1 -35 -18q-30 -16 -51 -28
q-42 -20 -65 -39q-18 -14 -18 -25q0 -2 1 -4q10 -14 41 -19h4q13 0 61 6q55 8 58 12q2 1 4 55z" />
    <glyph glyph-name="quotesingle" unicode="'" horiz-adv-x="126" 
d="M40 663q4 4 12 4h6q13 -1 16 -10q5 -10 8 -54q2 -45 5 -59q3 -16 5 -63q1 -14 1 -24q0 -25 -4 -29q-2 -3 -5 -5q-3 -1 -6 -1q-14 0 -22 6q-7 6 -7 29t-6 47q-5 21 -8 41q-2 14 -3 18q-1 5 -3 22q0 5 -1 12v15q-1 15 -1 23v7q1 7 5 8q5 2 5 6t3 7z" />
    <glyph glyph-name="parenleft" unicode="(" horiz-adv-x="308" 
d="M224 673q9 5 18 5q13 0 32 -2t19 -4q0 -4 -17 -13q-16 -8 -22 -18q-11 -15 -30 -38q-14 -19 -37 -56q-22 -37 -22 -42q0 -3 -17 -45q-16 -41 -19 -63q-3 -24 -13 -61q-11 -39 -11 -73q1 -83 44 -192q11 -37 21 -68q9 -38 16 -43q6 -13 21 -39q16 -25 28 -36q8 -8 16 -28
q7 -19 7 -26q0 -6 -7 -11t-15 -5q-27 0 -77 70q-23 45 -42 88q-13 37 -31 74q-35 94 -44 159q-3 26 -3 52q0 40 8 81q11 50 23 81q11 32 41 94q14 28 36 64q22 35 33 48q5 5 21 23q13 18 23 24z" />
    <glyph glyph-name="parenright" unicode=")" horiz-adv-x="307" 
d="M80 671q2 4 18 5h1q15 0 19 -13q7 -12 18 -28q10 -13 44 -68q34 -54 43 -73q18 -25 33 -83q9 -36 16 -68q9 -64 9 -118v-3q0 -52 -9 -98q-28 -133 -152 -311q-15 -20 -36 -42q-22 -22 -29 -22q-5 0 -8 -9q-5 -8 -20 -8h-4q-18 2 -18 13q0 9 44 69q37 49 57 89
q10 19 32 56q28 49 39 78q12 30 19 68q7 37 13 65q6 29 6 95q0 67 -4 108q-6 23 -11 36q-5 12 -14 43q-15 33 -55 114t-47 91q-6 9 -4 14z" />
    <glyph glyph-name="asterisk" unicode="*" horiz-adv-x="352" 
d="M181 684q4 6 18 7h4q10 0 14 -4q3 -3 3 -8q0 -4 -5 -4q-12 0 -14 -71q0 -17 -2 -51l28 16q28 14 48 26q23 14 23 5q0 -6 4 -2q4 3 7 -1q5 -5 -9 -18t-58 -43l-21 -10q-1 -2 2 -6q4 -4 24 -7q19 -4 40 -5q22 0 28 -6q7 -5 7 -13q0 -6 -5 -7q-4 -1 -27 -2q-11 0 -32 -2
q3 -2 12 -9q12 -9 20 -26q7 -16 3 -20q-16 -14 -58 28q-28 26 -29 34q-4 0 -7 -15q-3 -14 -7 -23q-2 -6 2 -34q3 -22 2 -30q-1 -7 -10 -9q-4 -1 -8 -1q-7 0 -13 4q-10 5 -10 45q0 48 -2 50q-3 1 -18 -6q-37 -19 -63 -24t-35 0q-7 4 -5 12q3 7 12 13q48 29 52 29q3 0 3 3
t-28 8q-27 5 -35 5q-9 0 -9 3q0 -1 -9 5q-8 1 -11 12v7q0 6 3 8q5 4 24 3q18 -1 39 -7q22 -8 40 -10q18 -1 19 -2q2 11 8 8q-4 -1 -18 13q-12 11 -36 30q-26 18 -33 27t0 16q3 4 2 9q-2 8 7 5q2 -1 7 -3q4 -2 30 -22q26 -19 29 -22q1 3 14 -8q16 -13 18 -9q3 5 6 37
q1 61 15 72z" />
    <glyph glyph-name="plus" unicode="+" horiz-adv-x="570" 
d="M265 567q5 5 24 7q6 1 11 1q9 0 11 -3q4 -4 4 -10q-1 -7 -6 -10q-3 -3 -4 -14q-1 -12 -2 -54q1 -69 10 -123q1 -5 13 -6t67 -2q28 -1 84 -1q6 -3 25 -13q24 -12 26 -23q1 -2 1 -5q0 -4 -2 -11q-3 -10 -9 -12q-2 0 -24 -4q-16 -3 -51 -1q-14 1 -73 4q-16 0 -46 2
q0 -7 3 -29q2 -27 0 -31q-1 -9 4 -35q5 -25 6 -54q2 -22 1 -28t-6 -12q-5 -7 -19 -7h-6q-8 0 -14 1q-7 0 -11 9q-7 18 -13 66q-7 49 -8 89q0 30 -2 34q-4 5 -25 10q-20 4 -122 10q-54 4 -64 8q-10 5 -10 13t5 18q4 10 0 14q-3 4 -1 10t8 8t29 -1t39 -8q11 -3 73 -11
q61 -8 63 -6q3 2 -2 46q-3 40 -1 89q1 50 6 60q4 10 8 15z" />
    <glyph glyph-name="comma" unicode="," horiz-adv-x="195" 
d="M100 81h4q5 0 11 -1q3 -1 10 -3q1 0 6 -9q4 -7 4 -21q0 -9 -2 -20q-3 -30 -11 -47q-8 -16 -23 -38q-14 -23 -29 -34q-6 -3 -19 -7q-2 1 -7 6t-5 13q-1 12 16 29q15 15 18 21t5 21q3 28 -17 64q-5 11 6 16q12 6 33 10z" />
    <glyph glyph-name="hyphen" unicode="-" horiz-adv-x="407" 
d="M82 305q10 3 41 3h17q45 -1 73 -6q35 -6 71 -6q70 0 80 -10q4 -3 4 -16q0 -4 -1 -9q1 -6 -3 -8q-4 -1 -27 -3q-56 -7 -73 -7h-3q-15 1 -65 12q-24 5 -60 6t-45 -4q-6 -3 -18 -3q-12 1 -14 5t-2 9q0 7 4 16q7 16 21 21z" />
    <glyph glyph-name="period" unicode="." horiz-adv-x="191" 
d="M70 82q13 8 24 8q13 0 23 -11q11 -11 9 -23q1 -5 1 -8q0 -7 -3 -10q0 -8 -11 -15q-12 -7 -22 -7q-12 0 -23 8t-15 19q-1 4 -1 8q0 7 4 15q7 12 14 16z" />
    <glyph glyph-name="slash" unicode="/" horiz-adv-x="291" 
d="M239 691q4 6 10 7q6 2 11 4q2 -4 7 -12v-1q0 -16 -34 -135q-19 -71 -37 -141q-40 -135 -56 -183q-15 -47 -20 -68q-6 -21 -20 -47q-13 -27 -31 -70q-37 -85 -52 -90q-1 -2 -3 -2q-1 0 -3 2q-3 1 -8 2q-12 3 -12 19q0 3 1 7q6 39 10 62q4 24 34 98q4 9 15 34q10 25 13 32
q16 41 17 43q6 12 31 76q25 65 32 86q9 27 16 54q4 21 25 83q20 63 35 99q7 29 19 41z" />
    <glyph glyph-name="zero" unicode="0" horiz-adv-x="482" 
d="M275 680h6q12 0 36 -6q30 -8 46 -18q76 -42 86 -192q4 -35 4 -100q0 -66 -4 -94q-15 -61 -49 -127q-18 -37 -46 -73q-28 -35 -60 -52q-9 -4 -28 -13h-22h-14h-35q-9 4 -36 18q-38 19 -58 38q-19 20 -39 57q-17 35 -26 81q-12 60 -12 116q0 48 8 94q19 99 73 160
q81 93 147 106q3 1 9 2q5 1 8 1q4 1 6 2zM310 606q-6 7 -29 7t-41 -8q-36 -13 -68 -42t-51 -64q-18 -34 -30 -84q-13 -50 -13 -90q0 -46 11 -102q11 -55 26 -85q19 -36 26 -35q8 1 34 -4q12 -2 23 -2q44 0 82 30q48 36 74 110q12 38 16 68q4 29 4 88q0 73 -7 104
q-13 59 -25 78q-13 30 -22 27q-4 -2 -10 4z" />
    <glyph glyph-name="one" unicode="1" horiz-adv-x="328" 
d="M154 659q16 9 26 10q11 0 17 -10q10 -21 5 -82q-5 -39 -3 -234q0 -251 9 -291q0 -3 1 -8h33q39 2 43 -3q5 -6 6 -15q0 -3 -1 -6q-2 -14 -15 -18q-5 -2 -52 -10q-48 -9 -77 -9q-40 0 -47 15q-5 11 3 26q9 15 27 15h9q0 4 -1 15q-8 61 -7 126t9 261q4 128 3 129q-1 0 -2 -1
t-3 -4q-2 -2 -4 -5q-9 -15 -18 -31q-13 -18 -16 -21q-2 -3 -13 -6q-13 0 -18 11q-6 5 -7 12q0 8 11 20q14 14 32 46q21 34 31 47q9 13 19 21z" />
    <glyph glyph-name="two" unicode="2" horiz-adv-x="547" 
d="M226 650q13 2 37 2h14q34 -1 49 -3q18 -3 30 -13q13 -9 28 -32q13 -19 21 -34q7 -15 7 -49q-3 -14 -4 -19q-1 -4 -5 -15q-4 -8 -6 -13t-5 -11q-15 -30 -18 -35q-21 -35 -75 -84q-52 -43 -105 -91q-53 -49 -65 -70q-12 -20 -19 -37q-8 -15 -15 -40t-6 -26q1 -2 24 13
q30 20 69 32q38 12 73 12q19 0 34 -5q14 -5 66 -19q45 -13 80 -13q23 5 32 6q10 1 25 -3q14 -2 19 -2q4 -1 10 -3q0 -7 -14 -28q-12 -19 -17 -24q-6 -6 -16 -9q-14 -5 -43 -7q-52 -3 -115 21q-27 11 -41 12q-14 2 -57 -4q-67 -8 -94 -16q-16 -5 -36 -18q-20 -14 -21 -20
q-2 -8 -11 -12q-4 -2 -8 -2t-8 2q-11 5 -13 23q-1 4 -1 10q0 17 5 46q6 39 19 76q15 38 35 67q21 28 58 63q3 2 55 49q38 35 60 53q45 40 66 73q21 36 21 75q0 17 -2 23q-2 7 -10 20q-10 16 -26 27q-18 9 -49 8q-30 -1 -53 -10q-34 -13 -54 -30q-21 -17 -37 -45
q-12 -19 -19 -20t-14 -4q-7 -4 -12 0t-3 11q2 8 14 33q14 30 39 54q48 48 107 55z" />
    <glyph glyph-name="three" unicode="3" horiz-adv-x="433" 
d="M200 646q15 4 32 4q8 0 16 -1q27 -3 40 -9q34 -15 43 -53t-14 -86q-20 -43 -53 -73q-3 -4 -10 -11q4 -1 16 -2q35 -4 69 -33t46 -66q7 -20 9 -64q1 -9 1 -17q0 -31 -6 -49q-13 -42 -52 -78t-85 -49q-21 -5 -42 -5q-17 0 -35 3q-40 9 -71 31q-19 15 -36 37q-17 21 -23 39
q-11 32 -11 77v10q1 52 17 75q6 5 17 14q0 -8 -1 -33q-5 -71 30 -128q27 -36 57 -51q22 -10 49 -10q37 0 68 20q30 22 49 51q19 34 10 80q-8 45 -37 76q-18 19 -36 22q-18 4 -51 -6q-24 -6 -33 -6q-12 0 -20 11q-8 10 -1 22q2 14 25 30q26 19 34 27q32 34 50 62q19 29 22 52
q1 14 0 19q-1 4 -10 12q-11 11 -21 13q-10 1 -33 -3q-70 -21 -112 -62q-19 -18 -17 -25q2 -6 -7 -9q-8 -4 -15 -4q-16 0 -18 26q-1 6 -2 19q7 6 29 26q48 54 123 75z" />
    <glyph glyph-name="four" unicode="4" horiz-adv-x="465" 
d="M313 623q11 10 16 10h1q5 -1 6 -8q1 -6 -3 -10q-8 -9 -9 -35q-2 -25 0 -110q4 -107 6 -126q1 -9 2 -26q6 -1 23 -3q24 -4 36 -4q13 0 43 -20q9 -5 9 -15q0 -5 -3 -13q-2 -3 -33 -4t-52 1q-6 1 -19 3v-50q1 -51 -4 -82q-6 -29 -6 -87q0 -56 -4 -57q-1 0 -7 -1h-6
q-10 1 -14 6q-4 4 -6 21q-1 17 -1 87q0 103 -2 134q0 10 -2 32q-5 1 -21 4q-20 3 -81 -1q-62 -1 -102 -10q-52 -13 -63 -1q-3 4 -3 10q0 14 14 41q10 20 58 92q49 72 84 119q55 75 70 89q14 15 25 9q8 -4 9 -16q0 -12 -7 -16q-11 -7 -72 -97q-62 -90 -85 -127
q-13 -18 -28 -40q-4 -10 -12 -18q13 1 34 1q47 9 59 9q14 0 46 5q35 5 56 1q6 0 11 -1t9 -2q3 0 3 1q1 0 -2 57q-2 45 0 112q3 68 8 95q2 18 8 26q5 5 11 15z" />
    <glyph glyph-name="five" unicode="5" 
d="M201 630h24h64q65 0 77 -3q12 -2 15 -17q1 -10 -4 -14q0 -1 -6 -8q-5 -8 -6 -9q-4 -4 -38 -7q-33 -4 -46 -7q-15 -2 -91 -3h-8q-71 -3 -72 -6t-4 -14q-6 -21 -14 -58t-14 -73q-6 -35 -3 -35q1 0 19 12q61 39 116 42q51 9 95 1q45 -8 67 -31q15 -16 28 -51q12 -35 12 -53
q0 -15 -8 -58t-20 -70q-20 -45 -50 -80q-29 -35 -59 -50q-22 -11 -54 -11q-29 0 -65 9q-23 4 -31 8q-9 3 -18 10q-17 16 -53 70q-35 55 -35 67q9 12 23 7q10 -2 11 -10q8 -21 30 -46t43 -39q10 -7 17 -8q7 -2 27 -2q49 0 76 7q14 6 37 31t36 48t29 64t16 54q0 14 -8 33
q-7 19 -16 29q-37 35 -109 30q-34 -2 -67 -15q-26 -10 -53 -21q-19 -8 -39 -17q-14 -10 -28 -13q-15 -2 -19 4q-4 7 3 70t18 115q8 37 18 67q4 11 11 34l16 4q19 5 61 8q42 4 49 5z" />
    <glyph glyph-name="six" unicode="6" horiz-adv-x="477" 
d="M248 659q23 7 45 7q18 0 36 -4q40 -10 57 -34q10 -15 7 -30t-16 -15q-7 0 -19 12q-31 30 -84 12t-101 -71q-39 -41 -63 -83q-23 -43 -44 -124q-9 -35 -9 -78q3 -41 11 -70q18 -45 39 -80q23 -27 60 -35q6 -1 17 -3q11 5 45 22q78 50 123 84q27 27 38 47q11 21 11 44
q-4 25 -14 49q-12 20 -21 29q-10 9 -24 17q-38 19 -78 19q-42 -4 -84 -26q-25 -16 -35 -29q-9 -13 -25 -36q-26 -39 -53 -35q-7 0 -8 4q-1 3 2 23q3 18 13 31q12 16 16 22q21 32 67 64t82 38q88 16 148 -30q12 -9 33 -38q20 -29 25 -45q8 -20 8 -41q0 -34 -17 -71
q-15 -34 -53 -76q-37 -42 -72 -62q-18 -11 -42 -21q-23 -10 -31 -10q-5 -4 -30 -13q-22 -10 -42 -10q-22 0 -43 13q-26 11 -49 37t-33 55q-9 23 -19 59q-10 35 -11 55q-1 18 -1 35q0 63 19 125q26 79 62 146q53 94 157 121z" />
    <glyph glyph-name="seven" unicode="7" horiz-adv-x="468" 
d="M395 672q8 1 15 1q15 0 24 -7q6 -5 6 -12t-7 -15q-3 -11 -27 -52q-25 -41 -47 -69q-22 -32 -40 -64q-58 -89 -62 -89q0 -1 23 -1q22 0 47 -3q25 -2 29 -4q3 -2 3 -9t-27 -15q-31 -12 -67 -19q-35 -4 -36 -5q-1 0 -19 -46q-18 -45 -23 -57q-6 -16 -22 -52q-15 -37 -26 -64
q-11 -28 -22 -53t-15 -44q-4 -14 -11 -18q-6 -4 -14 -4q-31 0 -11 77q15 52 46 123q6 10 28 62q14 35 23 56q8 15 7 16q-5 1 -21 -3q-32 -8 -51 -1q-7 3 -8 5q-2 3 -1 9q3 14 18 25q16 12 53 16q29 3 33 4q6 2 18 23q15 23 51 72l18 24q8 12 16 27q11 15 20 32q12 20 34 48
l19 38q-3 -1 -13 -3q-16 5 -126 -18q-164 -31 -190 -33q-8 0 -8 7q0 6 8 17q2 1 7 4h-7q-12 1 -1 6q9 4 22 5q49 5 198 39q52 11 97 18q5 1 39 6z" />
    <glyph glyph-name="eight" unicode="8" horiz-adv-x="465" 
d="M185 664q15 4 35 4h5q23 0 34 -4q15 -6 42 -11q76 -11 102 -67q26 -58 -13 -135q-10 -20 -26 -33q-16 -12 -50 -29q-9 -4 -26 -12q7 -4 29 -15q42 -20 67 -43q25 -22 42 -59q11 -24 13 -50v-11q0 -11 -1 -17q-2 -10 -11 -38q-13 -39 -24 -53q-11 -15 -30 -34
q-21 -21 -58 -39q-45 -22 -76 -28q-14 -2 -27 -2q-18 0 -36 4q-56 15 -97 67q-15 19 -35 56q-20 38 -23 56q-2 12 -2 23q0 26 10 50q13 28 53 64q39 35 80 56q6 2 17 8q-4 1 -16 5q-41 14 -75 59q-34 44 -34 84q0 45 38 87t93 57zM276 620q-11 7 -18 8q-8 2 -27 2
q-53 -1 -89 -28q-36 -26 -44 -68q-3 -14 -3 -25q0 -5 1 -10q2 -14 22 -34q30 -22 89 -51q9 -3 26 -10q8 4 34 13q51 33 66 46q20 25 20 63v2q0 39 -25 73q-5 6 -6 7q-2 0 -5 -3q-3 -5 -9 -3q-5 2 -32 18zM323 301q-23 16 -54 30q-11 5 -34 15l-26 -13q-69 -29 -89 -46
q-20 -16 -33 -43q-11 -26 -12 -59v-3q0 -32 14 -61q16 -31 59 -56q42 -25 91 -26h7q11 0 16 2q7 4 57 31q25 14 35 24q10 11 27 44q9 39 9 70q0 9 -1 16q-14 49 -66 75z" />
    <glyph glyph-name="nine" unicode="9" horiz-adv-x="431" 
d="M240 669q11 2 23 2q28 -1 67 -11q26 -7 43 -11t22 -11q11 -24 2 -145q-6 -83 -4 -185q2 -103 12 -175q2 -24 2 -52q1 -5 0 -10q0 -35 -4 -45q-16 -14 -32 -14h-3q-11 0 -18 10q-7 12 -9 18q-1 7 0 19q-1 18 -1 53q-1 40 6 175q7 136 10 167q1 8 2 25q-3 -6 -12 -23
q-19 -37 -39 -53q-19 -17 -57 -37q-59 -34 -120 -29q-44 -2 -61 11q-38 18 -45 67q-4 13 -6 43q-1 15 -1 25q0 11 1 18q6 36 38 74t71 58q47 23 113 36zM326 623q-29 6 -55 6q-18 0 -35 -3q-18 -4 -42 -14q-24 -9 -47 -25q-21 -14 -44 -34q-22 -20 -30 -36q-10 -18 -12 -34
v-7q0 -16 7 -33q9 -21 21 -31q22 -22 52 -28q5 -1 11 -1q25 0 67 18q64 31 89 82q10 20 25 61q14 41 16 55q1 5 1 9q0 5 -2 7q-3 3 -22 8z" />
    <glyph glyph-name="colon" unicode=":" horiz-adv-x="175" 
d="M90 484q9 3 14 3h2q4 -1 11 -10q11 -13 14 -21q1 -3 1 -7q0 -5 -3 -12q-6 -17 -17 -24q-5 -4 -11 -4q-5 0 -11 3q-10 4 -23 6q-14 2 -14 13q0 4 2 9q3 12 5 18q1 7 12 15t18 11zM69 153q9 6 23 6h8q20 -3 27 -11t7 -19q0 -13 -11 -30q-11 -16 -31 -16q-7 0 -15 2
q-28 6 -28 28q0 2 1 5q3 24 19 35z" />
    <glyph glyph-name="semicolon" unicode=";" horiz-adv-x="161" 
d="M58 461q9 10 20 10q5 0 10 -2q18 -5 22 -28v-8q1 -18 -14 -25q-13 -6 -24 -6q-15 0 -26 14q-3 6 -3 12q0 5 2 10q4 14 13 23zM68 90q5 0 9 1q6 0 10 -2q6 -3 14 -13q8 -11 9 -17q1 -4 1 -15v-14q-1 -25 -6 -41q-5 -15 -20 -30q-8 -9 -19 -12q-4 -1 -6 -1q-6 0 -7 4t8 22
q10 22 7 44t-13 22q-14 0 -17 20v4q0 8 7 15q15 11 23 13z" />
    <glyph glyph-name="less" unicode="&#x3c;" 
d="M375 584q13 11 17 13q2 1 4 1q3 0 7 -2q29 -4 12 -21q-35 -34 -139 -116q-31 -26 -33 -27q-4 -4 -35 -30t-36 -31q-3 -3 -25 -21q-7 -6 -23 -18q12 -13 50 -49q49 -47 69 -63q42 -32 96 -85q34 -33 57 -51q25 -18 27 -23q4 -5 12 -14q7 -8 7 -14q0 -9 -13 -15
q-1 -2 -3 -2q-4 0 0 6q3 6 -12 13q-13 6 -49 18q-15 8 -22 12q-11 4 -29 17q-19 14 -31 29q-11 13 -83 85q-60 61 -92 94q-28 29 -33 29t-12 7q-5 6 -6 10l1 1q2 4 12 10q9 5 21 18q65 63 154 122q88 59 130 97z" />
    <glyph glyph-name="equal" unicode="=" horiz-adv-x="565" 
d="M60 449q24 3 69 3q44 0 64 -3q99 -14 227 -18q43 -9 43 -19q0 -2 -1 -3q-4 -8 -270 -8q-126 0 -147 1q-22 0 -23 6q-1 4 -1 8q0 10 5 19q8 12 34 14zM130 245q5 1 29 1q17 0 45 -1q64 -1 118 -4q69 -4 131 -1q61 3 66 2q4 -1 6 -9q1 -2 1 -5q0 -11 -7 -23q-6 -5 -18 -6
t-78 -1q-86 0 -122 3q-36 4 -111 5q-111 0 -132 -16q-8 -5 -15 -5q-5 0 -9 3q-1 2 -1 3q-1 1 0 3q5 12 23 26t74 25z" />
    <glyph glyph-name="greater" unicode="&#x3e;" horiz-adv-x="428" 
d="M106 608q7 5 15 5q3 0 6 -1q18 -3 32 -15q13 -12 46 -54q28 -36 149 -161q21 -22 26 -25q4 -3 9 1q12 11 19 9q6 -3 6 -9q0 -20 -73 -72q-67 -47 -122 -93q-39 -37 -79 -70q-18 -13 -55 -49q-32 -31 -45 -37q-6 -3 -10 -3q-4 -1 -6 2q-3 2 -3 7q0 4 1 9q4 11 11 18
q8 6 8 9q-1 9 70 68q81 69 104 91q33 31 53 44t46 28q29 18 24 17q1 0 -5 8q-7 8 -17 18q-26 24 -36 42q-16 17 -43 57q-52 64 -115 127q-20 20 -20 21q0 2 4 8z" />
    <glyph glyph-name="question" unicode="?" horiz-adv-x="471" 
d="M222 707q16 3 41 3h6q29 0 45 -4q80 -13 113 -80q10 -20 13 -32q4 -11 4 -32q0 -19 -3 -28t-9 -20q-18 -37 -91 -82q-10 -6 -25 -16q-14 -10 -24 -16q-8 -5 -11 -7q-18 -12 -34 -30t-23 -32q-13 -25 -17 -42q-5 -18 -6 -45q0 -25 -1 -29q-1 -5 -6 -7q-7 -2 -4 -6
q6 -11 1 -12h-2q-7 4 -21 24q-13 20 -17 44q-4 32 0 58q9 47 38 76q29 30 92 68q65 38 88 68q23 31 16 59q-3 12 -14 28t-24 25q-41 30 -99 24t-106 -42q-43 -33 -66 -64q-1 -6 -2 -17q2 0 8 -1q20 -3 12 -28q-13 -26 -39 -29q-9 0 -17 11q-8 10 -12 26q-2 10 -2 19
q0 23 13 47q17 35 55 64q22 17 62 34q39 17 68 23zM180 75q10 10 20 12q2 1 4 1q8 0 17 -5q13 -9 13 -24q0 -8 -4 -18q-9 -22 -32 -27q-5 -1 -9 -1q-15 0 -21 14q-3 8 -3 16q0 17 15 32z" />
    <glyph glyph-name="at" unicode="@" horiz-adv-x="706" 
d="M344 597q36 4 72 4h30q52 -3 81 -14q45 -16 75 -59q29 -43 33 -100q1 -9 1 -19q0 -56 -26 -120q-29 -76 -76 -120q-41 -42 -78 -42q-26 0 -39 7q-12 7 -23 35q-3 6 -8 19q-2 -4 -9 -17l-12 -24q-7 -25 -33 -47q-26 -23 -60 -28q-34 -3 -58 21q-25 25 -33 66q-3 19 -1 61
t7 64q19 67 68 115q60 62 131 62q56 3 71 -31q7 -12 10 -30t1 -31q-1 -11 -13 -13q-10 1 -11 26q0 20 -15 33t-34 20q-11 4 -17 3q-5 0 -20 -3q-53 -23 -78 -52q-23 -28 -40 -59q-23 -38 -28 -90q-6 -53 7 -86q6 -17 15 -28q8 -11 21 -16q20 4 44 14q24 18 49 70t31 94
q3 19 11 57q8 39 9 40q1 2 20 2q7 1 9 -1q2 -1 4 -9q5 -22 -15 -91q-11 -40 -2 -73q4 -37 26 -47q7 -4 14 -3q7 0 19 6q15 8 34 27q18 18 30 37q21 30 36 68q15 39 23 73q7 43 -5 85t-41 71q-24 24 -54 32t-83 8q-127 -10 -230 -59q-74 -42 -120 -105q-45 -62 -52 -131
q-5 -58 23 -125q27 -67 76 -116q66 -64 145 -82q80 -17 155 20q18 9 43 23q24 14 34 25q9 10 31 22q19 12 19 16t10 4q7 0 9 -2q1 -2 2 -9t-3 -13q-5 -6 -25 -26q-65 -68 -147 -90q-30 -7 -78 -7q-49 0 -79 7q-73 19 -131 68t-91 120q-28 59 -33 124q-1 15 -1 29q0 47 14 82
q42 106 135 174q94 68 224 84z" />
    <glyph glyph-name="A" unicode="A" horiz-adv-x="622" 
d="M283 649q1 3 12 3q3 0 8 -1q40 2 47 -15q13 -27 28 -70q32 -61 55 -130q9 -25 24 -55q11 -26 23 -60q11 -27 24 -56q10 -32 28 -72q9 -16 27 -60q10 -19 20 -41q12 -27 27 -65q3 -7 3 -11v-2q-1 -5 -7 -11q-2 -8 -8 -12q-7 -1 -13 -1q-4 0 -8 1q-9 1 -33 45
q-11 16 -22 35q-7 10 -18 37q-15 33 -32 66q-16 26 -25 45q-20 7 -36 4q-54 -1 -91 -2q-43 1 -63 1q-21 1 -44 0q-17 1 -49 2l-25 -50q-10 -17 -61 -127q-14 -26 -27 -38q-14 -13 -28 -12q-8 0 -15 7t-7 15q-2 4 -2 9q0 6 4 13q13 45 102 227q27 56 40 88q16 35 34 78
q19 43 35 75q21 43 38 74q20 52 35 66zM358 463q-13 36 -32 82q-6 11 -18 32q-5 -9 -9 -18q-4 -8 -9 -21q-15 -34 -26 -60q-10 -17 -16 -29q-5 -13 -20 -37q-8 -22 -17 -44q-8 -17 -19 -43q-4 -9 -8 -15q-3 -6 -9 -23q2 9 -2 -3q0 -7 10 -8q9 0 17 -4q23 3 45 -1q78 6 137 4
q19 2 34 4q-3 18 -6 31q-5 18 -9 27t-7 19q-3 11 -14 41q-11 29 -22 66z" />
    <glyph glyph-name="B" unicode="B" horiz-adv-x="548" 
d="M139 647q15 1 39 1h40q54 -2 84 -6q124 -17 166 -60q18 -18 22 -38q3 -20 -3 -54q-9 -48 -74 -92q-21 -14 -26 -16t-5 -5q1 -2 6 -2q8 -1 36 -14q27 -13 43 -23q34 -25 50 -63q7 -18 7 -45q0 -26 -7 -43q-20 -42 -59 -80q-38 -38 -80 -58q-44 -13 -103 -21q-27 -5 -57 -8
q-30 -6 -72 -10q-34 -4 -49 -4h-7q-8 1 -18 2q-11 1 -16 7q-4 5 -6 16v7q0 15 2 49q3 46 6 60q4 16 13 133q2 25 4 44l2 36q2 22 1 72q-2 140 -17 176q-2 3 -7 9q2 3 7 10q52 18 78 20zM228 588q-4 2 -67 5q-9 -1 -28 -3q-1 -7 -1 -13v-3v-15q4 -45 5 -119q0 -18 1 -55
q5 1 23 3q31 5 44 7q15 4 24 7q17 3 38 5q102 14 148 67q17 22 17 39q0 3 -1 6q-3 18 -30 31q-57 27 -173 38zM329 334q-29 5 -53 5q-17 0 -32 -3q-16 -3 -32 -3q-12 -2 -31 -6q-31 -7 -34 -8q-5 -1 -7 -7q-1 -7 -2 -40q-2 -45 -7 -69q-5 -22 -9 -52q-3 -25 -6 -43
q-2 -17 -2 -27q0 -13 4 -13l1 1q4 2 42 5q34 4 56 11q7 2 17 3q9 2 17 4q22 2 34 5q39 7 59 14q99 50 116 117q0 40 -31 68q-30 28 -100 38z" />
    <glyph glyph-name="C" unicode="C" horiz-adv-x="620" 
d="M296 640q23 6 65 6t66 -5q64 -25 82 -41q17 -16 25 -29t13 -35q6 -21 1 -33t-14 -15q-11 -2 -17 2q-7 3 -16 21q-11 25 -29 39q-31 25 -81 31q-30 4 -65 -1q-30 -5 -51 -14q-22 -9 -56 -33q-42 -29 -81 -82q-30 -44 -41 -113q-11 -70 0 -127q6 -29 27 -66q22 -37 45 -59
q26 -24 30 -28t27 -13q63 -18 94 -23q22 1 31 3q8 2 27 11q15 7 30 17q14 10 43 39q47 47 57 60q9 14 25 56q7 16 46 22q8 0 8 -9q0 -12 -14 -40q-9 -19 -26 -51q-22 -40 -30 -52q-9 -12 -35 -38q-27 -28 -48 -41q-20 -13 -48 -23q-29 -9 -71 -9h-8q-48 1 -78 11
q-67 25 -118 82q-52 57 -73 130q-7 25 -7 85t8 93q19 72 71 141q77 104 186 131z" />
    <glyph glyph-name="D" unicode="D" horiz-adv-x="597" 
d="M272 644q13 1 26 1q38 0 64 -5q36 -6 71 -24q105 -52 142 -187q6 -25 6 -68t-7 -65q-17 -54 -34 -85q-17 -30 -46 -59q-21 -21 -41 -34t-54 -27q-55 -21 -154 -40t-165 -19q-22 0 -30 1q-7 1 -15 7q-11 21 -11 25t4 7q4 4 9 4q7 0 31 8l33 11q6 1 7 2t-1 6q-3 6 -3 17
q-5 20 -6 32q-16 92 -20 215q2 55 0 92q-2 38 -3 65q-4 20 -4 34l-21 -9q-7 -2 -12 -6q-13 -2 -21 16q-4 10 -4 19q0 6 3 11q4 8 36 22t66 21q37 9 154 12zM365 584q-21 4 -86 4t-106 -5q-34 -6 -35 -7q-2 0 -2 -13v-7q5 -21 7 -87q3 -72 8 -122q3 -32 8 -91q4 -47 9 -82
q5 -26 7 -47q2 -22 3 -23q0 -1 1 -1q6 0 45 7q44 8 60 12q81 26 145 60q88 82 88 183q0 11 -1 22q-7 79 -45 130q-39 50 -106 67z" />
    <glyph glyph-name="E" unicode="E" horiz-adv-x="561" 
d="M34 645q3 3 30 2q26 -2 38 -4h46q35 3 187 5h86q68 0 73 -2q7 -3 9 -12q2 -10 -2 -17q-5 -20 -32 -16q-33 -3 -73 -8q-47 -8 -89 -7q-47 2 -109 3t-98 2v-17q5 -21 10 -63q4 -37 14 -92q4 -37 12 -43q-5 1 3 0q25 9 78 7q99 -9 164 -2q103 11 113 1q5 -5 4 -20
q-2 -14 -10 -21q-6 -8 -9 -10t-4 -2l-55 -8q-51 -8 -99 -6q-49 2 -91 8q-22 4 -56 3q-12 0 -35 -1v-57q-1 -66 -4 -115q-7 -55 -7 -57q-1 -8 -2 -23q4 2 14 6q15 5 48 13l31 12q14 4 37 4t60 6q69 7 112 0q23 -8 41 -10q29 -8 45 -23q11 -11 11 -20q0 -4 -2 -7
q-7 -15 -32 -12q-10 3 -62 5t-79 0q-75 -6 -133 -16q-45 -5 -85 -8q-45 -4 -55 -8q-3 -1 -7 -1t-10 2q-9 4 -11 16q-2 11 3 24t9 75q6 75 8 102q6 66 -17 216q-5 32 -7 75q-3 47 -8 75q-5 24 -5 36q0 8 2 10z" />
    <glyph glyph-name="F" unicode="F" horiz-adv-x="508" 
d="M59 666q59 8 119 -6q118 -15 190 -17q18 0 27 2t37 14q23 10 32 10q3 0 4 -1q7 -3 13 -6q10 -10 11 -19q0 -17 -34 -32q-1 0 -3 -1q-10 -4 -29 -12q-30 0 -120 1q-118 0 -180 5q-52 3 -55 2q-3 -8 1 -23q4 -14 15 -98q2 -13 4 -30q1 -17 2 -28t2 -24q1 -5 2 -15q4 1 13 2
q19 1 36 4q22 3 33 2q12 -1 52 -8q53 -11 69 -10q19 1 65 10q71 15 76 6q3 -4 -2 -14q-4 -9 -6 -21q-3 -11 -28 -17q-23 -6 -166 -7q-125 2 -137 -2q1 -12 5 -36q6 -59 6 -87q-1 -28 -10 -99q-6 -35 -10 -62q-3 -23 -5 -25q-1 -1 -2 -1q-5 0 -17 4q-17 6 -19 9t0 72
q3 121 -14 230q-10 60 -16 166q-5 106 -8 119v6q-1 13 8 22q12 11 39 15z" />
    <glyph glyph-name="G" unicode="G" horiz-adv-x="661" 
d="M289 658q16 3 33 3q47 0 97 -16q69 -22 119 -64q31 -28 44 -62q12 -35 -8 -45q-33 -8 -39 20q-2 9 -22 31q-21 22 -38 34q-43 21 -83 35q-18 6 -32 6q-13 1 -37 -1q-47 -4 -67 -11q-21 -6 -49 -22q-89 -47 -111 -196q-5 -32 -5 -48q1 -16 6 -44q30 -84 73 -123
q68 -63 130 -80q63 -18 117 -1q21 4 36 9q3 3 41 18q17 5 35 12q3 1 9 5q0 10 1 42q1 49 4 84q1 12 2 35q-9 -2 -35 -8q-50 -1 -104 2q-31 2 -38 3q-8 2 -11 7q-5 13 -3 21q3 15 19 21q16 5 63 7q55 2 99 10q45 8 54 1q15 -6 19 -20q3 -15 5 -78q2 -92 14 -152q5 -30 5 -43
q0 -9 -2 -11q-9 -7 -41 -7q-21 0 -29 21q-1 4 -3 10q-3 -1 -10 -7q-17 -12 -47 -25q-31 -13 -54 -17q-9 -2 -32 -7q-21 -4 -60 -4h-9q-46 0 -68 7q-56 17 -86 32q-30 14 -84 68q-53 53 -72 101q-17 42 -17 105v21q3 98 53 178q13 23 40 52t48 42q63 41 130 49z" />
    <glyph glyph-name="H" unicode="H" horiz-adv-x="585" 
d="M62 674q4 8 26 8t26 -7q3 -7 3 -149v-135q6 -1 23 -5q88 -7 187 1q57 6 71 7q30 2 33 4q6 4 23 106q17 101 15 125q-1 16 11 24q12 7 22 4q17 -4 21 -32q5 -28 1 -100q-3 -58 -6 -74t-1 -38q0 -7 2 -23q3 -1 13 -2q12 -1 16 -12q2 -7 2 -13v-6q-2 -8 -16 -21
q-4 -2 -13 -6q-1 -14 -3 -58q-3 -33 -4 -70q-1 -26 1 -68q5 -86 5 -109q1 -23 -4 -31q-7 -11 -26 -15q-7 -2 -13 -2q-10 0 -16 5q-13 9 -18 35q-6 26 -10 88q-6 163 -10 192q1 5 0 10q-2 6 -2 9q-33 1 -100 1q-80 0 -104 1q-23 1 -46 6q-14 8 -37 10l-24 3q0 -22 1 -85
q-3 -105 -1 -168q1 -23 3 -70q-2 -1 -8 -5q-14 -9 -49 -2q-6 4 -12 34q-7 31 -7 54q0 25 -5 42q-3 13 -3 51v33q2 71 5 97q9 90 20 288q3 60 8 68z" />
    <glyph glyph-name="I" unicode="I" horiz-adv-x="270" 
d="M201 691q12 3 20 3q21 0 21 -17q0 -16 -4 -26q-3 -10 -47 -25q-6 -3 -33 -15q-14 -5 -17 -12q-2 -6 3 -43q5 -39 10 -109q7 -130 13 -206q6 -46 7 -67q1 -20 1 -63q-4 -50 -2 -53q2 -2 11 1q10 4 22 10q13 6 22 2q8 -2 12 -9q5 -7 5 -14q0 -6 -8 -20q-9 -13 -20 -17
q-13 -4 -47 -10q-33 -5 -41 -9q-10 -5 -44 -6q-7 -1 -12 -1q-23 0 -29 4q-10 10 -6 26q5 15 19 22q10 5 24 7q15 2 20 2q6 0 7 5q5 28 -9 98q-2 16 -6 52q-3 36 -5 185q-5 178 -8 206q-2 2 -23 -1q-21 -4 -25 -3q-4 2 -10 9q-8 7 -8 20q0 14 6 22q10 10 59 30q13 5 62 12
q43 6 60 10z" />
    <glyph glyph-name="J" unicode="J" horiz-adv-x="448" 
d="M337 687q49 11 80 11q17 0 29 -4q10 -3 14 -11q3 -6 3 -13q0 -3 -1 -7q-2 -6 -5 -8q-2 -3 -9 -5q-14 -4 -20 -9q-10 -8 -22 -12q-13 -5 -54 -13q-40 -3 -51 -7q-1 -5 -1 -12q8 -21 19 -70q10 -48 14 -89q3 -25 12 -78q24 -152 2 -234q-23 -81 -101 -125q-40 -23 -75 -23
q-53 0 -95 53q-17 21 -35 69q-23 54 -23 72q0 3 1 5q0 11 3 29q0 17 14 18q19 3 14 -26q0 -11 11 -41q10 -30 18 -47q19 -40 43 -60q24 -21 52 -18q23 -3 49 26q40 40 54 99q14 61 -4 191q-8 66 -11 128q-2 43 -3 65q-1 23 -3 36q-4 13 -7 17q-3 5 -5 4q-22 -13 -90 -24
q-52 -10 -65 -10q-13 1 -18 14q-2 7 2 19q3 11 10 13q8 2 24 11q46 23 230 66z" />
    <glyph glyph-name="K" unicode="K" horiz-adv-x="576" 
d="M83 685q4 2 8 2q8 0 16 -9q5 -7 2 -30q-3 -24 -6 -94q-3 -67 -9 -114q-7 -38 -9 -96q1 -15 2 -46l16 16q17 16 23 22q16 17 65 61q36 44 55 65q61 67 83 92q22 24 33 31q16 9 44 40q24 25 52 41t36 15q6 -1 9 -13q1 -9 -1 -14q-2 -6 -16 -23q-13 -19 -54 -66
q-40 -47 -48 -53q-18 -14 -66 -65t-48 -54q1 -7 11 -15q10 -14 20 -30q19 -25 74 -96q54 -70 70 -87q20 -23 50 -54q44 -44 60 -69q8 -9 8 -22q-1 -6 -3 -14q-6 -22 -21 -22q-5 0 -15 5q-11 5 -25 23q-15 15 -34 32q-23 23 -54 50q-63 66 -94 112q-11 15 -41 61t-37 65
q-10 22 -13 27t-6 4q-21 -23 -51 -50q-27 -26 -45 -47q-17 -14 -30 -24l-12 -9v-40q0 -46 4 -69q3 -30 4 -75q2 -31 1 -38t-9 -11q-10 -8 -30 -8q-11 2 -16 9t-8 24q-9 61 -9 204v16q0 130 8 174q7 36 9 92q2 59 6 77q4 17 7 38q2 16 15 34q12 19 19 25z" />
    <glyph glyph-name="L" unicode="L" horiz-adv-x="493" 
d="M61 655q15 10 24 10q6 -1 10 -5q6 -5 6 -138q0 -135 4 -184q6 -50 3 -53q-2 -4 14 -117q7 -38 9 -70q1 -10 2 -28q2 0 9 2q27 7 183 4q47 0 140 -1q0 -2 1 -7v-3q0 -20 -35 -36q-20 -4 -22 1q-25 6 -114 -4q-36 -4 -106 -8q-57 -3 -77 -3h-8q-19 1 -34 5q-14 4 -14 11
q0 21 16 31q10 2 9 9t-13 51q-20 75 -23 94q-2 18 -2 97q1 62 6 159t9 122q1 10 -1 30q-3 15 -2 19t6 12z" />
    <glyph glyph-name="M" unicode="M" horiz-adv-x="705" 
d="M607 710q11 6 19 6q7 0 18 -6q12 -7 15 -31t3 -111q0 -107 -2 -193q-2 -134 12 -275q5 -44 5 -61q0 -3 -1 -6q-1 -13 -9 -22q-10 -10 -22 -8q-13 2 -24 2q-12 0 -15 12q-16 55 -21 173q-5 117 3 224q3 52 4 107q0 55 -1 57q-1 -1 -3 -6q-3 -5 0 1q-7 -16 -27 -52
q-42 -86 -54 -121q-29 -72 -48 -138q-5 -19 -23 -72q-26 -86 -36 -134q-13 -65 -19 -83q-7 -18 -19 -18q-9 0 -14 9q-5 8 -12 35q-19 73 -39 116q-39 74 -88 213q-70 173 -111 246q-3 5 -10 16q0 -4 2 -16q7 -51 8 -189q-7 -151 7 -256q5 -35 6 -80q0 -32 -1 -39
q0 -7 -6 -12q-5 -5 -19 -5q-13 0 -20 3q-12 4 -15 13q-3 8 -6 71q-1 59 -6 97q-2 26 -2 69q0 44 5 232q2 72 4 109q1 37 4 59q4 24 9 30t14 6q10 0 23 -13t32 -43q31 -47 63 -102q32 -54 77 -179q43 -93 66 -177q14 -27 19 -44q6 -16 8 -16t7 24q4 20 8 36q16 66 36 136
q14 38 26 68q25 72 46 114t58 117q27 54 41 76t25 31z" />
    <glyph glyph-name="N" unicode="N" horiz-adv-x="594" 
d="M51 694q5 2 9 2q6 0 12 -3q11 -5 21 -11q11 -6 17 -24q15 -19 55 -90q15 -24 28 -57q30 -61 39 -77q12 -13 30 -33q15 -22 28 -41q22 -25 58 -74q19 -32 38 -52q11 -12 41 -43q7 -9 17 -22q10 -14 13 -19q7 -7 21 -22q-1 4 -1 16q-9 71 -12 154q-4 83 -1 115q4 35 2 50
q-2 17 4 83q7 91 7 101q1 11 8 23q6 9 18 12t19 2q12 -4 11 -13v-11q0 -23 -2 -58t1 -102q5 -60 5 -176q1 -111 6 -159q6 -41 9 -75q4 -37 5 -61q1 -16 1 -24v-6q-1 -6 -5 -12q-8 -10 -19 -12q-24 -4 -46 30q-12 20 -17 25q-2 2 -20 24q-14 19 -22 29q-53 60 -75 85
q-56 62 -107 129q-36 50 -52 86q-16 35 -56 112q-40 51 -42 61q-2 -4 0 -21t6 -34q2 -54 6 -76q-4 -158 -2 -215q4 -16 6 -96q3 -81 6 -100q1 -12 0 -16q-2 -5 -9 -13q-8 -10 -24 -10h-6q-21 2 -29 10q-7 7 -9 14q-2 9 1 63q7 104 -6 338q-5 69 -5 170q0 77 1 94q0 16 6 21
q6 7 12 9z" />
    <glyph glyph-name="O" unicode="O" horiz-adv-x="681" 
d="M301 673q3 1 27 1h30q83 -1 122 -21q15 -8 46 -38q32 -29 47 -50q49 -64 70 -162q6 -29 6 -79v-9q-1 -57 -8 -86q-26 -101 -114 -160q-42 -28 -87 -43q-75 -25 -119 -24h-1q-44 0 -100 27q-57 26 -110 71q-54 45 -73 84q-12 24 -17 80q-1 19 -1 35q0 34 6 58
q15 75 67 150q20 27 28 37q9 10 42 44q25 25 36 34t28 17q34 15 48 21q23 12 27 13zM371 618q-30 5 -49 6q-2 1 -4 1q-19 0 -47 -15q-32 -18 -62 -46q-77 -81 -97 -131q-21 -62 -27 -121q-1 -8 -1 -16q0 -59 36 -126q14 -15 57 -58q80 -48 137 -52q5 -1 9 -1q27 0 59 12
q37 13 75 33q73 37 105 88q32 52 32 135q-7 83 -36 140q-31 39 -73 87q-22 22 -34 31t-38 21q-23 7 -42 12z" />
    <glyph glyph-name="P" unicode="P" horiz-adv-x="583" 
d="M66 649q6 6 10 7q2 0 3 -2q1 -1 0 -3q-1 -1 6 -1q8 -1 21 -2h35h56q116 -1 150 -6q118 -21 170 -90q23 -30 31 -68q2 -8 2 -17q0 -12 -3 -25q-12 -45 -57 -91q-29 -27 -57 -45q-29 -17 -84 -32q-33 -9 -86 -18t-93 -10q-15 -1 -45 -2q-1 -9 -2 -36q-2 -37 -1 -73
q2 -83 -5 -130q-2 -10 -6 -10q-6 0 -11 -4q-6 -3 -10 -6t-8 -3q-3 0 -8 2q-9 5 -15 18q-6 15 -8 31q-6 39 -3 137q2 97 12 194q11 130 3 196q-6 43 -8 50t-10 8q-5 0 -7 2t-3 9q0 6 2 8q1 2 10 4q14 2 19 8zM179 599q-45 0 -57 3q-8 0 -12 -3q18 -52 20 -95q1 -43 -3 -147
l-3 -63q11 1 43 2q67 3 133 28q65 25 112 60q71 58 71 86v3q-12 36 -38 69q-56 48 -188 51q-29 1 -78 6z" />
    <glyph glyph-name="Q" unicode="Q" horiz-adv-x="735" 
d="M347 666q7 2 23 2q10 0 23 -1q36 -2 53 -8q74 -21 142 -67t89 -88q22 -45 26 -109q1 -13 1 -25q0 -51 -13 -98q-24 -111 -113 -178q-22 -15 -20 -18q2 -2 34 -22q33 -21 43 -32q8 -11 12 -17q4 -5 -6 -12q-8 -4 -19 -4q-13 0 -28 6q-30 12 -62 37q-7 6 -23 19
q-4 -2 -15 -9q-19 -9 -49 -17q-29 -9 -51 -13q-24 -3 -61 -1q-36 1 -61 8q-90 24 -154 80q-86 75 -92 179q-1 7 -1 14q0 69 45 169q24 54 41 80q16 26 42 53q31 33 70 51q38 18 87 18q30 1 37 3zM424 619q-19 4 -40 4q-24 0 -30 -6t-17 -5q-25 4 -74 -9q-59 -19 -110 -85
q-17 -28 -37 -76q-19 -48 -23 -72q-4 -18 -4 -42q0 -15 1 -32q4 -44 19 -79q14 -36 35 -57q21 -20 53 -38q83 -51 170 -51q34 0 68 8q9 3 25 9q-4 4 -17 15q-14 14 -41 35q-33 25 -31 36q0 4 -2 10q-3 6 5 18q9 11 16 15q6 3 13 4t22 -7q22 -10 30 -16q33 -27 46 -49
q11 -15 13 -15q4 0 25 12t30 24q14 17 29 48t19 52q9 45 9 92q0 14 -1 28q-3 61 -17 89q-28 42 -52 67q-20 16 -27 21q-8 6 -19 12q-14 9 -29 16q-31 18 -57 24z" />
    <glyph glyph-name="R" unicode="R" horiz-adv-x="602" 
d="M144 667q7 1 23 1q17 0 44 -1q53 -2 77 -7q156 -23 213 -77q37 -37 36 -77q-2 -40 -43 -77q-20 -19 -65 -42q-41 -22 -54 -27q-16 -6 -19 -8q0 -1 3 -5t9 -11q8 -6 15 -14q24 -33 48 -68q64 -95 92 -132q15 -22 40 -68q24 -46 24 -55q0 -8 -9 -17q-8 -11 -21 -11
q-9 0 -14 3q-6 3 -19 18q-42 44 -67 82t-88 150q-20 33 -24 40q-15 16 -30 41q-12 24 -15 28q-4 5 -10 3q-29 -7 -63 -14q-26 -6 -57 -15q-22 -10 -33 -10q-12 0 -13 -1q0 -1 -3 -108q-3 -114 -3 -115q0 -21 1 -37q1 -29 -4 -39q-8 -14 -26 -18q-19 -5 -29 4q-18 12 -18 91
q0 50 3 155q4 106 7 147q3 28 7 94q5 79 6 99q4 37 2 38l-20 -4q-32 -7 -36 7q-1 5 -1 8q-1 8 5 11q8 6 33 15q37 14 96 23zM246 616q-23 2 -62 3h-3q-38 0 -55 -2q-8 0 -10 -2t-2 -5q1 -2 5 -30q6 -32 6 -135v-91h7q18 1 107 29q89 29 122 44q7 3 43 19q27 14 48 24
q20 19 20 38q0 13 -9 27q-9 13 -34 30q-27 19 -74 32q-48 13 -109 19z" />
    <glyph glyph-name="S" unicode="S" horiz-adv-x="560" 
d="M204 694q30 7 68 7q14 0 30 -1q57 -4 88 -18q24 -11 48 -35q25 -24 39 -53q12 -21 13 -36q2 -16 -5 -38q-5 -18 -17 -26t-20 -5q-20 -1 -20 2q0 1 -5 39q-4 32 -12 48q-8 17 -27 36q-18 17 -36 23q-19 4 -65 3q-47 0 -72 -6q-35 -7 -71 -32q-20 -12 -34 -40t-10 -44
q7 -32 34 -58q28 -27 76 -44q53 -20 123 -36q73 -12 100 -34q52 -27 82 -87q26 -51 26 -97v-16q-2 -22 -13 -48t-25 -39q-36 -31 -101 -46q-65 -16 -141 -16q-100 0 -158 30t-69 89q-3 16 1 47q6 40 8 45q1 6 6 6q7 0 11 9q26 10 37 3q5 -5 1 -15q-20 -49 -17 -55
q4 -24 23 -50t46 -39q48 -25 122 -24q71 4 135 27q48 18 61 40t13 54q0 25 -14 54q-13 28 -39 51q-19 17 -39 21q-19 5 -81 20q-109 26 -163 54q-49 25 -79 64q-31 40 -39 80q-2 9 -2 18q0 12 3 24q10 45 46 79q47 47 134 65z" />
    <glyph glyph-name="T" unicode="T" horiz-adv-x="572" 
d="M171 663q19 2 197 3q125 0 150 -1q26 -1 28 -6q1 -2 1 -5q0 -4 -3 -10q-4 -9 -18 -9q-18 0 -87 -4t-99 -8l-33 -3q1 -2 3 -8q6 -26 12 -96q4 -53 9 -120q6 -67 9 -174q2 -106 -1 -149q-3 -52 -6 -60q-6 -14 -25 -15h-2q-18 0 -20 13q-3 10 -5 14q-10 15 -11 39
q-2 23 -1 156q1 112 -2 250q-2 139 -6 142q-1 1 -46 -3q-53 -5 -73 -7q-77 -7 -104 -17q-14 -4 -22 1t-9 9q-1 3 -1 7q0 6 3 14q5 13 15 17q21 9 47 14t100 16z" />
    <glyph glyph-name="U" unicode="U" horiz-adv-x="559" 
d="M457 694q4 4 15 4q12 0 12 -5v-30q0 -63 13 -197q6 -69 5 -90q-3 -28 20 -154q7 -28 9 -96q11 -65 9 -81v-2q0 -3 -2 -4t-4 0q-5 2 -14 20l-7 8q-1 -16 -6 -15q-2 0 -3 4q-5 5 -15 25q-10 21 -17 70q-3 15 -10 46q-2 -6 -7 -24q-14 -47 -38 -81t-53 -46l-20 -8
q-14 -6 -20 -9q-53 -23 -94 -23q-21 0 -39 6q-17 6 -28 14t-37 31q-38 34 -57 74q-18 39 -32 109q-5 28 -6 103q-1 25 -1 47q0 46 2 83q12 193 35 193q5 0 12 -19q8 -18 4 -45q-6 -35 -6 -175q0 -139 4 -158q6 -35 20 -66t23 -46q21 -34 35 -52q11 -14 27 -28q22 -8 64 -8
q30 0 38 1q8 2 20 9q55 32 92 89q41 80 42 186q2 54 1 55q-1 3 -5 79q-5 76 -5 98q0 35 7 67t17 41z" />
    <glyph glyph-name="V" unicode="V" horiz-adv-x="572" 
d="M522 683q8 6 17 6q5 0 10 -2q3 -3 3 -9q0 -18 -21 -62q-22 -44 -33 -70q-27 -70 -46 -110q-6 -12 -17 -39t-18 -40q-24 -54 -38 -103q-8 -31 -20 -66q-12 -24 -33 -81q-1 -5 -7 -21q-22 -75 -29 -87q-6 -12 -19 -12q-1 1 -2 1q-12 0 -16 4q-5 4 -7 22q-4 16 -15 43
q-3 9 -6 23q-3 15 -4 17q-10 30 -48 123q-34 84 -45 115q-12 35 -25 66q-26 64 -38 109q-8 30 -20 70q-20 59 -20 84q0 6 1 10q3 9 12 10t23 -5q15 -5 18 -23q11 -34 27 -69q13 -36 20 -67q25 -84 92 -245q17 -49 40 -120q8 -22 17 -54q8 14 2 -4q14 63 29 110q21 62 34 94
q10 37 14 45q81 188 105 243q18 39 38 65q21 26 25 29z" />
    <glyph glyph-name="W" unicode="W" horiz-adv-x="845" 
d="M412 727q9 4 17 4q2 0 5 -1q9 -2 19 -27q40 -112 48 -139q17 -60 19 -68q20 -67 30 -100q28 -86 53 -186q7 -27 17 -47l6 -33q1 7 5 29q7 54 8 62q19 130 37 185q15 62 31 117q17 55 31 76q9 14 9 17q0 8 15 34t20 33q7 7 11 9t12 2q13 0 19 -8q5 -7 5 -16q0 -4 -1 -7
q-1 -15 -11 -33q-11 -18 -28 -62q-28 -79 -41 -131q-13 -50 -23 -85q-9 -35 -34 -176q-11 -61 -17 -91q-8 -41 -11 -62q-4 -27 -8 -37q-3 -10 -11 -14q-8 -3 -15 -3q-11 0 -21 12q-9 11 -23 54q-9 27 -11 31q-5 6 -17 46q-12 41 -19 73q-12 60 -31 131q-21 85 -43 168
q-23 90 -40 138q-2 4 -5 13q-2 -6 -8 -25q-9 -22 -22 -61q-17 -53 -24 -71q-30 -93 -81 -277q-24 -81 -31 -105q-7 -23 -11 -57q-2 -46 -8 -53q-12 -16 -26 -4q-5 4 -15 25q-11 22 -17 43q-5 20 -16 50q-14 31 -34 109q-20 79 -34 141q-2 15 -21 93q-21 82 -33 123
q-6 22 -10 48q-3 17 -3 25v7q3 10 18 13q15 2 19 -3q5 -5 12 -31q4 -16 18 -63q12 -36 24 -93q3 -13 10 -43t9 -39q3 -9 17 -66q30 -145 54 -197q9 -8 9 -2q4 27 21 85q31 115 39 140q5 19 12 46q19 68 48 156q13 37 23 71q9 29 22 59q13 31 20 39q5 6 12 9z" />
    <glyph glyph-name="X" unicode="X" horiz-adv-x="577" 
d="M526 688q4 3 9 3q6 0 12 -4q9 -5 9 -12q0 -10 -13 -24q-15 -16 -24 -26q-8 -11 -37 -51q-29 -41 -32 -44q-3 -4 -16 -22q-11 -12 -30 -37q-18 -20 -25 -28q-2 -2 -8 -11q-7 -9 -17 -22l-24 -26q-22 -30 -27 -37q-3 -3 -13 -14q-9 -11 -8 -16q0 4 86 -96q42 -44 69 -87
q32 -46 49 -64t17 -26t-4 -13q-5 -5 -5 -12q0 -4 -3 -5q-2 -2 -12 -2q-14 0 -25 13q-31 31 -64 79q-17 24 -44 53q-6 8 -20 23t-18 19l-39 45q-25 21 -26 21q-6 -6 -79 -94q-42 -52 -75 -91q-29 -35 -27 -41t-3 -8q-28 0 -38 10q0 10 32 63q23 39 83 119t68 83q2 1 2 2t-2 5
q-1 4 -5 10q-3 6 -11 17q-28 45 -58 116q-24 57 -74 155q-16 28 -7 44q2 2 8 3t10 0q5 -1 5 -3q6 0 13 -9q8 -12 19 -31q7 -14 18 -34q7 -11 50 -97q44 -72 54 -98q4 -7 11 -22q5 4 22 17q4 5 12 12q8 6 24 24q15 19 26 32q50 61 64 75q5 5 34 39q30 40 48 58q3 4 22 26
q19 21 23 27q5 9 14 14z" />
    <glyph glyph-name="Y" unicode="Y" horiz-adv-x="559" 
d="M510 685q4 2 8 2q6 1 13 -3q5 1 9 -3q3 -4 3 -8q0 -15 -69 -105q-105 -134 -150 -204q-45 -69 -47 -99q-4 -35 11 -150q7 -54 3 -88q-4 -32 -7 -38q-4 -6 -14 -6h-1q-12 1 -18 10t-8 19q-2 11 -7 62q-5 46 -10 89q-4 35 -6 73q-1 37 3 48q1 13 -5 26q-9 11 -15 23
q-13 22 -29 49q-42 72 -60 107q-47 99 -66 125q-19 25 -22 32q-2 4 -2 8q0 3 1 5q4 7 8 7q19 11 64 -38q31 -34 80 -121q15 -27 40 -65q24 -37 39 -62q0 -4 1 -12q1 3 6 12q28 46 54 74q60 81 118 150q58 70 75 81z" />
    <glyph glyph-name="Z" unicode="Z" horiz-adv-x="610" 
d="M530 680q16 4 27 4q15 0 23 -7q7 -7 7 -16v-5q0 -27 -69 -102q-14 -30 -57 -84q-50 -59 -73 -84q-24 -26 -108 -111q-88 -76 -123 -117q-30 -35 -34 -40q-6 -4 -18 -19q-5 -5 -15 -16q4 2 18 7q51 21 116 34q49 5 130 5q80 0 142 -6q47 -5 60 -9q14 -4 20 -14t-19 -31
q-18 -3 -107 -3q-107 -1 -132 -5q-23 -4 -56 -4q-58 0 -145 -15q-51 -10 -83 -24q-16 -6 -31 -6h-4q-5 1 -8 1t-8 4l-4 12v0q0 3 4 13l63 84q61 58 69 62q20 25 66 71q59 63 67 71q6 7 48 51q66 71 113 111q32 37 43 49q5 8 26 33q10 12 26 31q4 3 8 12q3 5 3 6q-1 1 -7 -1
q-52 -13 -166 -24q-35 -4 -150 -6q-114 -1 -117 2q-3 10 -3 20q0 11 -1 15q-1 3 1 4q2 2 10 3q9 2 24 2q16 1 44 2q189 8 244 16q102 15 136 24z" />
    <glyph glyph-name="bracketleft" unicode="[" horiz-adv-x="367" 
d="M79 682q13 2 96 3h30q56 0 71 -2t17 -6q2 -2 2 -7v-4q-1 -17 -9 -15q-8 1 -75 1q-84 -1 -94 -1q-10 1 -25 -4t-16 -9q-4 -6 8 -117q5 -61 4 -176q-3 -133 -4 -212t-1 -119q1 -37 0 -39q11 6 19 5q40 14 113 15q50 4 61 2q12 -1 14 -10q2 -11 -1 -28q-4 -3 -48 -5
q-120 -6 -159 -39q-8 -7 -21 -7h-4q-14 1 -17 6t-3 135q1 130 5 227q4 99 3 146q-1 48 -8 122q-7 67 -7 98q0 24 4 27q12 8 45 13z" />
    <glyph glyph-name="backslash" unicode="\" horiz-adv-x="376" 
d="M22 655q0 4 1 6t6 2q21 -3 27 -14q17 -27 57 -140q41 -114 51 -147q42 -134 57 -172q14 -37 39 -78q14 -22 22 -46q17 -43 33 -57q4 -5 4 -8v-1q-1 -3 -5 -5q-2 -1 -5 -1q-6 0 -14 6q-12 8 -27 34q-26 43 -40 56q-55 87 -111 285q-26 92 -51 160q-37 93 -44 120z" />
    <glyph glyph-name="bracketright" unicode="]" horiz-adv-x="287" 
d="M132 647q27 3 36 3h3q6 -2 10 -13q9 -20 3 -216q-5 -152 25 -416q4 -40 4 -50q-1 -8 2 -39q2 -15 2 -25q0 -8 -1 -12q-3 -9 -14 -15q-12 -5 -32 -3q-23 2 -35 -1t-44 -5q-33 -2 -55 -10l-24 -6q-2 2 -9 6q-8 8 -9 22v4q0 12 7 19q8 7 31 13t45 6q9 0 35 4q24 4 29 4
t19 -1q-2 11 -4 32q-1 27 -3 76q-21 211 -17 455q1 36 3 62q1 27 1 46v18l-4 -1q-4 0 -11 -2l-16 -2q-32 -6 -43 -5h-24v9q0 10 4 10q2 8 10 17q15 10 76 16z" />
    <glyph glyph-name="asciicircum" unicode="^" horiz-adv-x="399" 
d="M184 638q7 8 18 8q10 0 19 -9q8 -9 20 -33q10 -22 13 -26q4 -5 27 -51q22 -46 27 -59q20 -49 20 -79q-9 -23 -15 -25h-4q-4 0 -7 3q-4 5 -5 21q-2 19 -23 60q-20 41 -28 58q-2 5 -8 18q-6 14 -8 20q-22 53 -25 53l-3 -3q-4 -7 -4 -9q0 -3 -12 -42q-23 -52 -32 -80
q-8 -25 -19 -49q-8 -17 -10 -29q-4 -14 -25 -19q-5 -5 -13 1q-5 3 -6 6v2q0 4 2 15q9 43 47 134q37 91 54 114z" />
    <glyph glyph-name="underscore" unicode="_" horiz-adv-x="601" 
d="M118 8q10 3 41 3h16q45 -1 74 -6q35 -7 71 -7q123 10 145 6q36 -2 47 -31v-2q0 -5 -6 -10t-131 -1q-55 -6 -73 -6h-2q-16 0 -65 11q-25 6 -60 7q-36 1 -45 -5q-7 -3 -18 -2q-12 0 -14 5q-3 4 -3 9t3 12q6 11 20 17z" />
    <glyph glyph-name="grave" unicode="`" horiz-adv-x="330" 
d="M59 691q6 4 26 6q8 1 14 1q8 0 11 -2q4 -2 8 -14q10 -31 30 -42q14 -7 34 -28q25 -23 39 -34q16 -13 20 -24q5 -11 12 -18q6 -5 6 -8t-7 -4q-12 -4 -18 -4h-2l-6 2h-6q-1 0 -1 -1t-9 6q-10 9 -46 34q-78 53 -103 82q-14 15 -14 29v1q0 12 12 18z" />
    <glyph glyph-name="a" unicode="a" horiz-adv-x="426" 
d="M235 501q23 4 44 4q39 0 70 -16q21 -10 31 -18q10 -9 10 -25q0 -18 3 -20t2 -33q0 -30 -4 -67q-7 -55 -2 -118t18 -101q7 -23 9 -44q1 -10 1 -16v-3q-1 -4 -6 -7q-16 -9 -39 19q-24 28 -29 75q-3 36 -3 40q0 6 -9 -9q-1 -1 -2 -3q-30 -49 -62 -77t-91 -49q-25 -8 -57 -8
q-21 0 -28 1q-8 2 -19 8q-26 13 -35 31t-20 54q-4 19 -4 41q0 28 6 61q4 18 31 75q26 58 44 89q59 100 141 116zM312 459q-14 5 -30 5q-15 0 -32 -4q-38 -8 -61 -28q-12 -9 -22 -23t-18 -32l-25 -52q-4 -10 -13 -31q-10 -20 -13 -25q-7 -17 -11 -26q-7 -10 -10 -18
q-5 -5 -9 -29q-5 -24 -5 -37q0 -23 22 -46q16 -17 45 -25q24 0 58 7q51 11 85 60q35 50 50 127q3 18 12 70t9 69v2q1 12 -9 21q-8 10 -23 15z" />
    <glyph glyph-name="b" unicode="b" horiz-adv-x="424" 
d="M51 646q5 5 14 5h2q11 0 15 -7q8 -17 0 -147q-7 -126 2 -141q1 -3 3 2q11 29 47 62q53 49 99 53q51 4 98 -41q46 -45 63 -111q6 -25 6 -71q0 -45 -6 -71q-27 -105 -118 -131q-68 -18 -132 15q-17 9 -32 22q-16 13 -22 26q-4 8 -5 0q0 -5 2 -20q0 -33 -10 -56
q-10 -22 -18 -22q-6 0 -13 28q-5 21 -7 45q-1 24 -2 125q-2 84 -2 150q1 108 4 164q5 85 6 101q2 16 6 20zM279 417q-19 10 -37 10q-8 0 -15 -1q-25 -6 -61 -32q-35 -32 -60 -74q-13 -28 -16 -42t-3 -48q2 -21 3 -30q0 -10 9 -25q9 -19 26 -37q18 -18 34 -27q28 -14 57 -17
q7 -1 13 -1q21 0 37 8q24 11 36 24t26 42q11 23 15 38q4 16 4 54q0 32 -2 43t-8 29q-23 60 -58 86z" />
    <glyph glyph-name="c" unicode="c" horiz-adv-x="413" 
d="M191 492q23 3 43 3t36 -3q44 -10 73 -40q14 -17 29 -43t15 -37q0 -10 -2 -17q-2 -8 -8 -13q-12 -1 -19 1q-7 3 -13 20q-5 17 -20 33q-15 15 -31 25q-27 13 -65 12q-38 0 -66 -14q-19 -10 -25 -17t-16 -23q-20 -33 -31 -71q-14 -45 -17 -82t11 -65q12 -27 39 -54
q28 -26 59 -35q60 -16 118 45q19 19 34 45t21 44q12 33 40 5q5 -5 6 -12q0 -8 -7 -17q-7 -11 -17 -40q-8 -22 -21 -48t-20 -35q-18 -20 -50 -34q-39 -18 -78 -18q-31 0 -62 10q-71 24 -102 86q-15 32 -22 59q-5 23 -5 58v12q0 48 6 76q14 52 40 95q27 42 62 66q25 16 65 23z
" />
    <glyph glyph-name="d" unicode="d" horiz-adv-x="423" 
d="M339 678q3 6 16 6h1q14 0 16 -5q2 -6 2 -34q0 -22 4 -107q5 -89 8 -154q4 -82 8 -124q5 -49 3 -66q-3 -19 8 -110q3 -20 3 -27v-2q-1 -6 -6 -16q-8 -15 -12 -16q-5 -2 -20 4q-16 6 -16 15q-4 107 -6 99q-1 -1 -6 -23q-18 -61 -66 -87q-40 -27 -84 -28q-3 -1 -6 -1
q-41 0 -74 23q-32 21 -51 55q-20 34 -33 98q-10 44 -10 85q0 30 6 58q16 79 48 116t87 51q41 11 84 3q42 -8 69 -34q5 -4 14 -13q0 27 -2 108q-1 80 0 96q0 15 5 18q6 5 10 12zM262 426q-17 9 -39 13q-8 1 -14 1q-10 0 -17 -1q-13 -2 -25 -11q-34 -19 -55 -45
q-21 -27 -30 -61q-9 -33 -9 -69q0 -19 3 -39q5 -44 17 -72q11 -29 35 -51q30 -29 72 -39q23 4 35 9q37 22 58 71t29 159q-3 27 -4 42q-2 14 -21 47q-6 11 -12 23q-6 13 -23 23z" />
    <glyph glyph-name="e" unicode="e" horiz-adv-x="497" 
d="M243 484q3 1 17 1h22q25 -1 40 -7q16 -5 37 -21q40 -30 69 -87q10 -20 21 -34q20 -29 20 -41q0 -9 -5 -20q-5 -10 -13 -13q-11 -5 -16 -9q-12 -9 -106 -18q-228 -21 -248 -8q-21 16 20 28q113 20 138 20q24 0 34 3q19 5 106 13q20 4 23 4q7 7 -18 46q-24 39 -47 60
q-35 29 -72 37q-22 0 -48 -7q-34 -16 -67 -38q-61 -48 -77 -117q-17 -69 17 -136q11 -19 25 -33t20 -14q5 0 34 -13q26 -13 52 -14q43 -2 95 16q51 18 96 64q23 21 29 23q6 1 15 1q19 -1 25 -17q2 -4 2 -9t-3 -11q-5 -10 -24 -31q-31 -32 -58 -49t-72 -30q-50 -14 -91 -14
q-16 0 -31 2q-53 7 -108 43q-45 29 -65 67q-19 38 -19 96q0 64 30 128t71 91q18 11 58 25q39 14 72 23z" />
    <glyph glyph-name="f" unicode="f" horiz-adv-x="331" 
d="M203 688q18 9 32 9q22 0 35 -19q18 -14 16 -44q4 -4 14 -19q10 -10 10 -17q0 -4 -5 -6q-20 -4 -28 1q-7 5 -15 18q-12 21 -22 27q-9 5 -31 -2q-14 -5 -30 -26t-23 -45q-19 -47 -20 -77q0 -7 1 -9q1 -1 4 0q9 3 39 6q30 4 36 3q60 -19 57 -39q0 -12 -5 -15q-5 -4 -28 -1
q-26 4 -63 2t-39 -7t1 -47q19 -265 14 -301q-17 -56 -37 -60q-1 -1 -2 -1q-3 1 -5 4q-4 6 0 14q7 20 3 71q-3 50 -23 200q-7 55 -9 84q-3 31 -4 32q-2 2 -19 -2q-32 -7 -39 -7q-7 -1 -11 4q-5 5 -5 8q0 6 21 21q22 14 46 18q10 2 10 5q-1 3 3 42q5 49 18 77t41 56
q30 31 62 42z" />
    <glyph glyph-name="g" unicode="g" horiz-adv-x="425" 
d="M178 469q17 4 39 4q30 0 71 -8q23 -4 31 -8q9 -3 22 -16t15 -9q11 13 22 4q9 -5 12 -28q3 -24 6 -92q2 -75 6 -117q3 -25 3 -56q0 -15 -1 -31q-2 -51 -8 -77q-14 -61 -42 -104q-27 -44 -72 -77q-51 -42 -98 -42q-18 0 -35 5q-52 14 -86 67q-23 30 -33 63q-6 17 -5 29
q0 10 4 16t2 12q-1 6 5 6q7 0 14 8q2 5 4 5q1 0 3 -6q4 -6 14 -31q12 -35 36 -65q25 -29 41 -33q9 -1 9 -5q1 -2 10 -2t22 3q15 2 24 5q51 17 93 67q15 19 26 51q10 32 16 65q3 19 3 80q1 61 -2 83q-1 7 -2 20q-2 -4 -6 -16t-10 -29q-4 -19 -20 -54t-27 -48q-15 -17 -29 -24
q-15 -7 -38 -11q-31 -4 -37 -3q-37 0 -70 35t-53 94q-8 24 -10 68q-1 44 5 70q12 53 45 87t81 45zM294 411q-8 4 -31 15q-9 1 -38 1q-13 1 -22 1q-18 0 -22 -2q-7 -3 -19 -14q-13 -11 -22 -21q-24 -28 -36 -79q-3 -18 -3 -36q0 -28 8 -58q14 -50 43 -80q13 -13 23 -16
q9 -3 24 -3q34 5 61 46q25 29 33 51q9 22 19 64q0 1 2 7q1 6 3 17q3 12 5 22q11 42 11 46q0 14 -39 39z" />
    <glyph glyph-name="h" unicode="h" horiz-adv-x="450" 
d="M73 662q7 4 17 4h2q9 0 10 -4q2 -4 0 -32q-3 -32 -3 -75q0 -41 -4 -95q-4 -58 -6 -88q0 -9 -2 -27q5 8 21 30q17 27 45 58q27 32 50 46q43 29 77 20q17 -1 30 -5t24 -19q10 -15 22 -46q11 -30 16 -51q5 -26 5 -145q4 -78 16 -151q13 -73 21 -73q2 0 3 -4q1 -2 1 -3
q0 -2 -1 -4q-4 -5 -9 -8q-7 -3 -19 11t-29 49q-21 45 -22 52q-10 40 -15 134q-4 115 -15 159q-12 45 -42 55q-8 3 -13 2q-6 -2 -23 -11q-56 -55 -112 -126q-29 -44 -39 -80t-9 -130q1 -56 2 -70q1 -15 6 -26q11 -23 -3 -31q-3 -1 -8 -1t-12 1q-13 2 -13 9q0 4 -4 9
q-16 14 -17 95q-1 40 -3 81v25q0 27 2 66q2 16 6 59t5 60q4 47 10 103q6 87 7 93q6 58 12 69t13 15z" />
    <glyph glyph-name="i" unicode="i" horiz-adv-x="154" 
d="M75 625q12 5 14 5t12 -6q7 -4 9 -10t2 -15q-1 -35 -38 -35q-5 0 -11 1q-16 0 -19 2q-4 3 -6 13v7v6q2 6 10 14q11 11 27 18zM68 478q2 5 13 6h3q9 0 13 -8q4 -7 1 -98q-6 -218 5 -285q6 -34 7 -69q1 -13 2 -38q-2 -3 -11 -11q-20 -12 -30 -11h-1q-5 1 -7 4q-3 4 -7 16
q-6 19 -5 77q1 60 -5 120q-4 47 -4 71t5 113q2 33 8 69q7 36 13 44z" />
    <glyph glyph-name="j" unicode="j" horiz-adv-x="215" 
d="M106 634q6 2 13 1q9 0 19 -3q10 -5 13 -17q2 -5 2 -9q0 -6 -4 -10q-5 -6 -5 -8q0 -4 -9 -13q-9 -8 -13 -8q-5 0 -15 9q-9 10 -13 10q-2 0 -3 5v4q0 5 1 10q1 9 2 16q4 11 12 13zM102 455q3 7 5 8t4 1h6q31 -5 29 -17q-9 -15 -12 -104q-2 -90 3 -144q13 -116 33 -208
q14 -53 14 -85q1 -9 1 -16q0 -9 -1 -14q-2 -8 -8 -20q-17 -35 -55 -53q-19 -9 -43 -9q-28 0 -42 9t-21 35q-3 14 -20 45q-18 37 -18 46q0 3 2 3q4 0 4 8q0 9 12 16q13 6 17 0q4 -4 -1 -8q-4 -4 -4 -11q0 -10 16 -36t32 -44q6 -5 17 -5q12 0 24 6q9 3 13 9q3 6 7 18
q14 43 -6 136q-13 69 -17 114q-5 44 -5 125q0 158 14 195z" />
    <glyph glyph-name="k" unicode="k" horiz-adv-x="406" 
d="M68 633q12 4 19 4q4 0 7 -4q2 -3 7 -16q15 -39 7 -167q-8 -125 -6 -159q1 -9 1 -28q9 8 33 31q45 52 58 69t46 37q36 27 45 33q9 8 12 8t9 8q5 5 14 5q10 1 13 -5q3 -7 -5 -22q-9 -15 -42 -44q-31 -27 -41 -34q-11 -8 -34 -33q-23 -31 -25 -32q0 -2 10 -15q9 -12 16 -19
q3 -3 5 -9q2 -7 5 -11q5 -4 8 -8q20 -24 54 -65q53 -64 74 -92q21 -29 26 -45q2 -6 2 -10q0 -5 -3 -8q-9 -5 -14 -5q-12 1 -40 32q-28 30 -43 49q-26 29 -71 94q-23 27 -41 57q-6 10 -20 29q-2 -3 -9 -12q-11 -14 -23 -27q-12 -15 -15 -23q-3 -9 -6 -27q-3 -26 -11 -72
q-9 -53 -3 -88q2 -10 -4 -17q-5 -4 -11 -4q-9 0 -22 10q-4 5 -5 14q-1 10 -1 44q1 47 3 71q1 7 2 20h-10q-7 0 -11 3q-4 2 -4 9q1 19 13 34q5 5 7 8q3 4 6 7q0 21 -1 61q-1 80 7 153q6 66 8 139q1 68 4 72z" />
    <glyph glyph-name="l" unicode="l" horiz-adv-x="176" 
d="M67 674q4 3 13 3h3q12 0 15 -5q4 -4 3 -183q0 -138 2 -191q2 -54 12 -140q3 -30 4 -62q1 -27 5 -44q6 -25 6 -32q0 -8 -4 -13q-3 -3 -9 -3q-4 0 -9 2q-12 3 -15 12q-4 8 -7 8q-5 0 -10 20q-5 21 -6 47q-2 35 -8 72q-4 24 -5 61t-1 171q1 265 11 277z" />
    <glyph glyph-name="m" unicode="m" horiz-adv-x="706" 
d="M453 489q20 9 38 9q22 0 40 -13q35 -23 55 -65q21 -43 34 -117q8 -44 21 -100q14 -60 16 -77q2 -8 5 -28q2 -10 6 -49q2 -23 2 -35q0 -10 -1 -13q-2 -3 -7 -3q-6 -1 -14 0q-12 11 -16 22q-11 18 -19 42t-17 65q-3 16 -12 53q-8 32 -13 72q-9 79 -22 120q-12 40 -36 63
q-9 8 -14 9q-4 1 -31 -11q-77 -40 -113 -145q-7 -18 -8 -28q-2 -10 -1 -37q0 -34 5 -113q3 -40 4 -59t-2 -33q-3 -12 -10 -13q-8 -2 -18 -2q-22 0 -28 24q-6 23 -8 139q-1 125 -12 163t-31 65q-19 18 -39 17q-30 -12 -57 -56q-26 -44 -50 -120q-4 -12 -12 -38q0 -26 1 -104
v-18q0 -69 -2 -80q-2 -9 -11 -9q-1 0 -3 1t-3 1q-9 1 -15 5q-6 5 -9 19q-12 46 -5 111q4 34 4 71q0 72 -15 200q-5 44 -6 55q-2 17 -2 23v2q1 1 15 2q14 2 23 -5q9 -6 11 -46q6 -120 9 -124q1 -1 2 1t4 5q2 4 4 9q20 51 49 93q28 42 53 54q20 9 44 4q25 -5 44 -25
q13 -13 24 -39t17 -44q4 -17 6 -17t6 14q11 40 44 77q34 38 76 56z" />
    <glyph glyph-name="n" unicode="n" horiz-adv-x="418" 
d="M241 500q10 3 19 3q29 0 55 -26q36 -34 51 -90q2 -9 7 -142q6 -132 7 -208q0 -28 -2 -33q-2 -6 -7 -6q-13 -2 -26 25q-12 28 -14 84q-3 44 -6 62q-3 19 -4 113q-2 93 -7 109q-12 30 -26 50q-7 9 -14 12t-15 2q-23 -4 -50 -26t-49 -55q-29 -53 -56 -115q-4 -9 -12 -28
q1 -19 4 -74q4 -59 2 -111t-6 -59q-6 -6 -10 -6q-5 0 -7 8q-2 9 -6 9t-11 21q-7 22 -10 44q-2 23 -5 164q-1 46 -1 84q0 74 5 112q1 70 17 70q21 3 24 -59q1 -16 1 -40q1 -25 1 -26q1 -11 3 -34q2 9 4 13q3 5 5 11q22 53 62 92q41 38 77 50z" />
    <glyph glyph-name="o" unicode="o" horiz-adv-x="423" 
d="M176 489q10 3 28 3h6q23 0 35 -5q18 -7 43 -23q25 -17 38 -32q39 -42 61 -142q8 -31 9 -80v-20q0 -34 -3 -52q-21 -96 -110 -121q-18 -4 -42 -4h-18q-36 2 -58 11q-98 38 -137 152q-6 21 -7 69q0 102 40 162q13 19 40 41t43 25q10 1 10 5q0 5 22 11zM268 433q-7 6 -12 8
q-4 2 -9 5q-9 0 -26 -1q-40 0 -59 -8q-19 -9 -45 -36q-24 -26 -33 -49t-17 -71q-2 -19 -2 -36t2 -33q8 -44 32 -82q29 -44 64 -58q23 -10 51 -10q14 0 30 3q46 6 72 45q24 35 29 67q2 12 2 30q0 26 -5 63q-3 26 -6 37q-4 12 -14 34q-27 54 -54 92z" />
    <glyph glyph-name="p" unicode="p" horiz-adv-x="426" 
d="M187 508q10 3 25 3q9 0 20 -1q29 -3 45 -11q16 -9 40 -34q24 -26 34 -46q25 -50 38 -154q7 -53 7 -91q0 -36 -6 -59q-7 -25 -25 -46q-17 -21 -41 -31q-35 -18 -82 -18q-44 0 -86 22q-43 21 -63 53q-11 14 -13 15q-1 1 1 -7t5 -74q3 -63 10 -97q6 -34 8 -58q2 -25 -5 -36
q-9 -9 -20 -9q-10 0 -21 10q-8 8 -11 36q-2 27 -7 57q-9 51 -13 201q-1 20 -1 43q0 56 4 128q5 101 13 148q3 17 7 38q1 6 7 8q5 2 11 1q4 0 13 2q-1 -13 -1 -50q0 -45 2 -45q1 2 3 7q20 40 52 62q13 10 15 11q4 6 16 13t19 9zM255 461q-12 7 -27 6h-6q-20 -2 -38 -9
q-9 -4 -32 -24q-23 -21 -29 -29q-20 -25 -34 -68q-6 -16 -11 -48q-2 -15 -2 -24q0 -11 3 -13q5 -5 5 -13q0 -9 8 -34q8 -26 17 -43q10 -22 29 -41q18 -18 35 -29q32 -17 67 -17q7 0 14 1q39 3 54 14q14 11 27 43q6 18 8 28q1 10 1 34q0 56 -9 114q-10 58 -25 89
q-5 16 -26 39q-16 17 -29 24z" />
    <glyph glyph-name="q" unicode="q" horiz-adv-x="538" 
d="M186 474q21 9 34 9t45 -11t41 -19q8 -8 20 -6q14 2 19 -6t5 -34q0 -30 4 -63q2 -33 4 -181q1 -120 4 -152q3 -33 20 -122q18 -85 29 -115q13 -33 22 -17q33 70 42 168q3 38 5 47t6 9q8 0 10 -18t2 -77v-19q0 -61 -6 -84q-12 -43 -32 -66q-17 -20 -36 -20h-6q-12 2 -22 13
t-22 36q-18 38 -28 84q-10 45 -26 161q-5 35 -5 93q0 54 -4 54q-2 0 -6 -13q-17 -49 -43 -76q-14 -13 -41 -29q-27 -15 -46 -19q-46 -10 -83 33t-51 122q-7 39 -6 77q0 24 2 47q7 61 31 99q9 15 27 34q17 19 28 27q16 11 21 16t13 7q9 2 29 11zM266 423q-23 6 -43 6
q-32 0 -55 -16q-10 -6 -10 -4q0 3 -11 -12q-7 -8 -14 -19q-39 -62 -52 -142q-3 -18 -3 -36q0 -38 15 -73q20 -51 61 -74q10 -5 13 -5t12 4q2 2 10 7q8 4 11 6q32 18 52 61q13 26 17 40q5 14 12 53q10 50 13 115q1 19 1 34q0 34 -5 44q-3 6 -24 11z" />
    <glyph glyph-name="r" unicode="r" horiz-adv-x="295" 
d="M187 487q19 10 33 10q11 0 19 -7q9 -8 15 -18q3 -8 3 -13v-4q-2 -5 -5 -6q-2 0 -11 1q-11 2 -21 5q-10 4 -25 -5q-13 -8 -38 -33q-24 -25 -38 -46q-14 -20 -28 -48l-14 -28q1 -9 4 -37q3 -39 3 -129q0 -77 -3 -94q-2 -18 -16 -23q-3 -1 -6 -1q-5 0 -9 3q-7 5 -7 14
q0 7 -3 14q-4 6 -11 48q-4 26 -4 54q0 34 6 70q5 29 7 135q1 86 3 106q3 20 13 21q7 1 11 -5t5 -18q0 -22 3 -55q2 -33 4 -33t10 15q17 32 46 63q29 32 54 44z" />
    <glyph glyph-name="s" unicode="s" horiz-adv-x="412" 
d="M203 494q7 1 23 1h19q30 -1 46 -8q15 -7 37 -28q18 -18 25 -30q6 -12 9 -37q4 -25 5 -27q2 -5 -3 -10q-4 -6 -10 -6q-15 0 -20 26q-6 28 -25 41q-28 17 -66 21q-24 3 -66 -9q-43 -13 -66 -30q-9 -7 -12 -11q-3 -5 -5 -15q-9 -36 13 -59q25 -26 105 -40q76 -12 111 -30
q35 -19 53 -57q9 -18 9 -47q0 -28 -9 -47q-38 -78 -153 -92q-16 -2 -34 -2q-28 0 -60 5q-52 8 -75 25q-13 7 -21 21q-10 14 -9 32q0 8 2 18q7 29 31 47q27 21 35 5q7 -13 -12 -26q-15 -11 -15 -26q1 -15 18 -29q12 -11 25 -15t45 -7q90 -11 145 26q35 23 35 64q0 65 -117 85
q-53 8 -82 19q-29 10 -51 26q-42 34 -42 88t43 90q42 36 119 48z" />
    <glyph glyph-name="t" unicode="t" horiz-adv-x="295" 
d="M134 640q5 3 9 4q7 0 11 -9q7 -21 -4 -125q-4 -34 -3 -35q3 -2 40 4q38 5 49 9q13 6 18 4q5 -3 5 -13q0 -9 -3 -11t-18 -7q-29 -8 -80 -19q-4 -1 -13 -3q0 -6 -3 -26q-4 -40 3 -127q8 -87 20 -150q4 -24 7 -70q4 -57 10 -79q4 -13 -1 -16q-2 -2 -7 -2q-3 0 -6 1
q-9 1 -14 5q-17 14 -27 78q-3 23 -7 37q-12 42 -22 169q-2 37 -1 95q0 59 3 71q2 4 1 5t-8 -1q-12 -4 -26 -10q-19 -7 -44 -8q-9 -1 -27 -2q0 3 1 12q2 14 18 23t60 20q28 8 29 8q1 1 19 115q7 51 11 53z" />
    <glyph glyph-name="u" unicode="u" horiz-adv-x="412" 
d="M333 515q1 1 6 3q1 0 9 -3q20 -7 16 -47q-2 -33 -5 -81q-2 -57 -5 -60q-1 -3 3 -61q3 -58 7 -93q5 -35 13 -74q6 -32 6 -54v-7q-1 -16 -3 -21q-1 -5 -5 -5t-23 17q-18 17 -18 20l-6 33q-5 26 -11 57q-1 9 -4 27q-4 -7 -15 -26q-59 -99 -126 -130q-14 -6 -32 -6h-9
q-25 1 -40 12q-16 12 -32 37q-19 33 -31 92q-7 31 -7 106q0 76 7 96q5 20 5 47q0 53 11 62q5 4 6 14q5 19 13 8q5 -6 7 -41t-1 -61q-9 -81 -9 -101q-1 -19 3 -61q12 -113 45 -149q9 -10 13 -12t14 -2q21 0 51 27q22 18 49 58q28 39 41 69q15 35 20 70q6 35 9 114q3 74 8 97
q5 24 20 29z" />
    <glyph glyph-name="v" unicode="v" horiz-adv-x="464" 
d="M429 514q5 2 8 2q4 0 7 -2q1 -2 1 -4q0 -10 -20 -33q-13 -14 -18 -24q-4 -10 -21 -30q-103 -130 -137 -289q-9 -42 -18 -71q-8 -24 -8 -45q0 -14 -1 -19q-2 -4 -8 -8q-8 -7 -15 -7q-9 0 -18 10q-7 8 -11 40q-5 46 -20 93q-15 41 -55 121q-30 62 -52 135q-20 70 -20 87
q0 3 1 4q1 3 8 3q5 0 9 -5q4 -6 15 -28q16 -32 27 -64q17 -47 57 -121q17 -31 38 -78q6 -13 19 -41q0 5 3 18q13 59 23 85q27 67 70 124q14 18 20 30t12 19q6 6 11 15q5 10 44 43q5 4 16 14q12 10 13 11q10 9 20 15z" />
    <glyph glyph-name="w" unicode="w" horiz-adv-x="612" 
d="M548 466q10 12 23 16q4 1 7 1q6 0 8 -5q1 -1 1 -3q0 -7 -7 -28q-9 -25 -13 -29q-5 -4 -22 -45q-17 -40 -29 -75q-46 -136 -52 -252q-2 -34 -5 -40q-2 -4 -13 -5q-2 0 -3 1q-14 0 -20 4q-15 12 -20 43q-6 40 -39 121q-21 52 -44 115t-28 74q-15 26 -16 45q0 9 -2 15
q-3 7 -7 -1q-2 -7 -10 -22q-40 -87 -63 -182q-22 -95 -18 -159q1 -20 -3 -27q-3 -6 -7 -12q-12 -10 -19 -3q-7 6 -9 30q-2 18 -12 51q-22 63 -39 130q-42 158 -57 190q-18 42 -18 54q0 2 1 3q4 3 13 4q10 0 19 -9t14 -19q38 -76 61 -177q15 -72 22 -89q0 -5 1 -15q1 3 6 14
q17 98 33 143q18 54 45 96q17 27 24 43q5 10 11 14q7 4 21 4q14 2 42 -100q5 -18 30 -79q24 -61 39 -93q12 -26 22 -50q6 -16 8 -16q2 -2 4 10q0 4 2 17t16 63q13 50 21 70q6 21 15 34q4 17 29 67q18 49 37 63z" />
    <glyph glyph-name="x" unicode="x" horiz-adv-x="422" 
d="M385 536q3 1 6 1q5 0 10 -2q1 -2 1 -6t-1 -9q-3 -11 -11 -21q-3 -11 -13 -20q-8 -16 -28 -33q-40 -42 -95 -110q-18 -26 -20 -29q-3 -2 -12 -12q-1 -1 -2 -3q-6 -6 -1 -14q4 -9 36 -52q7 -10 12 -15q42 -58 50 -71q6 -13 20 -31q31 -40 31 -53q0 -8 3 -10q4 -2 3 -8
t-5 -8t-15 3q-11 6 -20 13q-30 29 -107 148q-36 56 -38 56q-6 0 -67 -90q-27 -45 -50 -71q-11 -23 -28 -43q-14 -19 -21 -27q-3 -3 -6 -3q-5 0 -10 8q-1 2 -1 5q0 6 3 13q11 29 59 106t83 125q3 6 10 16q-4 7 -15 31q-45 72 -78 119q-21 23 -15 28q0 3 11 3t24 -13
q20 -21 51 -63q32 -43 48 -69q3 -4 4 -3q2 1 6 8q7 11 65 68q111 121 116 133q-1 0 7 5z" />
    <glyph glyph-name="y" unicode="y" horiz-adv-x="422" 
d="M394 509q5 2 10 3q3 0 3 -3q-1 -2 -3 -4q-2 -3 -2 -18q-2 -27 -33 -97q-21 -49 -23 -54q-4 -9 -25 -82q-15 -50 -45 -148q-23 -74 -23 -83q0 -10 -4 -11q-4 -2 -40 -140q-5 -24 -7 -38q-22 -124 -40 -141q-9 -9 -18 -9t-19 10q-6 7 -7 14q-1 6 -1 40q1 45 6 71
q5 24 28 92q24 69 40 107q5 14 16 40q-4 10 -15 40q-15 42 -42 95q-28 54 -49 111q-17 44 -28 66q-11 21 -33 48q-14 15 -14 22q0 4 3 5q-4 10 -2 12q-1 4 0 7q2 3 5 11t11 7q7 0 12 -2q5 -3 10 -11q9 -26 20 -44q34 -63 51 -107q18 -44 63 -125q19 -36 26 -55q3 -6 8 -19
q-2 3 0 8q3 4 4 9q9 57 30 123q20 67 67 148q20 32 34 57q7 14 11 18q4 2 5 14q1 11 10 13z" />
    <glyph glyph-name="z" unicode="z" horiz-adv-x="462" 
d="M123 479q25 6 50 7h5q25 0 79 -4q61 -5 98 -3q27 1 33 0t13 -7q11 -8 13 -16q2 -14 -11 -31q-12 -16 -84 -101q-31 -38 -108 -117q-52 -53 -73 -77q-59 -69 -53 -73q1 -1 5 2q8 8 50 23q41 15 74 24q19 6 37 7q17 1 84 1q94 -1 97 -4q3 -4 4 -12q1 -1 1 -3q-1 -4 -6 -5
q-7 -2 -47 -6q-16 -1 -68 -10q-51 -9 -54 -12q-4 -2 -36 -8q-44 -9 -97 -29q-53 -21 -71 -35q-29 -25 -43 -25q-7 0 -14 6t-10 15v1q0 9 12 35q13 28 30 50q4 6 9 12q5 7 9 13q5 6 7 8q48 65 82 103q25 26 50 57q34 39 80 86q52 53 52 59q0 5 -16 7q-16 3 -75 6
q-69 4 -102 -2q-28 -6 -53 -7q-16 0 -20 1q-5 1 -10 6q-13 13 -2 28q10 12 79 30z" />
    <glyph glyph-name="braceleft" unicode="{" horiz-adv-x="369" 
d="M236 692q2 1 5 1q4 0 9 -1q9 -2 11 -4q1 -3 8 -3q10 0 27 -9q18 -8 22 -16q4 -5 4 -11q0 -8 -8 -16q-10 -11 -28 6q-15 13 -21 17q-6 3 -15 3q-11 0 -30 -18q-18 -19 -35 -44q-26 -41 -30 -63t10 -49q25 -47 31 -67q5 -21 -2 -50q-20 -78 -62 -120l-17 -17q4 -10 18 -40
q20 -40 25 -63q9 -41 2 -129q-4 -52 3 -82q8 -31 33 -52q20 -20 33 -21t34 15q27 19 38 19q12 0 15 -9q2 -9 -8 -14q-6 -3 -24 -21q-31 -32 -63 -32h-5q-27 3 -51 21q-25 18 -38 45t-17 62q-4 36 2 109q2 47 -4 84q-7 38 -19 49q-7 6 -28 16q-21 11 -34 14q-30 7 -30 17v1
q1 6 12 11q14 6 39 21q27 15 45 39q27 35 32 68q6 33 -6 84q-18 68 -10 103q11 55 58 101q12 11 36 27q23 16 33 18z" />
    <glyph glyph-name="bar" unicode="|" horiz-adv-x="160" 
d="M83 707q5 2 8 2q11 0 14 -21q1 -10 2 -29q3 -39 -1 -57q-5 -21 -10 -86q-4 -65 0 -103t7 -137t-1 -135q2 -36 4 -90q3 -26 3 -51q0 -45 -11 -88q-5 -24 -5 -45q-4 -19 -9 -19q-4 0 -9 11q-1 4 -3 10q-6 15 -7 32q-2 17 -3 85q-2 99 -1 131q3 225 -4 298q-4 37 -4 73
q0 55 9 105q5 33 9 73q3 35 12 41z" />
    <glyph glyph-name="braceright" unicode="}" horiz-adv-x="282" 
d="M56 648q15 4 27 4h3q18 0 40 -13q23 -14 35 -38q17 -36 4 -148q-8 -64 -8 -90q1 -26 19 -44q6 -6 18 -8q11 -3 37 -1q12 1 16 -5q3 -4 3 -11q0 -12 -13 -32q-22 -29 -30 -66q-3 -24 8 -96q32 -142 3 -199q-17 -33 -73 -47q-55 -16 -72 -17q-3 -1 -5 -1q-14 1 -21 8
q-9 9 -10 20q0 10 7 17q7 6 16 6q12 0 28 2t22 8q6 5 13 20q10 17 20 31q25 33 32 58q6 26 -3 77q-25 79 -16 125q3 20 12 41q3 6 9 19q-2 1 -10 4t-25 12q-18 9 -24 22q-26 52 2 150q10 43 10 77q0 24 -1 31q-2 8 -8 20q-10 17 -21 25q-11 9 -28 8q-11 -1 -33 -2
q-12 0 -15 1t-4 6v2q0 5 9 12q11 8 27 12z" />
    <glyph glyph-name="asciitilde" unicode="~" horiz-adv-x="555" 
d="M124 386q21 5 41 5q16 0 31 -3q33 -9 96 -44q56 -32 86 -42q31 -11 55 -7q16 3 26 8t28 19q17 12 23 10q6 -3 12 -13q2 -6 2 -11t-2 -7q-4 -8 -17 -17t-27 -16q-13 -6 -27 -11t-31 -5q-19 0 -32 1q-13 2 -30 9q-39 19 -93 51q-44 27 -72 35q-27 7 -55 1q-33 -10 -83 -49
q-17 -18 -25 -15q-5 0 -13 7q-2 2 -6 7q8 9 31 37q22 24 38 33q15 9 44 17z" />
    <glyph glyph-name="exclamdown" unicode="&#xa1;" horiz-adv-x="192" 
d="M85 458q7 10 14 13q5 2 10 2h3q10 -1 15 -13q4 -8 4 -12t-6 -15q-14 -24 -30 -24q-9 -1 -18 7q-4 4 -4 10q0 12 12 32zM114 309q5 3 9 3t6 -3q1 -1 1 -12v-21q-2 -30 -7 -62q-7 -51 -8 -91q0 -39 4 -135q6 -125 5 -159q-1 -31 -8 -39q-7 -7 -7 -13t-9 -7h-3q-7 0 -10 5
q-5 8 -12 27q-5 13 -5 40v15q0 37 1 136q2 173 8 198q5 25 8 60q3 32 11 43q8 10 16 15z" />
    <glyph glyph-name="cent" unicode="&#xa2;" horiz-adv-x="414" 
d="M181 562q15 2 20 2q2 1 3 0q3 -2 0 -19q-2 -16 1 -43q1 -10 2 -29q6 0 23 1q41 3 68 -17q20 -11 29 -21q10 -9 7 -23q-1 -12 -11 -12q-9 0 -34 14q-34 18 -69 8q-4 -1 -13 -4q1 -8 3 -31q3 -17 8 -108q13 -164 16 -184q1 -2 16 3q14 6 24 11q28 15 71 62q17 33 31 30
q7 -1 7 -8q0 -13 -29 -51q-8 -10 -19 -21q-19 -20 -26 -23q-3 -1 -17 -14q-12 -13 -31 -26q-7 -3 -21 -11q0 -6 -2 -25q-2 -26 2 -32q4 -7 1 -10q-4 -4 -9 -4q-12 0 -25 22q-5 9 -8 19q-3 12 -5 16q-3 3 -9 4q-26 6 -52 21q-26 16 -43 31q-11 12 -27 42q-16 29 -27 59
q-6 18 -8 51v17q0 22 3 36q7 38 34 77q26 40 71 69q21 13 25 17q4 3 2 32q-2 35 0 52q2 13 7 16q4 3 11 4zM172 308q-2 9 -3 54l-3 48q-4 -4 -17 -15q-69 -56 -80 -116v-6q0 -23 14 -80q5 -18 11 -27t17 -21q13 -13 34 -28q20 -15 32 -17q4 0 12 -2q-1 6 -2 23q-3 24 -8 101
q-5 80 -7 86z" />
    <glyph glyph-name="sterling" unicode="&#xa3;" horiz-adv-x="512" 
d="M224 640q14 5 36 5q10 0 22 -1q45 2 71 -13q28 -11 50 -26q21 -14 21 -21q0 -5 5 -6q5 -3 4 -19q-2 -17 -8 -21q-5 -9 -10 -3q-2 3 -29 26q-18 23 -42 32q-9 3 -36 9q-20 4 -29 5q-8 2 -24 -1q-40 -8 -68 -31q-28 -22 -44 -52q-6 -14 -8 -21q-2 -8 -2 -37q4 -31 8 -63
q2 -10 7 -29q19 0 78 -1q78 -1 82 -5q4 -5 -2 -17q-5 -11 -12 -13q0 -8 -67 -8t-67 -2l5 -31q4 -23 7 -77q2 -55 -2 -75q-1 -4 -2 -13q3 1 13 5q15 5 52 5q72 6 114 -35q31 -21 52 -25q22 -5 56 3l30 9q2 -2 7 -9q4 -5 4 -13q0 -3 -1 -7q-2 -14 -15 -29q-17 -18 -38 -21
t-56 5q-38 10 -65 34q-34 27 -69 34q-35 8 -67 -4q-21 -7 -32 -13q-12 -6 -20 -21q-11 -19 -35 -43q-7 -8 -22 -24q-5 0 -20 1q-20 2 -25 9q-2 3 -1 18q0 15 14 34q15 19 38 37q27 22 36 51q9 28 9 89q-3 45 -11 94q-1 3 -2 10h-36q-33 -1 -46 -3q-11 -3 -17 0q-6 2 -4 8
q2 4 -1 4q-2 0 -4 12q-1 8 -1 13q0 3 1 5q1 5 3 7q3 3 19 4q17 2 18 0q1 -3 30 -4q26 -2 28 1t-8 38q-7 31 -9 58q0 19 1 30q2 10 10 31q17 52 49 73q14 10 37 22t40 16z" />
    <glyph glyph-name="currency" unicode="&#xa4;" horiz-adv-x="446" 
d="M387 542q8 4 14 4q5 0 10 -3q10 -5 10 -17t-55 -44q-22 -14 -24 -18q-3 -3 -7 -3h-2q-7 1 -9 5v5q0 11 5 20q6 9 26 27t32 24zM53 535q7 6 13 6q9 0 16 -11q4 -10 18 -34q12 -23 12 -34q0 -5 -3 -7q-24 0 -53 39q-10 14 -9 24v3q2 11 6 14zM199 498q13 4 26 4q11 0 23 -3
q25 -6 62 -31q18 -12 29 -27q11 -14 21 -43q10 -27 11 -71q2 -43 -7 -74q-6 -22 -4 -25q1 -3 18 -18q18 -14 27 -20q4 -8 4 -14q0 -3 -2 -4q-7 -6 -24 4q-35 17 -41 17q-1 0 -18 -17q-18 -17 -39 -26q-20 -11 -52 -12h-8q-27 0 -43 6q-20 8 -38 22t-29 33q-3 5 -11 -4
q-38 -44 -55 -44q-6 -4 -13 2q-7 5 -7 13q0 6 11 23q12 18 32 32q11 8 13 13q1 5 -4 18q-5 11 -2 39q-5 31 -1 59q5 38 14 59t32 45q9 11 25 20q17 9 26 9q5 0 9 5q5 7 15 10zM255 457q-18 19 -28 19t-10 -4t10 -12q11 -17 -5 -16q-7 -1 -25 3q-9 1 -29 2q-5 -5 -20 -18
q-31 -30 -37 -65q-1 -9 -1 -19q0 -28 11 -61q3 -7 8 -22h13q13 2 12 -6t-11 -15q-3 -3 -8 -7q3 -4 13 -14q14 -13 32 -22q18 -10 41 -10h11q29 4 48 19q7 5 2 8t-2 10q1 7 -4 13q-6 6 -6 13q1 6 10 6t21 -6q4 -2 11 -6q2 3 6 11q5 9 5 36q0 8 -1 18q-1 31 -5 44
q-3 13 -14 33q-7 12 -9 14q-4 3 -14 20q-10 12 -25 34z" />
    <glyph glyph-name="yen" unicode="&#xa5;" horiz-adv-x="535" 
d="M415 643q13 15 20 15l1 -1q13 -5 8 -12q-1 -6 -13 -34q-29 -77 -62 -121q-32 -51 -52 -78q-4 -9 -25 -50q-5 -8 -15 -25q21 -1 84 -2q84 -2 108 -7q21 -2 28 -6q8 -4 8 -10q0 -5 -3 -8t-19 -4q-22 -7 -117 -6h-99q0 -5 1 -18q1 -14 4 -48q1 -23 5 -24q5 -2 42 -2
q11 1 18 1h96q54 0 64 2q4 2 5 -4q4 -10 -2 -10q-4 -7 -7 -8q0 -13 -132 -12h-88q1 -6 2 -23q2 -24 6 -48q3 -24 3 -50v-24h-9q-18 1 -22 4q-11 7 -16 83q-5 50 -6 55q-2 7 -38 6q-35 0 -99 -2q-24 0 -73 1q1 2 3 8q1 7 0 10q-1 2 -1 7q0 6 10 8t49 0q142 -5 144 -5
q0 1 -3 30q-1 20 -1 35q-2 22 -8 24q-7 2 -87 1q-72 0 -86 4q-13 4 -13 14q0 14 21 19t52 5q38 0 74 2q35 3 35 5q0 3 -18 38q-17 36 -34 65q-5 9 -19 34t-19 34q-18 32 -30 48q-17 23 -35 51q-17 28 -17 32q16 36 61 -28q19 -22 32 -43q32 -44 59 -91t41 -78q5 -18 8 -25
q2 -7 5 -9q4 -2 7 3q3 4 11 17q23 38 58 91q12 17 27 42q11 22 22 40q13 28 22 45q8 17 8 18q0 3 16 19z" />
    <glyph glyph-name="brokenbar" unicode="&#xa6;" horiz-adv-x="143" 
d="M55 673q12 10 22 10q11 0 20 -13q5 -13 5 -55q0 -34 -3 -86q-5 -60 -2 -106q3 -34 2 -71q-2 -37 -8 -46q-14 -14 -33 -14q-4 0 -7 58q-3 138 0 202q1 26 -1 69q-2 26 -2 35v3q1 7 7 14zM53 155q6 7 22 7h3q18 -1 18 -7t-3 -6t-3 -10q0 -9 -5 -18q-3 -1 0 -13
q4 -15 7 -137q4 -127 5 -150q1 -11 1 -19q0 -11 -2 -15q-3 -6 -19 -6h-2q-14 0 -18 4q-3 5 -7 4q-4 -3 -6 5q-3 7 2 111q3 103 -1 161q-2 27 -2 44v16q2 17 10 29z" />
    <glyph glyph-name="section" unicode="&#xa7;" horiz-adv-x="432" 
d="M241 657q9 1 18 1q47 0 79 -23q38 -27 38 -72q0 -50 -36 -68q-13 -11 -33 -11q-39 9 -57 27q-9 11 0 17q11 8 23 0t26 1t14 25q-2 42 -49 48q-16 4 -23 4t-29 -5q-29 -7 -51 -17q-17 -8 -31 -19t-16 -20q-3 -13 12 -33q16 -20 56 -55q36 -31 133 -86q27 -15 51 -35
q24 -21 33 -39q15 -31 15 -67q0 -13 -2 -26q-8 -51 -35 -82q-10 -11 -28 -20q-17 -9 -28 -9h-11q4 -4 17 -15q38 -23 42 -62q5 -42 -17 -78t-57 -56q-30 -16 -71 -16h-4q-44 1 -82 20q-22 13 -47 35t-33 36q-19 40 0 75q19 36 61 36q6 0 8 -2q2 -1 2 -7q9 -4 -4 -11t-19 -13
t-10 -19t1 -25q14 -28 50 -48q36 -19 72 -19q30 0 59 18q29 19 29 46q0 44 -67 86q-33 18 -52 32q-19 16 -47 35q-33 24 -68 54q-34 31 -45 55q-11 26 -11 56q0 11 2 24q6 44 25 71q21 25 64 27q21 1 23 4q2 2 -11 12q-43 31 -55 58q-6 13 -6 37q-1 25 5 38q12 30 60 52
t117 28zM189 376q-21 13 -33 16q-4 1 -10 1q-10 0 -25 -4q-27 -20 -41 -35q-5 -18 -5 -35q0 -22 8 -43q18 -36 67 -81q48 -46 80 -59q22 -8 24 -8q1 0 6 10q4 7 8 10t18 5q55 10 65 42q4 11 4 24q0 12 -4 26q-9 31 -43 55q-34 23 -119 76z" />
    <glyph glyph-name="dieresis" unicode="&#xa8;" horiz-adv-x="317" 
d="M63 650q4 2 12 3q3 0 7 -1q13 -1 17 -5q5 -6 12 -17q4 -11 4 -18q0 -13 -13 -17q-7 -2 -10 -6q-1 -3 -23 -3q-11 0 -16 7t-7 22v5q0 9 5 17q7 9 12 13zM228 644q5 4 18 5h5q8 1 12 -2q13 -9 13 -30q0 -26 -30 -26q-16 0 -22 6q-6 5 -6 19q1 2 1 5q2 17 9 23z" />
    <glyph glyph-name="copyright" unicode="&#xa9;" horiz-adv-x="690" 
d="M294 669q25 2 49 2q25 0 48 -2q114 -9 114 -31q1 -4 30 -29q29 -17 39 -34q28 -29 55 -80q26 -51 38 -106q4 -20 4 -44q0 -12 -1 -25q-3 -40 -10 -66q-19 -83 -47 -122q-28 -40 -102 -76q-82 -40 -123 -45q-17 -3 -35 -3q-27 0 -58 5q-28 10 -45 16q-41 8 -78 30
q-16 9 -38 19q-29 11 -41 21q-29 22 -59 92q-29 70 -43 132q-5 25 -5 66t5 56q5 13 19 37t21 32q6 7 18 25q30 44 112 87q68 36 133 43zM397 633q-17 1 -33 1q-52 0 -99 -13q-128 -50 -190 -122q-13 -21 -19 -32q-5 -11 -12 -38q-4 -27 -4 -52v-22q0 -22 4 -56
q11 -35 29 -66q17 -31 32 -50q25 -29 45 -49q20 -21 54 -32q42 -15 70 -29q31 -15 57 -16q6 -1 12 -1q24 0 53 6q38 7 60 17q33 17 69 45q35 29 56 58q37 58 43 120q1 12 1 26q0 52 -16 115q-20 73 -60 126q-29 21 -57 30q-15 0 -18 7q-10 6 -77 27zM339 528q18 2 33 2
q22 0 38 -4q63 -9 83 -55q4 -11 8 -42q3 -19 3 -28q0 -6 -1 -8q-1 -3 -19 -3h-19q-7 0 -10 7q-25 58 -61 71q-32 11 -66 0q-35 -12 -65 -46q-13 -14 -24 -35t-12 -36q-2 -21 13 -55q14 -33 36 -62q27 -34 66 -41q39 -8 76 20q18 14 32 31q14 16 14 24q0 7 3 7t3 6q0 3 1 3
q0 1 1 -1q3 -4 12 -5q19 -2 10 -52q-6 -25 -16 -38t-33 -24q-46 -22 -114 -22q-29 0 -39 1q-9 2 -23 9q-74 43 -103 148q-9 28 -9 65q0 33 6 54q5 20 23 43q12 16 34 34q46 37 119 32z" />
    <glyph glyph-name="ordfeminine" unicode="&#xaa;" horiz-adv-x="348" 
d="M261 639q2 2 4 2q5 0 7 -13q2 -8 2 -22q5 -58 13 -104q10 -62 22 -86q4 -8 7 -22q2 -14 2 -25t-3 -11q-18 -2 -26 7q-7 6 -18 30q-11 25 -15 46q-6 30 -8 32q-1 1 -3 -4q-2 -2 -5 -11q-33 -80 -80 -104q-16 -7 -24 -8q-9 -2 -35 -3h-21q-19 0 -26 1q-11 2 -23 13
q-13 12 -19 25q-10 20 -10 46q0 15 4 32q8 48 36 90q16 23 27 35q11 11 28 22q25 18 38 21q13 4 51 4q44 1 48 2q3 1 14 3q12 1 13 2zM220 592q-3 3 -21 4h-15h-10q-7 -3 -33 -19q-26 -17 -43 -38q-21 -28 -35 -58q-13 -30 -13 -50q0 -16 11 -32t24 -19q2 -1 4 -1q8 1 21 6
q17 7 29 16q36 31 67 123q6 18 11 42q4 18 4 23q0 3 -1 3z" />
    <glyph glyph-name="guillemotleft" unicode="&#xab;" horiz-adv-x="453" 
d="M222 465h3q5 0 9 -2q5 -3 6 -18q0 -13 -2 -17q-1 -4 -8 -10q-23 -22 -79 -95q-56 -74 -56 -84q5 -7 20 -24q29 -25 71 -91q27 -37 39 -56q16 -23 12 -50q1 -5 2 -15h-5h-13q-16 0 -24 7q-8 6 -28 38q-24 37 -58 76q-34 40 -62 63q-20 16 -26 25q-6 10 -6 24q0 10 9 21
q10 10 64 66q72 71 85 89q12 16 24 27q14 13 16 19q1 5 7 7zM403 456q3 2 7 2q2 0 4 -1q7 -1 10 -3q4 -1 4 -5q0 -7 -4 -10q-3 -3 -4 -7q-1 -9 -34 -41q-11 -11 -81 -80q-21 -21 -64 -63l24 -24q32 -33 55 -64q1 -2 6 -9q6 -7 13 -17q7 -9 13 -17q40 -56 40 -81
q-3 -8 -10 -10q-4 -2 -7 -1q-7 0 -9 8q-14 21 -26 38q-13 18 -31 31q-25 17 -50 59q-25 27 -49 51q-15 13 -17 17q-3 4 -3 18q0 12 3 17t23 24q18 23 53 54q29 24 61 48q42 48 62 59q3 0 11 7z" />
    <glyph glyph-name="logicalnot" unicode="&#xac;" horiz-adv-x="509" 
d="M396 467q15 1 38 1h7q22 0 28 -7q5 -5 5 -19q1 -5 0 -10q-2 -20 -7 -51q-5 -30 -5 -112q0 -81 -5 -90q-4 -10 -3 -20q0 -7 -1 -9t-10 -2q-8 0 -10 4q-3 3 -8 16q-6 14 -7 26q0 11 1 60q-3 104 1 146q2 8 6 23q-7 -1 -29 -2q-36 -3 -65 -7q-44 -6 -118 -10
q-75 -3 -108 -11q-35 -6 -61 -8q-7 2 -22 5q0 1 1 7q1 7 10 17q8 10 40 15q25 4 39 9q11 3 81 6q96 5 155 15q36 7 47 8z" />
    <glyph glyph-name="registered" unicode="&#xae;" horiz-adv-x="682" 
d="M262 672q26 3 77 3t67 -4q16 -5 38 -8q45 -7 84 -20q20 -6 33 -20q27 -29 53 -83q27 -55 37 -103q6 -22 6 -86v-11q-1 -74 -7 -96q-15 -64 -37 -94t-78 -64q-75 -45 -124 -60q-43 -13 -103 -13h-16q-53 2 -79 11q-121 35 -177 143q-37 68 -37 171q0 34 4 72q5 44 11 66
t22 45q45 70 145 123q39 22 81 28zM408 623q-30 9 -70 10h-7q-35 0 -57 -7q-64 -17 -121 -53t-76 -77q-16 -32 -22 -76t-6 -76q0 -57 23 -121q23 -63 66 -106q26 -17 60 -34q37 -17 63 -23q18 -4 41 -4q8 0 17 1q39 1 71 14q31 13 87 45q41 24 55 34q15 10 25 26
q40 56 46 153q-1 133 -70 224q-15 20 -37 37t-33 18q-10 1 -17 3q-15 5 -38 12zM226 484q0 5 15 5q14 0 14 -3t4 -3q7 0 13 -13q6 -14 0 -18q-3 -3 -5 -14q-2 -10 -1 -15q2 -4 21 11q21 24 45 38q9 5 26 15h48q47 -1 60 -7q14 -8 20 -20q6 -11 6 -28q0 -16 -5 -20
q-4 -4 -29 -2q-21 -3 -34 10q-1 3 -4 6l-6 6q-5 -2 -16 -5q-26 -10 -57 -32q-12 -10 -26 -29t-20 -35q-19 -48 -10 -99q0 -3 1 -8q6 -43 4 -49t-18 -6h-5h-4h-16h-15h-4q-9 1 -14 51q-3 26 -3 49q0 21 2 39q4 29 9 42q4 15 4 71v63z" />
    <glyph glyph-name="macron" unicode="&#xaf;" horiz-adv-x="625" 
d="M373 766q36 3 52 3h7q21 -1 79 -3q63 -2 70 -5q5 -3 5 -11q0 -2 -1 -4q-1 -12 -8 -12t-11 -4q-3 -3 -52 -6q-47 -2 -123 -7q-73 -5 -123 -4q-47 2 -147 -2q-110 -5 -117 -6h-5q-14 0 -15 5q-1 1 -1 2q0 11 15 24q25 6 250 21q81 5 125 9z" />
    <glyph glyph-name="degree" unicode="&#xb0;" horiz-adv-x="308" 
d="M122 674q11 4 27 4q17 0 39 -4q35 -6 44 -9q8 -3 20 -15q18 -17 24 -37q6 -19 6 -59q0 -43 -6 -59q-20 -65 -61 -80q-12 -5 -40 -5h-11q-26 1 -34 3q-9 2 -26 11q-73 31 -85 114q-2 9 -1 19q0 14 3 28q5 23 15 38q22 36 86 51zM174 628q-11 3 -22 3q-6 0 -11 -1
q-15 -5 -28 -12q-20 -16 -27 -27q-7 -10 -8 -29v-4q0 -18 9 -37q18 -29 46 -48q14 -8 29 -8q13 0 27 7q32 16 40 50q3 12 3 23q0 23 -11 46q-10 21 -17 27q-7 7 -30 10z" />
    <glyph glyph-name="plusminus" unicode="&#xb1;" horiz-adv-x="500" 
d="M258 570q2 3 18 4h1q16 0 22 -3q9 -4 9 -14q0 -6 -2 -9q-2 -4 -10 -4q-11 0 -13 -2q-3 -5 -8 -44q-4 -38 -5 -74q-1 -17 -2 -50q24 1 97 2q25 0 101 1v-9q0 -9 -10 -16q-11 -7 -76 -10q-49 -3 -90 -6q-7 -1 -21 -2v-40q0 -34 3 -101q2 -52 0 -62q-1 -9 -9 -9h-1
q-22 4 -27 133q0 72 -3 74q-2 1 -17 0q-17 -3 -86 -4t-80 0q-15 1 -15 7q0 11 6 18q10 6 68 13q57 8 93 9q10 1 29 1q0 12 1 45q2 139 27 152zM327 63q2 2 19 2q11 0 29 -1q45 -2 66 -5q32 -6 32 -26q0 -3 -40 -6q-40 -2 -46 -2q-6 2 -60 -2q-54 -5 -96 0q-41 3 -92 5
q-50 2 -58 0t-8 -8q0 -4 -13 -4h-5q-15 1 -18 4q-2 2 -2 5v5q2 16 24 23q16 5 36 6t108 1q122 1 124 3z" />
    <glyph glyph-name="twosuperior" unicode="&#xb2;" horiz-adv-x="330" 
d="M137 674q15 4 38 4q20 0 46 -3q27 -3 37 -10t15 -24q6 -19 6 -29q0 -37 -84 -97q-48 -34 -71 -58q-23 -25 -38 -55q-4 -6 -11 -18q3 1 9 4q14 7 44 13t59 6q37 1 70 6q32 4 36 0q3 -3 3 -6q0 -9 -24 -19q-14 -5 -34 -8q-19 -4 -43 -9q-14 -2 -53 -10q-35 -5 -72 -17
q-30 -10 -42 -10h-2q-8 0 -10 2t-3 9v3q0 10 7 24q7 15 13 32q23 64 67 104q12 14 79 61q31 20 45 37q13 17 10 27q-2 6 -7 10q-6 4 -23 7q-15 3 -25 0q-10 -2 -34 -13q-23 -10 -45 -28q-23 -19 -23 -27q0 -7 -6 -8q-6 -2 -11 6q-6 6 -5 12q1 7 8 19q14 22 35 40
q21 19 39 23z" />
    <glyph glyph-name="threesuperior" unicode="&#xb3;" horiz-adv-x="296" 
d="M166 649q20 3 37 3q41 -1 58 -15q12 -8 13 -25v-7q0 -12 -3 -19q-4 -8 -17 -24t-24 -20q-9 -4 -9 -6t12 -7q24 -14 25 -53q1 -17 -8 -34q-21 -30 -63 -58q-41 -27 -74 -30q-6 -1 -11 -1q-31 0 -66 19q-40 23 -40 46q0 10 6 10q6 2 7 -2q10 -1 20 -14q15 -12 33 -23
q18 -10 34 -10q22 3 52 20q29 18 42 34q9 14 11 32q2 17 -1 27t-11 18t-14 6q-7 -5 -26 -6q-14 -1 -16 1q-3 2 -5 8q-6 21 17 26q69 18 90 51q4 9 4 11t-4 7q-17 16 -71 9q-54 -6 -80 -25t-23 4q0 9 6 15t21 12q43 16 78 20z" />
    <glyph glyph-name="acute" unicode="&#xb4;" horiz-adv-x="197" 
d="M118 691q4 2 10 2q5 0 10 -1q14 -2 16 -6v0q0 -6 -18 -30q-17 -23 -33 -47q-14 -21 -20 -27q-5 -3 -10 -10t-16 -7q-6 0 -9 1q-3 2 -3 6q0 5 3 12t10 19q10 23 27 52q18 30 23 32q7 2 10 4z" />
    <glyph glyph-name="mu" unicode="&#xb5;" horiz-adv-x="455" 
d="M409 486q4 -1 5 -18v-16v-15q-2 -17 -7 -85q-5 -69 -12 -97q-5 -29 -7 -52q-7 -70 -33 -125t-56 -70q-19 -10 -58 -12q-38 -2 -60 10q-31 17 -58 52q-2 3 -8 10q1 -7 3 -26q7 -59 -7 -106q-5 -23 -25 -47q-19 -24 -26 -24q-6 0 -9 7q-2 8 2 15q2 5 2 18q0 11 6 31
q6 22 6 130t-6 140q-6 35 -9 92q-2 28 -2 53q0 26 2 48q3 41 7 57q4 15 13 18q16 0 25 -11q3 -14 5 -94q12 -154 19 -188q14 -55 35 -88q20 -34 47 -45q48 -14 76 5q17 14 18 31q1 16 20 90l12 63l8 64q4 45 6 59q1 15 6 48q11 44 13 63q1 11 10 15q8 3 11 2q5 2 10 2
q7 0 16 -4z" />
    <glyph glyph-name="paragraph" unicode="&#xb6;" horiz-adv-x="530" 
d="M262 643q42 10 124 11q32 -2 95 -8q3 -3 11 -13q9 -16 9 -23q0 -6 -2 -7t-11 -1q-22 0 -56 11q-22 8 -66 4q-44 -3 -97 -18q-5 -2 -15 -4q-1 -26 -2 -101q-2 -103 -4 -120q0 -6 -2 -19q8 -1 31 -2q39 -2 47 -7q13 2 30 4l18 3q0 4 2 16q2 13 2 110q0 96 1 98q2 1 14 3
q13 2 27 -9q6 -5 11 -6q5 0 6 -16v-100q0 -35 1 -103q3 1 12 2q8 1 10 0t3 -6q2 -8 -1 -23q-4 -15 -16 -17q-11 -2 -11 -5l-4 -27q-10 -84 -12 -124q-2 -41 -1 -177q1 -177 -2 -177q-2 0 -2 -5t-9 -3q-5 2 -13 2q-8 -1 -8 -5q0 -21 -12 10q-2 2 -3 5q-7 18 -8 29t-1 58
q3 219 10 373q1 12 1 36h-32q-17 0 -30 2q-20 3 -42 5q-6 1 -20 2q0 -3 -1 -10q-7 -44 -11 -158q-2 -72 -3 -211q0 -140 2 -148q2 -7 -1 -7q-14 0 -29 7q-7 8 -11 6q-3 -1 -4 5q-2 8 -9 73q-6 61 -6 109q0 47 6 143q5 95 11 145q4 43 1 45q-4 2 -26 3q-54 5 -92 30t-54 48
q-12 18 -11 42q0 32 21 77q31 63 110 102q56 27 124 41zM216 537q1 15 1 24q0 14 -2 14q-5 0 -38 -19q-34 -19 -45 -28q-52 -41 -63 -86v-3q0 -28 11 -49q21 -12 62 -20q49 -8 56 -8q1 0 0 0q7 5 12 71q5 67 6 104z" />
    <glyph glyph-name="periodcentered" unicode="&#xb7;" horiz-adv-x="130" 
d="M36 372q10 8 33 8q19 0 27 -9q4 -5 4 -11t-4 -15q-8 -16 -17 -24q-6 -6 -20 -6q-6 0 -13 1q-6 0 -13 4q-7 3 -10 14v9q0 18 13 29z" />
    <glyph glyph-name="cedilla" unicode="&#xb8;" horiz-adv-x="265" 
d="M135 12q6 4 14 4q21 -2 8 -18q-4 -5 -13 -15q7 0 30 -2q34 -2 40 -14q7 -12 7 -40q0 -27 -21 -55q-22 -29 -57 -45q-16 -8 -26 -10q-9 -1 -30 -1q-7 -1 -13 -2q-6 0 -11 2q-10 2 -13 16q0 18 17 17q16 -1 64 21q34 24 44 40t-10 28q-9 4 -21 2q-12 -1 -18 -8
q-6 -6 -21 -6q-14 0 -16 7q-3 12 11 41t35 38z" />
    <glyph glyph-name="onesuperior" unicode="&#xb9;" horiz-adv-x="221" 
d="M87 642q18 18 25 24q6 5 13 6h14q4 -1 6 -9q8 -36 4 -179q-3 -86 1 -123q4 -36 4 -46v-3q-1 -5 -14 -4q-11 0 -15 -1q-1 -1 -2 -1q-4 0 -8 3q-4 8 -7 22q-4 17 -3 152q4 116 0 121q-5 1 -19 -15q-13 -15 -15 -17q-9 -12 -20 -13q-12 -1 -16 13q0 13 52 70z" />
    <glyph glyph-name="ordmasculine" unicode="&#xba;" horiz-adv-x="324" 
d="M119 686q22 5 43 5q23 0 42 -9q19 -8 39 -30q26 -31 36 -64q11 -32 11 -84q0 -42 -9 -75q-15 -47 -40 -75q-19 -19 -42 -26q-15 -4 -34 -4q-12 0 -25 2q-33 3 -55 20q-22 16 -37 49q-19 35 -26 85q-3 21 -3 41q0 26 5 49q13 55 53 89q14 15 21 19q6 4 21 8zM196 650
q-10 6 -26 9h-6q-13 0 -27 -8q-39 -19 -52 -45q-14 -25 -18 -71q-1 -8 -1 -17q1 -26 8 -54q9 -39 31 -59q11 -11 28 -20q16 -10 26 -10q14 0 31 11q18 11 30 29q32 50 32 113v3q-1 65 -33 100q-11 12 -23 19z" />
    <glyph glyph-name="guillemotright" unicode="&#xbb;" horiz-adv-x="441" 
d="M197 476q0 6 7 6h1q24 -3 54 -33q12 -16 41 -45q25 -25 36 -41q12 -15 34 -54q21 -38 34 -55q15 -17 15 -32v-15q-14 -14 -57 -56q-54 -54 -72 -80q-14 -17 -23 -23q-9 -5 -20 -8q-13 -3 -22 -3q-4 0 -7 1q-8 2 -9 14q-3 19 9 39q11 20 51 61q25 25 35 44q9 18 21 34
q3 5 10 15q-2 3 -6 13q-6 11 -40 64q-57 87 -76 122q-2 7 -9 15q-7 9 -7 17zM34 462q18 1 24 2q3 0 6 -8q3 -10 14 -19q13 -10 28 -31q16 -22 46 -54q49 -52 65 -76t16 -47q0 -17 -4 -22q-10 -12 -13 -14q-8 -11 -55 -59q-44 -45 -60 -65q-10 -14 -17 -18q-6 -4 -18 -8
q-13 -4 -25 -4q-4 0 -9 1q-4 2 -2 21q1 16 5 22q5 7 24 28q12 13 16 24q3 11 36 46q52 57 52 61q0 5 -27 44q-28 40 -37 47q-3 3 -26 33q-47 64 -47 86q0 9 8 10z" />
    <glyph glyph-name="onequarter" unicode="&#xbc;" horiz-adv-x="705" 
d="M528 676q5 4 20 17h22h24q0 -4 1 -15v-5q0 -7 -3 -11q-3 -6 -25 -27q-23 -24 -66 -74t-70 -84q-38 -49 -56 -69q-11 -11 -28 -32q-14 -18 -17 -21q-5 -5 -15 -17q-4 -5 -10 -13q-6 -9 -7 -10q-48 -59 -96 -128q-13 -17 -36 -50q-22 -31 -40 -60q-24 -37 -39 -60l-18 -24
q-3 0 -14 1q-10 1 -13 2q-2 2 -4 9q-1 1 -1 3q1 19 43 92q45 76 73 117t110 150q14 18 57 76q69 93 118 148q63 68 69 68q2 0 21 17zM116 675q12 0 23 -1q7 0 8 -4q1 -2 1 -15q0 -25 -3 -94q-3 -91 -1 -161q0 -16 1 -50q-3 0 -10 -1q-8 0 -15 5t-14 28q-4 11 -11 33
q1 13 3 51q6 165 11 176q3 9 3 20t4 13zM561 340q8 1 14 1q9 0 12 -2q4 -2 5 -13q1 -9 -1 -11q-1 -2 -7 -2t-11 -3q-6 -3 -6 -6q0 -2 13 -1q9 1 11 0q2 -2 3 -10q1 -12 -3 -36q-3 -19 -2 -49q1 -10 2 -30q4 1 14 2q12 3 19 0t7 -8v-1q-1 -5 -21 -15q-6 -2 -19 -5
q-1 -11 -2 -41q-3 -42 -6 -74q-3 -31 -2 -40q2 -8 -1 -11q-3 -2 -9 -2q-3 0 -7 1q-11 1 -13 4q-2 4 -2 72q0 66 -2 67q-2 2 -48 -19q-48 -23 -87 -27q-39 -5 -48 -1q-10 5 -11 17v3q0 9 3 9q6 0 13 14q15 28 86 114t89 97q6 4 17 6zM552 228q0 16 1 65v0q-1 0 -14 -14
q-15 -16 -32 -36t-25 -29q-50 -66 -59 -82l-1 -1q0 -1 3 -1q7 1 79 22q16 4 47 13q0 16 1 63z" />
    <glyph glyph-name="onehalf" unicode="&#xbd;" horiz-adv-x="709" 
d="M573 664h6h2v-1q0 -2 -21 -30q-23 -29 -52 -67q-30 -37 -47 -58q-28 -33 -166 -216q-139 -182 -175 -236q-34 -48 -38 -53t-11 -15q-3 -7 -10 -7q-8 0 -10 -5t-6 -5q-3 0 -9 11q-5 8 -5 16q1 3 1 5q3 10 8 18q7 17 46 75q39 59 60 86q10 14 39 51q29 36 30 37q3 3 45 57
q42 53 60 74q62 83 157 187q53 55 72 65t24 11zM126 645q14 8 27 8q21 0 9 -13q-4 -4 0 -4q7 0 12 -119v-14q0 -35 -4 -49q-5 -19 -5 -33q-1 -15 -7 -16q-5 -2 -9 -2t-8 1q-8 3 -11 12q-9 20 -10 43q-1 15 -1 44v46q2 87 7 96zM486 319q18 5 40 5q8 0 17 -1q32 -2 46 -10
q24 -11 24 -41q0 -23 -17 -47q-17 -23 -76 -81q-51 -50 -83 -103q-6 -11 -4 -12l3 1q7 3 30 7q23 5 35 5q14 5 45 -8q37 -6 52 -3q13 3 22 0q6 -2 7 -7q0 -2 -1 -3q0 -7 -21 -19q-35 -10 -63 0q-25 8 -86 -10q-36 -11 -63 -14q-8 0 -26 -2v17q0 15 8 29q9 12 17 32
q13 30 35 59q23 30 85 86q36 34 43 42t7 21q0 9 -7 20q-8 10 -16 13q-10 3 -32 -2q-22 -6 -42 -15q-38 -16 -45 -41q-6 -15 -17 -14q-18 -7 -22 2q-5 9 7 27q33 49 98 67z" />
    <glyph glyph-name="threequarters" unicode="&#xbe;" horiz-adv-x="673" 
d="M578 685q6 3 8 3q3 0 3 -3q0 -4 -7 -15q-7 -12 -8 -19q0 -12 -84 -115q-31 -37 -58 -78q-14 -23 -57 -81q-43 -59 -49 -64q-3 -3 -38 -50q-36 -48 -53 -70q-16 -25 -112 -177q-18 -27 -29 -32q-7 -3 -12 -3t-9 2q-15 10 -15 16v3q3 10 56 90q52 80 82 120q24 32 48 68
q81 121 135 180q27 32 36 42q3 3 12 16q10 12 14 18q13 13 70 86q54 68 67 63zM169 649q21 5 32 5h2q11 -1 19 -8q7 -5 8 -10t1 -27q0 -21 -2 -30t-11 -29q-12 -30 -9 -30q6 0 19 -17q12 -17 17 -29q4 -16 4 -30q1 -49 -53 -78q-27 -16 -60 -16h-10q-39 3 -60 25
q-18 22 -20 33q2 0 -2 8q-3 4 -3 7q0 2 1 3q4 4 14 4q7 0 11 -4q4 -3 15 -18q19 -13 28 -24q14 -7 18 -7q5 0 19 8q30 15 39 35q9 19 3 47q-3 14 -4 21q-2 7 -12 7q-33 0 -33 7q0 3 17 22q33 35 36 70q1 20 -2 23q-9 6 -44 -8q-34 -14 -57 -32q-13 -11 -18 -7t-12 8
q-4 3 0 11q9 16 44 35q34 19 65 25zM508 305q12 12 20 13q7 2 18 2h18v-12q0 -11 -6 -11t-8 -3q-1 -1 0 -2q2 0 7 2q15 4 17 -6q2 -9 2 -48v-51q3 0 15 1q14 3 21 0q5 -5 5 -10q0 -6 -9 -13q-7 -5 -18 -8q-13 -4 -15 -7q-3 -2 -4 -12q-2 -14 1 -66q2 -59 0 -64q-1 -5 -14 -8
q-9 -3 -16 -3h-5q-5 1 -6 3t-1 9q2 24 0 76q-2 53 -4 53q-4 0 -41 -15q-65 -17 -93 -14q-5 0 -15 2q0 5 -1 22q0 25 27 59t105 111zM538 245q3 33 3 40v2v0q-2 0 -31 -32q-30 -34 -47 -54q-36 -43 -36 -50q0 -1 1 -1q0 -1 1 -1q5 0 40 13q35 14 46 10q6 2 18 4v14q0 11 5 55
z" />
    <glyph glyph-name="questiondown" unicode="&#xbf;" 
d="M222 465h6q3 1 5 1q2 1 3 1h1q7 0 11 -14q1 -5 1 -9q0 -7 -4 -11t-4 -8q0 -3 -18 -5q-9 -1 -15 -1q-7 0 -11 1q-7 1 -7 11q0 9 11 21t21 13zM215 314q16 2 24 2q3 1 5 0q5 -1 7 -20q4 -44 -4 -63t-46 -48q-45 -39 -70 -66q-20 -30 -26 -63q-7 -34 -1 -57q7 -33 25 -56
q18 -22 51 -38q25 -13 48 -13q41 0 79 34q23 29 37 75q7 24 12 61q6 38 6 51q0 9 6 13q6 3 21 3q19 -1 31 -7q3 -4 3 -17q0 -8 -1 -19q-3 -31 -10 -54q-8 -26 -8 -33q0 -10 -9 -32q-8 -22 -19 -38q-25 -42 -76 -67q-40 -19 -80 -19q-11 0 -22 2q-76 10 -105 43
q-14 12 -27 37t-18 44q-8 23 -8 56v6q1 37 9 60q10 34 34 65q23 30 47 42q21 13 38 20l24 18q3 4 0 28q-4 21 6 38q3 7 6 9t11 3z" />
    <glyph glyph-name="Agrave" unicode="&#xc0;" horiz-adv-x="573" 
d="M263 810h3q10 0 22 -6q16 -8 21 -13q4 -5 9 -18q13 -34 27 -44q6 -6 5 -10v-2q-2 0 -22 7q-21 7 -31 15q-42 31 -42 43q0 7 -4 11q-3 3 -3 6q0 6 15 11zM313 670q4 5 9 5q4 0 9 -5q5 -4 8 -3q1 1 2 -4q2 -5 4 -14q3 -8 5 -18q26 -111 94 -318q16 -47 19 -68
q13 -37 48 -118q32 -72 47 -118q1 -4 1 -8q0 -9 -5 -15q7 -4 -3 -8q-3 -1 -6 -1q-17 5 -30 20q-16 24 -28 47q-29 67 -69 147q-4 11 -12 32q-6 -2 -25 -5q-40 1 -87 1q-37 -2 -79 -3h-49q-4 -7 -15 -29q-23 -62 -35 -83q-26 -63 -33 -78q-3 -8 -9 -13q-7 -1 -14 -9
q-5 -7 -25 -7q-8 0 -10 2q-3 2 -6 9q-1 5 -1 9v4q1 6 9 23q11 22 31 73q19 48 47 105q28 58 35 72q6 15 20 54q24 72 51 113q38 59 72 146q21 51 30 63zM336 497q-15 60 -16 62l-4 -9q-5 -9 -10 -22q-17 -51 -50 -107q-33 -57 -50 -93q-9 -21 -9 -23q-1 -4 -6 -15
q-6 -11 -6 -15q0 -2 54 -2q26 0 66 1q55 3 94 2q-3 16 -9 34q-14 40 -54 187z" />
    <glyph glyph-name="Aacute" unicode="&#xc1;" horiz-adv-x="571" 
d="M300 795q11 11 23 11q9 0 17 -7q4 -4 4 -9v-4q-4 -6 -4 -12t-37 -41q-36 -35 -44 -37h-3q-6 0 -14 4q-4 1 -4 3q0 3 6 11q7 11 26 40t30 41zM256 649q5 4 8 4t12 -4q7 -4 16 -22q8 -19 25 -71q13 -39 44 -103q32 -66 44 -106q40 -142 95 -257q14 -31 22 -57q7 -27 14 -39
q8 -14 8 -16q0 -1 -12 -1q-8 0 -15 2q-6 1 -14 11q-33 40 -55 87q-23 41 -29 55q0 2 -8 20q-7 17 -19 50q-11 31 -14 36q-2 2 -121 3q-38 -1 -113 -2q-3 -7 -10 -29t-15 -37q-3 -6 -14 -43q-15 -46 -27 -80q-6 -17 -17 -51q-5 -1 -20 -5q-12 -1 -17 6t-5 24q0 21 28 114
q29 92 66 193q24 64 39 109q10 28 53 116q44 88 51 93zM276 555q-5 24 -9 25v0q-5 -1 -22 -42q-17 -39 -29 -75t-25 -73q-23 -82 -32 -106q14 1 27 -1q37 -3 70 -8q28 4 63 1q31 3 52 4q0 5 -19 58q-18 53 -30 84q-23 57 -29 71q-5 14 -17 62z" />
    <glyph glyph-name="Acircumflex" unicode="&#xc2;" horiz-adv-x="562" 
d="M301 806q15 2 21 2h4q5 -1 11 -6q8 -8 36 -40q27 -31 42 -52q15 -26 21 -31q3 -3 3 -6q0 -4 -5 -7q-9 -8 -20 2q-27 15 -60 45q-31 31 -49 37q0 -2 -30 -26q-24 -27 -47 -54q-17 -21 -31 -21h-4q-6 0 -6 8t6 23q1 3 3 6q11 26 37 62q25 36 44 49q9 6 24 9zM336 670
q7 1 9 2q2 0 9 -5q12 -9 20 -50q4 -18 22 -77q29 -86 43 -182q13 -84 18 -107t19 -64q3 -3 16 -38q22 -54 36 -82q9 -16 9 -26v-2q-1 -5 -3 -7t-9 -2q-3 -1 -6 -1q-7 0 -14 3q-10 3 -26 24q-25 32 -38 56t-26 72q-10 36 -12 41q-1 -3 -102 3q-94 -1 -128 1q-8 1 -24 2
q-2 -5 -9 -22q-14 -32 -33 -75q-18 -44 -24 -50q-8 -9 -16 -25q-9 -17 -23 -22t-22 -5q-6 0 -8 2t-2 7q0 2 1 4q1 8 5 21q5 12 14 34q60 146 88 206t74 137q28 47 46 83q18 39 27 52q9 16 20 40q24 48 49 52zM342 549q-13 36 -15 38v0q-1 0 -4 -7q-4 -16 -10 -31
q-11 -25 -37 -69q-68 -121 -100 -189l-9 -18q10 -1 38 -2q38 4 118 -4q71 3 72 0v0h1q0 5 -14 65q-23 104 -30 172q-1 12 -10 45z" />
    <glyph glyph-name="Atilde" unicode="&#xc3;" horiz-adv-x="616" 
d="M442 807q3 0 9 1q7 1 8 1q11 -12 11 -25q0 -6 -2 -12q-3 -9 -26 -29q-22 -21 -32 -25q-9 -3 -22 -2q-12 0 -24 3q-10 5 -25 10q-15 4 -31 7q-9 4 -28 11q-11 0 -16 -2q-6 -2 -13 -4q-27 -7 -42 -17t-17 -21q-1 -5 -7 -5q-2 0 -4 1q-11 1 -16 6q-4 4 -4 11q0 8 19 26
q20 19 38 28q13 6 21 8q9 1 36 1t35 -1q9 -2 27 -11q25 -11 33 -11q9 0 22 9q14 9 24 23q8 12 13 15q4 3 13 4zM284 634q3 3 8 3q2 0 5 -1q7 -1 12 -7q12 -12 37 -80q31 -84 67 -164q81 -176 124 -248q23 -38 26 -47q5 -12 14 -32q6 -13 6 -20q0 -4 -2 -7q-5 -6 -19 -4
q-16 2 -33 18q-16 18 -34 42q-29 45 -60 117q-3 7 -7 9q-3 1 -21 3q-127 7 -188 10q-18 0 -55 1q-1 -5 -7 -19q-3 -8 -16 -43q-9 -27 -21 -51q-11 -23 -23 -61q-11 -36 -22 -44t-25 -8q-11 0 -24 6q-4 3 -4 7q0 5 4 11q6 9 14 34q8 27 26 65q18 39 40 100q7 19 22 59t19 52
q19 50 31 78q29 60 43 104q17 51 40 86q19 29 23 31zM327 475q-25 75 -29 81l-2 2q-3 0 -7 -10q-5 -10 -16 -41q-37 -104 -56 -138q-7 -13 -7 -15t-9 -22q-23 -59 -28 -60q0 -1 64 -3q58 1 154 -3q17 -2 23 -2q3 0 4 1v0q0 4 -11 29q-40 71 -80 181z" />
    <glyph glyph-name="Adieresis" unicode="&#xc4;" horiz-adv-x="599" 
d="M211 789q8 1 14 1q14 0 16 -8q2 -3 2 -8q0 -10 -7 -25q-10 -24 -36 -24q-5 -1 -9 -1q-6 0 -10 2q-6 3 -9 14q-2 7 -2 14v2q0 8 6 14q14 16 35 19zM359 782q7 2 14 2q5 0 10 -1q12 -3 17 -10q5 -9 5 -18v-3q-1 -11 -14 -20q-19 -11 -32 -11q-11 0 -19 7q-7 7 -7 18
q0 5 2 12q6 21 24 24zM281 659l15 3q3 0 5 -1q4 -2 10 -11q6 -8 21 -52q16 -44 16 -51q0 -4 21 -59q21 -54 36 -87q38 -87 87 -179q33 -63 81 -138q9 -14 10 -21q2 -6 2 -18q-1 -17 -8 -18q-12 -7 -21 2q-10 11 -13 11q-6 0 -43 45q-38 45 -63 95l-12 21q-6 0 -25 2
q-9 1 -89 11q-61 1 -88 4q-28 -3 -50 -2q-8 0 -26 -1q-3 -9 -14 -37q-14 -40 -32 -86q-18 -45 -19 -58q-2 -14 -5 -18q-6 -6 -24 -6h-6q-24 1 -28 8q-1 2 -1 6q0 28 52 147q57 132 115 310q17 53 30 77q15 27 25 48q20 49 41 53zM350 413q-18 33 -34 96l-13 39q-7 18 -11 27
q-3 9 -4 9v0q-10 -16 -36 -72q-26 -98 -55 -161q-28 -71 -29 -82q0 -1 1 -2q1 -7 26 -3q5 1 8 1q28 5 62 -1q29 2 54 0q30 -3 66 -7q21 -3 27 -3q2 0 2 1h1q0 3 -14 32q-32 73 -51 126z" />
    <glyph glyph-name="Aring" unicode="&#xc5;" horiz-adv-x="583" 
d="M259 806q8 3 23 3h11q24 -1 38 -10q30 -17 30 -68q3 -30 -9 -51q-11 -31 -38 -44q-9 -5 -10 -6t7 -1t8 -3t15 -28q37 -80 64 -168q19 -64 35 -99q4 -9 12 -30q30 -51 38 -51q10 2 14 -7q3 -10 -6 -15q-2 -5 4 -23q5 -19 34 -77q20 -26 23 -64q5 -25 5 -36q0 -4 -1 -7
q-2 -9 -9 -9q-9 0 -9 3q0 2 -22 30l-30 35t-36 73q-22 50 -24 53q-4 3 -78 3q-98 -8 -160 14q-30 7 -31 7q-3 -3 -58 -118q-25 -66 -39 -85q-12 -18 -28 -18h-4q-7 1 -7 3v0q0 2 3 6q2 12 -1 14q-1 1 8 22q7 18 14 53q9 48 46 127q5 11 5 14t-4 7q-5 5 0 8q4 3 8 3
q5 -3 87 203q20 58 30 86q11 36 16 51q3 7 8 21q-2 2 -8 6q-42 24 -33 82q1 33 19 59q17 25 40 32zM308 757q-8 10 -17 9h-2q-10 -1 -19 -8q-17 -13 -22 -27q-2 -7 -2 -15q0 -10 3 -22q13 -28 29 -30q28 6 33 37q1 6 2 10q4 13 4 23q0 15 -9 23zM311 518q-24 52 -25 53
l-1 -3q-1 -2 -3 -7t-3 -10q-11 -30 -31 -84q-13 -43 -26 -77q-15 -40 -29 -74q-9 -21 -10 -25v-1q1 -3 5 -4q69 -7 139 -16q67 -4 75 -6q3 -1 10 -2q-9 24 -33 97q-29 73 -42 105q-13 24 -26 54z" />
    <glyph glyph-name="AE" unicode="&#xc6;" horiz-adv-x="815" 
d="M464 659q16 3 24 3h4q5 -2 9 -8q3 -6 5 -7q3 -1 12 0q71 9 162 10q56 0 67 -1q12 -1 17 -5q5 -6 4 -10q0 -4 -6 -4q-4 0 -4 -9q0 -8 -118 -9q-119 -2 -124 -4q-5 -3 -2 -16q4 -13 4 -57q0 -66 -2 -114q-1 -48 2 -48q2 0 20 5q58 14 168 8q48 -3 61 -5q13 -1 14 -5v-2
q0 -6 -6 -19q-7 -14 -22 -16q-3 -2 -10 -3q-8 -1 -15 -2q-6 -1 -10 -2q-19 -3 -74 -5q-74 -3 -119 -10q-4 0 -11 -1q1 -14 5 -57q0 -70 -3 -99q-3 -25 -5 -76q-3 -44 -10 -57q-14 -19 -24 -19h-3q-2 4 -6 4q-9 0 -16 20t-7 87q1 27 2 82q-17 0 -68 2q-62 0 -128 4
q-24 -1 -72 -4q-8 -13 -35 -52q-26 -50 -55 -90q-14 -29 -22 -36q-8 -6 -13 -6h-13q-12 -2 -14 0t-2 8v6q3 22 44 116q36 78 115 190q54 76 58 80q4 3 21 27q78 105 136 160q28 28 39 36t26 10zM460 387q-10 154 -8 209q-1 3 -2 4q-2 -5 -33 -37q-49 -57 -70 -85
q-46 -68 -116 -172q-7 -11 -21 -32q9 0 36 1q36 2 72 -2q51 -5 96 -8q12 0 38 -1v14q0 2 8 109z" />
    <glyph glyph-name="Ccedilla" unicode="&#xc7;" horiz-adv-x="704" 
d="M343 597q16 2 33 2q33 0 70 -6q57 -10 99 -32q28 -15 35 -29q6 -14 5 -36q-2 -38 -24 -41q-8 -1 -16 3q-9 5 -9 18q0 14 -6 25q-6 10 -26 24q-41 19 -79 29q-21 5 -57 3q-36 -3 -57 -11q-67 -30 -120 -74q-45 -44 -63 -83q-19 -39 -19 -95q0 -84 35 -132q34 -47 111 -68
q26 -6 58 -3q43 4 125 27q62 17 106 38q63 39 106 25q9 1 25 1v-7q0 -8 -5 -17q-4 -8 -2 -22q0 -4 2 -13q-7 -4 -27 -17q-23 -14 -56 -31q-32 -18 -69 -39q-37 -22 -60 -37t-22 -17q2 -1 29 3q42 5 59 -10q11 -7 14 -20t3 -43q0 -36 -4 -57q-4 -22 -26 -43q-22 -22 -58 -45
q-36 -24 -62 -30q-10 -3 -21 -3q-8 0 -18 2q-20 4 -30 10q-8 6 -32 5q-22 -1 -34 7q-11 8 -25 21q-7 7 -9 16q-2 10 0 13q3 3 11 3q7 0 9 4q2 3 11 -5q8 -7 19 -11t19 1q7 4 28 6q15 2 19 1q3 -1 10 -10q4 -5 11 -14l20 12q49 21 72 33q9 7 15 28q6 20 12 41q4 15 4 19
q0 5 -6 11q-6 7 -21 7q-18 0 -44 -13q-26 -14 -52 -27q-29 -15 -47 -15q-17 0 -21 6q-3 6 -14 13q-22 4 4 28q24 23 58 46q8 11 36 33q37 28 77 48q7 5 20 14q-54 -18 -88 -23q-33 -5 -83 -3q-122 3 -155 17q-42 16 -69 64q-27 47 -40 93q-6 20 -6 44q0 39 15 88
q25 79 77 134q16 16 49 41q34 25 57 38q53 37 114 37z" />
    <glyph glyph-name="Egrave" unicode="&#xc8;" horiz-adv-x="575" 
d="M243 811q13 1 15 1h2q6 0 14 -7q10 -7 14 -15q37 -69 37 -75q0 -4 -8 -6q-3 -1 -7 -1q-5 0 -10 1q-9 2 -11 14q-2 9 -21 27q-41 43 -41 51v1q1 3 16 9zM381 638q75 4 103 4h6q25 -1 39 -7q24 -21 12 -33q-8 -10 -22 -12q-13 -2 -46 -1q-34 2 -121 -1q-86 -3 -106 -7
q-60 -9 -108 -11q-14 -1 -41 -1q0 -6 1 -24q7 -68 9 -104q1 -7 3 -19q1 -12 2 -19q2 -7 2 -10q1 -9 3 -11t9 -1q11 1 136 4t182 5q65 1 76 -4q10 -5 10 -12q0 -22 -35 -33t-156 -14q-110 -3 -119 -4q-9 0 -48 -2q-34 1 -43 -1q-3 0 -8 -2q0 -15 -1 -62q1 -111 -12 -148
q-5 -13 -8 -30q-2 -12 -1 -14t7 -1q28 7 93 12q67 8 105 12q173 22 219 21q25 0 31 -2q6 -1 7 -5q0 -5 -5 -15q-4 -9 -13 -13q-30 -11 -84 -11q-28 -1 -48 -4q-43 -7 -127 -17q-106 -12 -153 -16q-23 -6 -56 -9q-16 -2 -26 -2q-11 0 -15 2q-8 6 -9 14v1q0 9 7 35q8 29 8 44
t4 44q16 101 10 208q-6 88 -7 145q-2 76 -4 78q-5 2 -3 8t7 7q97 21 152 27t182 11z" />
    <glyph glyph-name="Eacute" unicode="&#xc9;" horiz-adv-x="596" 
d="M294 798q13 12 23 12q2 0 5 -1q14 -3 14 -9q0 -4 -4 -8q-7 -6 -14 -22q-10 -12 -18 -24q-9 -11 -18 -23q-4 -8 -11 -15t-12 -8q-3 0 -5 6q-2 4 -2 8q0 2 1 4q2 7 5 13q6 11 13 30q7 22 23 37zM371 655q89 4 127 4q23 0 28 -2q9 -2 8 -14q-2 -13 -13 -18q-12 -4 -140 -7
q-160 -4 -227 -17q-33 -6 -43 -7l-12 -2q-1 -1 2 -29q4 -29 6 -110q0 -31 2 -91q30 0 121 1q130 1 156 5q29 4 68 4q38 0 40 -5q8 -19 -12 -30q-13 -3 -52 -7q-44 -4 -160 -5q-115 -1 -143 2q-6 1 -18 2q-1 -22 -2 -88q-2 -140 -7 -177q-5 -15 -3 -16q1 -1 14 4q34 11 75 18
q111 17 145 21q34 3 120 3q71 0 87 -1t20 -5q6 -5 6 -13q0 -3 -2 -7q-3 -13 -12 -15q-4 0 -17 -4q-7 -4 -123 -5q-121 -2 -177 -8q-56 -7 -113 -26q-43 -14 -60 -14q-10 0 -11 4q-3 3 -3 60q0 19 1 45q1 101 3 118q7 41 8 164q2 123 -4 222q0 16 6 18q21 9 94 13q48 3 99 8
q46 5 118 7z" />
    <glyph glyph-name="Ecircumflex" unicode="&#xca;" horiz-adv-x="538" 
d="M249 824l10 2l6 1q6 0 33 -30q14 -17 33 -37q20 -21 20 -34q0 -6 -3 -10q-2 0 -4 -1q-3 -1 -5 -1q-5 0 -11 4q-8 5 -52 51q-6 7 -19 20q-9 -9 -36 -37q-26 -27 -37 -32q-10 -4 -22 0q-2 5 -2 10t1 8q14 27 57 66q20 18 31 20zM385 657q13 1 29 1t34 -1q43 0 52 -6
q10 -6 8 -15q-1 -6 0 -14q0 -8 -12 -10q-26 -7 -79 1q-51 9 -124 6q-74 -3 -130 -17q-35 -9 -43 -8q-9 1 -17 -2q-7 -2 -8 -3q0 -1 4 -7q5 -7 3 -109l2 -108q1 -1 137 0q136 2 170 3q82 4 85 -8q1 -6 -6 -21q-8 -15 -18 -17q-15 -3 -89 -3q-75 1 -133 4q-69 5 -103 6
q-14 1 -42 2q0 -2 2 -9t2 -61q0 -64 -10 -130q-6 -47 -10 -67q-1 -12 2 -12q3 -1 27 5q11 2 66 8q60 5 80 8q33 4 83 7q42 2 82 6q25 2 52 0q27 -1 34 -6q5 -4 5 -12t-15 -17q-14 -9 -46 -10q-60 0 -205 -12q-114 -10 -155 -24q-20 -7 -39 -8h-5q-15 0 -20 5q-2 3 -2 17
t2 40q4 52 12 85q21 98 14 151q-5 41 -9 118q-3 77 -2 130q2 52 1 62q-1 9 -5 11q-23 7 28 15q35 4 99 9q96 7 117 9q78 7 95 8z" />
    <glyph glyph-name="Edieresis" unicode="&#xcb;" horiz-adv-x="568" 
d="M337 790q5 2 12 2q6 0 12 -1q6 0 12 -10q6 -11 6 -20q-4 -16 -15 -26q-6 -10 -15 -10q-11 0 -22 8q-10 8 -11 13q-1 3 -1 6q0 8 4 19q5 15 18 19zM167 784q6 3 20 3h3q8 0 14 -4q7 -5 8 -18q0 -23 -16 -36q-10 -7 -19 -7q-7 0 -14 4q-18 10 -18 23q0 4 1 8q3 16 21 27z
M276 655q75 3 118 3q49 0 54 -4q6 -3 17 -6q10 -2 23 -7q8 -3 11 -6q2 -2 1 -5q1 -20 -15 -24q-15 -4 -39 2q-23 7 -38 9q-17 2 -30 1q-14 -1 -42 0q-35 -2 -97 -5q-142 -4 -162 -14q-5 -3 -3 -24q2 -15 5 -78t3 -95v-24h182q191 1 213 3t31 -4q19 -25 -12 -42
q-44 -13 -244 -11q-153 4 -166 0q3 6 0 3t-2 2l-3 -114q0 -114 -4 -143q-3 -14 -3 -28q6 2 17 3q54 16 173 29q45 5 54 7q132 18 178 14q26 -1 34 -4q8 -4 8 -15q0 -8 -5 -19q-5 -10 -22 -16t-78 -6q-108 -1 -154 -6q-46 -4 -105 -20q-56 -14 -69 -16q-14 -2 -40 -11
q-18 -7 -23 -7h-2q-5 0 -10 3q-15 7 -15 41q0 17 4 40q5 26 6 43q5 31 9 55q6 37 8 110q2 49 0 58q-2 8 -5 10q-5 0 -3 11q2 17 8 24q4 2 -8 100q-3 32 -3 74q0 45 -4 54q-3 9 0 11q2 1 4 6q6 15 62 21q8 2 22 4q14 1 31 3t26 3q38 5 104 7z" />
    <glyph glyph-name="Igrave" unicode="&#xcc;" horiz-adv-x="202" 
d="M39 805q0 6 3 7t17 1q22 0 31 -5q10 -5 45 -56t35 -60q0 -5 -7 -11q-6 -6 -13 -6q-23 9 -57 46q-9 12 -36 44q-19 22 -19 35q0 3 1 5zM125 637q11 2 18 2t11 -2q3 -2 3 -8q0 -5 -6 -27q-7 -33 -10 -160q-4 -128 0 -188q4 -56 6 -131q1 -75 -3 -87q-10 -21 -34 -21
q-20 0 -24 19q-3 9 -3 199q1 152 3 191t13 112q6 32 4 57q-2 24 4 33q7 9 18 11z" />
    <glyph glyph-name="Iacute" unicode="&#xcd;" horiz-adv-x="183" 
d="M132 805q8 2 13 2q10 0 13 -6v-3q0 -10 -12 -27q-8 -10 -23 -30q-12 -16 -27 -27t-23 -12h-5q-5 0 -5 4q-3 2 -3 6q1 5 5 14q10 18 35 47q26 30 32 32zM98 649q3 7 15 8q2 0 4 -1h13v-175v-139q-1 -83 -1 -89q-1 -173 5 -206q1 -8 1 -13q0 -6 -1 -8q-1 -3 -5 -3
q-3 0 -6 2q-21 4 -33 46q-7 30 -8 244v89q0 133 4 163q3 16 7 54q2 17 5 28z" />
    <glyph glyph-name="Icircumflex" unicode="&#xce;" horiz-adv-x="244" 
d="M109 824q8 2 12 2q2 0 3 -1q7 1 32 -20q4 -4 39 -38q22 -19 37 -38q16 -18 16 -32q0 -12 -4 -12h-14q-8 1 -11 6q-3 6 -22 16q-28 17 -48 45q-15 22 -18 24q-2 2 -10 -5q-7 -5 -36 -40q-33 -38 -39 -42t-12 -4q-8 0 -14 7q0 4 -4 8q-3 3 -3 7v5q3 11 21 35t38 44
q26 31 37 33zM118 644q9 11 26 11h3q3 0 9 -1l-1 -1q-4 -1 -4 -6q1 -4 5 -4t3 -14q-2 -15 -3 -17q-1 -3 2 -65q8 -173 8 -248q0 -33 -2 -46q-3 -29 -5 -115q-1 -87 -7 -95q-5 -8 -17 -9h-3q-10 0 -20 7q-5 3 -14 8q1 20 2 79q3 77 6 100q4 25 4 90q0 66 -4 93q-5 27 0 78
q5 77 6 98q3 48 6 57z" />
    <glyph glyph-name="Idieresis" unicode="&#xcf;" horiz-adv-x="227" 
d="M36 761q8 6 22 6h4q12 -4 14 -8q2 -3 2 -12q1 -4 1 -7q0 -5 -1 -8q-2 -6 -8 -13q-9 -9 -21 -9q-9 0 -20 5q-6 2 -6 12q1 3 1 6q3 16 12 28zM191 757q10 3 17 3h4q8 -1 13 -11t5 -18q0 -4 -1 -8q-3 -12 -13 -17q-10 -4 -19 -4q-6 0 -12 2q-15 5 -15 20q0 14 4 21
q5 8 17 12zM103 629q8 11 23 11h4q5 0 7 -2q1 -2 3 -11q2 -16 4 -138q5 -128 10 -164q2 -24 2 -48q0 -19 -1 -37q-4 -44 -5 -105q-1 -44 -2 -54q-2 -10 -6 -15q-7 -7 -7 -11q-3 -2 -8 -2q-10 0 -26 10q-12 9 -15 22q-2 8 -2 22q0 10 1 22q2 29 7 95q5 68 6 230q1 164 5 175z
" />
    <glyph glyph-name="Eth" unicode="&#xd0;" horiz-adv-x="638" 
d="M112 653q13 1 70 1h9q99 0 184 -23q88 -25 134 -68q11 -10 38 -50t39 -63q22 -46 29 -74q7 -29 7 -77q0 -37 -2 -48t-9 -31q-17 -50 -51 -86q-33 -33 -85 -60q-47 -24 -119 -35q-39 -7 -116 -7h-31q-99 2 -124 11q-7 3 -6 19q0 15 7 15t8 4q1 3 10 0q9 -4 17 -4q5 0 6 1
q0 2 -4 8q-5 8 -5 45q-3 30 -3 58q0 25 -3 79q-1 56 -2 56q-1 2 -51 5q-56 3 -55 10q0 13 -1 22q3 3 52 5q50 0 50 5q0 4 -5 52q-2 40 -3 112v79h-7q-7 0 -7 5t-7 5q-5 0 1 14q9 11 35 15zM233 608q-13 1 -37 5q-23 4 -30 4q-11 1 -17 1t-7 -1q-2 -2 -2 -14q0 -18 5 -59
q4 -73 3 -126q2 -30 3 -42q4 -2 12 -7q9 0 39 -2q73 -3 110 -17t36 -26q-2 -9 -22 -14q-11 -15 -116 3q-44 7 -46 5q2 -14 3 -67q4 -58 6 -107q3 -49 1 -56q-3 -5 5 -5q8 -2 65 -2q51 1 86 2q120 25 186 85q34 32 42 62q6 23 6 61q0 11 -1 23q-2 44 -12 77t-35 77
q-42 69 -60 82q-17 13 -67 29q-58 13 -156 29z" />
    <glyph glyph-name="Ntilde" unicode="&#xd1;" horiz-adv-x="567" 
d="M467 798q6 2 16 2q9 0 12 -3q2 -3 4 -17q1 -1 1 -2q0 -8 -9 -20q-9 -14 -9 -18q0 -3 -6 -25q-5 -14 -9 -19t-13 -11q-13 -9 -25 -12q-7 -1 -18 -1q-8 0 -19 1q-25 1 -43 10t-55 38q-37 32 -57 40q-19 8 -36 -1q-22 -11 -41 -47q-6 -13 -9 -16t-10 -3q-11 0 -11 5
q0 4 -6 8q-3 1 -3 5v1q0 4 6 19q10 29 23 45q14 16 52 21q18 3 33 3t28 -3q25 -6 64 -35q51 -36 65 -43q7 0 20 13q12 12 21 27q6 11 17 23q11 13 17 15zM78 664q3 0 25 1h7q6 0 9 -1q3 -2 14 -14q15 -13 50 -67q40 -61 50 -75q17 -24 29 -42q3 -5 16 -24t32 -49
q20 -30 35 -53q59 -89 69 -104q-2 -1 14 -26q18 -28 26 -51q4 -8 12 -23q0 7 -2 29q-2 29 -6 67q-19 159 -6 239q1 36 10 84q4 17 6 43q3 25 3 28q4 19 7 24q3 4 26 6q15 0 16 -5t-4 -40q-5 -30 -3 -60q2 -36 3 -249q1 -218 6 -243q3 -7 3 -24v-10q-2 -10 -4 -18
q-10 -5 -17 -7q-12 -1 -16 1q-4 3 -13 6q-9 8 -17 20q-7 13 -15 31q-14 20 -25 50q-19 36 -56 91q-12 22 -18 34q0 1 -8 13q-7 11 -18 28q-11 19 -23 35q-39 63 -72 119q-34 60 -80 121q-7 9 -21 26q-1 -8 -4 -35q-4 -40 -10 -132q-2 -32 -7 -96q1 -25 6 -99q9 -133 10 -154
t-8 -35q-2 -11 -12 -20q-2 -7 -9 -7h-2q-4 0 -4 3q-2 -5 -20 15l-8 10q-3 5 -5 14q-2 33 -4 100q-5 109 -5 226q2 41 6 122q1 18 6 71q11 67 11 80q0 22 15 26z" />
    <glyph glyph-name="Ograve" unicode="&#xd2;" horiz-adv-x="658" 
d="M281 811q20 4 22 5q2 0 8 -6q7 -8 27 -38t20 -32q0 -3 5 -7q6 -6 5 -21v-7q-9 -6 -23 -6q-11 1 -15 3q-4 3 -13 15q-14 20 -43 47q-30 30 -30 33q0 7 37 14zM324 656q13 2 26 2q68 0 132 -42q120 -77 136 -263q1 -20 1 -38q1 -109 -54 -185q-28 -38 -70 -66t-82 -35
q-19 -4 -63 -4q-45 0 -67 4q-73 11 -129 54t-87 110q-33 71 -34 168q0 70 20 119q19 50 68 94t103 59q67 19 100 23zM383 614q-17 5 -29 6q-7 2 -10 2q-2 0 -3 -1q-2 -1 -2 -6q0 -6 -3 -7q-4 -1 -23 -3q-79 -5 -145 -57q-43 -48 -69 -105q-6 -18 -7 -30q-2 -13 -3 -53
q0 -57 7 -79q21 -61 62 -119q32 -42 69 -60q38 -18 90 -25q14 -2 28 -2q83 0 156 73q45 58 59 123q5 31 5 46q0 16 -5 44q-15 77 -52 154q-45 71 -125 99z" />
    <glyph glyph-name="Oacute" unicode="&#xd3;" horiz-adv-x="653" 
d="M375 813q7 2 28 3q20 -3 21 -12q0 -5 -6 -11l-10 -10q-17 -16 -39 -37q-22 -22 -22 -26q0 -2 -13 -2h-6q-11 2 -12 3q-1 0 -1 2q1 5 9 21q11 21 26 41q12 26 25 28zM336 667q9 1 19 1q66 0 137 -53q39 -28 65 -66q13 -20 20 -28q21 -20 30 -41q10 -20 15 -51
q11 -61 12 -131v-16q0 -58 -8 -92q-4 -18 -7 -35q-4 -20 -24 -48q-21 -28 -48 -50q-29 -22 -69 -39t-73 -20q-46 1 -123 21q-70 22 -109 44q-107 62 -140 189q-12 44 -12 82q0 24 5 46q39 170 126 223q60 37 127 45q22 2 31 9t26 10zM376 611q-8 2 -12 4q-4 1 -7 1
q-1 1 -2 1t-1 -1q-1 -1 -1 -3q0 -3 -16 -3q-46 0 -85 -18q-39 -19 -73 -51q-65 -61 -83 -167q-4 -25 -4 -48q0 -24 4 -46q24 -139 137 -188q50 -26 128 -38h5q36 0 80 13q99 57 122 119q17 43 17 94q0 21 -3 43q-10 76 -48 154q-14 30 -42 58q-55 43 -116 76z" />
    <glyph glyph-name="Ocircumflex" unicode="&#xd4;" horiz-adv-x="666" 
d="M287 814q14 1 16 1q4 1 8 1q12 0 23 -9q12 -11 27 -27q13 -13 35 -30q21 -18 39 -35q16 -16 16 -19v-1q-2 -1 -9 -2q-6 0 -4 -8q1 -5 -1 -6q-1 -1 -14 0q-11 1 -20 6q-9 4 -26 19q-24 19 -35 24q-1 2 -18 16q-6 5 -17 15l-24 -24q-15 -12 -49 -46q-30 -30 -39 -30t-9 7
q0 6 -5 8q-1 0 -2 2q0 3 3 9q4 9 14 26t27 39q43 62 64 64zM312 649q17 4 34 4q71 -1 146 -60q37 -30 74 -94q40 -70 56 -133q7 -31 7 -80t-7 -75q-15 -54 -53 -101q-33 -41 -52 -57t-47 -26q-24 -9 -70 -11h-12q-40 0 -68 7q-64 13 -111 35q-91 45 -140 124q-42 66 -41 136
q0 15 1 29q6 54 30 112t54 96q51 59 149 80q20 4 29 8q7 3 21 6zM409 589q-30 20 -50 23q-1 -1 -2 -1q2 -3 -2 -6q-4 -2 -2 -8q3 -6 2 -6q-2 -1 -52 -3q-41 -2 -56 -7q-15 -4 -43 -23q-43 -28 -70 -62q-27 -33 -37 -65q-6 -26 -6 -82q0 -55 6 -82q10 -42 18 -54
q8 -13 29 -35q92 -91 216 -91q52 0 86 12t63 41q60 61 60 149v9q-3 93 -68 196q-25 40 -43 58t-49 37z" />
    <glyph glyph-name="Otilde" unicode="&#xd5;" horiz-adv-x="715" 
d="M525 783q12 3 18 3q3 0 4 -1q4 -3 6 -17q1 -7 1 -12q0 -4 -1 -6q-1 -6 -11 -22q-11 -20 -18 -34q-3 -6 -23 -15q-14 -8 -22 -9q-7 -2 -34 -2q-33 0 -48 6q-16 5 -58 30q-31 16 -42 26q-12 3 -17 3q-4 -1 -19 -7q-12 -6 -32 -25t-20 -25q0 -2 -12 2q-13 4 -13 11
q0 20 37 51q34 29 66 33q14 1 25 0q10 -2 78 -38q27 -10 34 -14q8 0 33 15t40 30q12 14 28 17zM297 632q22 3 46 3q46 0 95 -13q30 -9 54 -23q70 -43 121 -96t69 -103q6 -16 8 -28q1 -13 2 -47v-13q0 -70 -21 -134q-21 -60 -44 -88q-24 -29 -77 -55q-41 -22 -77 -30
q-36 -9 -85 -9q-46 0 -85 9q-122 27 -192 92q-37 35 -59 85q-21 50 -21 101q0 33 9 95t17 82q13 30 83 101q43 42 100 55q22 5 26 9q4 3 31 7zM382 587q-18 3 -26 3q-5 0 -6 -1q0 -5 -19 -4q-18 2 -29 -4t-17 -3q-11 6 -44 -13q-32 -18 -59 -44q-54 -59 -78 -124
q-4 -24 -4 -55v-18q2 -41 9 -69q20 -76 71 -133q16 -19 49 -35q33 -17 74 -29q18 -4 53 -10q35 -7 46 -7q50 0 111 45q29 21 39 33q11 12 28 54q13 42 18 65q4 23 6 59q1 11 1 20q0 32 -5 53q-7 28 -27 61q-32 52 -88 98q-57 45 -103 58z" />
    <glyph glyph-name="Odieresis" unicode="&#xd6;" horiz-adv-x="669" 
d="M392 778q9 10 20 10t25 -11q7 -6 8 -14v-3q0 -7 -2 -14q-4 -12 -15 -17q-10 -4 -19 -4q-14 0 -24 11q-7 6 -7 12q0 2 2 4q4 8 12 26zM232 777q6 3 22 3t19 -2q4 -2 8 -13q1 -6 1 -12q0 -21 -24 -28q-16 -5 -27 -5q-5 0 -12 8t-7 13t7 20q8 14 13 16zM333 658q18 2 35 2
q18 0 34 -2q62 -6 93 -27q38 -27 69 -69q16 -22 40 -65q24 -42 32 -64q14 -39 14 -89q0 -30 -5 -64q-15 -91 -56 -149q-18 -25 -45 -50q-26 -25 -48 -38q-39 -21 -92 -32q-25 -5 -67 -5q-41 0 -66 5q-88 18 -156 84q-67 67 -91 158q-6 26 -6 75q0 50 6 75q15 57 48 108
q18 25 48 55q29 31 51 45q56 37 162 47zM411 604q-17 9 -45 10q-5 1 -11 1q-96 -1 -165 -53q-48 -37 -72 -70q-25 -34 -40 -96q-4 -17 -5 -60v-11q0 -34 4 -50q13 -53 34 -88t59 -71q36 -35 82 -48q45 -13 89 -13q27 0 63 8q36 9 60 24q45 29 72 75q28 46 35 104q1 10 1 20
q0 102 -69 228q-19 30 -45 54q-26 25 -47 36z" />
    <glyph glyph-name="multiply" unicode="&#xd7;" horiz-adv-x="402" 
d="M43 494q17 6 26 7q4 0 7 -1q1 -1 -2 -3q-4 -3 6 -3q11 0 11 -4q0 -7 45 -57q3 -3 11 -13q8 -9 11 -13q14 -12 19 -18q10 -7 20 -21q2 -3 7 -9q7 8 27 31q41 45 60 61q19 15 37 18q16 3 25 -7q16 -12 2 -17q-8 -2 -8 -6q-3 -6 -56 -65q-14 -21 -43 -62l21 -21t39 -34
q15 -14 44 -49q28 -36 28 -39q0 -4 -11 -8t-20 -3q-14 3 -34 15q-20 13 -67 65q-29 32 -31 33t-24 -17q-23 -29 -26 -32q-10 -12 -13 -16q-4 -4 -33 -41q-24 -29 -27 -36q-3 -6 -28 -8q-8 -1 -14 -1q-21 0 -21 8q0 6 33 59q34 53 86 117q14 16 14 18t-14 24q-14 21 -33 40
q-32 35 -56 65q-23 30 -23 37q0 5 5 6z" />
    <glyph glyph-name="Oslash" unicode="&#xd8;" horiz-adv-x="642" 
d="M327 677q3 1 8 1q10 0 25 -3q57 -5 122 -67l7 -7q17 -16 21 -15t24 17q6 5 9 8q61 52 72 48q12 -5 12 -8q0 -2 -21 -30q-20 -28 -23 -31q-4 -2 -23 -26q-19 -25 -21 -23q5 -4 23 -39q17 -34 25 -58q12 -31 20 -65q7 -25 8 -40q1 -14 1 -60v-66q-2 -7 -10 -29
q-19 -71 -58 -94q-12 -8 -23 -18q-48 -36 -160 -46q-30 -4 -58 1q-45 9 -75 23q-39 20 -64 44q-4 4 -11 10q-1 -2 -7 -8q-10 -14 -26 -41q-30 -45 -42 -59q-12 -13 -22 -16q-9 -3 -15 -3h-6q-7 0 -8 3q-2 2 -2 7q0 9 6 15q7 5 5 8q-1 3 10 22q9 13 29 41q21 27 24 29
q3 3 13 16t10 15t-20 31q-30 46 -45 107q-7 28 -7 89t7 96q6 36 23 70q8 17 34 41q26 25 53 41q38 25 68 36t74 19q10 2 31 6q-1 0 -7 1q-15 2 -29 -1q-13 -3 -14 0l8 4q2 1 5 1q5 0 12 2q3 0 8 1zM363 620q-29 5 -52 5t-40 -5q-62 -18 -100 -59q-37 -42 -61 -110
q-6 -20 -6 -61v-13q0 -40 3 -61q3 -22 14 -59q6 -18 16 -45q10 -26 13 -26q1 0 18 23q20 26 77 97t81 99q50 57 100 107q8 8 22 23l-8 16q-19 36 -45 66q-4 5 -9 3q-5 -3 -23 0zM503 468q-13 26 -14 26q-5 0 -48 -48q-28 -31 -52 -58q-74 -79 -109 -121q-36 -41 -67 -88
q-8 -11 -23 -34q5 -4 19 -17q55 -37 126 -51q11 -2 22 -2q17 0 34 4q28 5 60 22q33 17 49 34q25 35 39 69q9 34 9 74q0 24 -3 50q-8 69 -42 140z" />
    <glyph glyph-name="Ugrave" unicode="&#xd9;" horiz-adv-x="565" 
d="M200 811l14 4q2 1 4 1q8 0 24 -10q14 -7 19 -13q4 -6 16 -27q15 -27 17 -46q8 -8 11 -20v-7q0 -6 -2 -8q-3 -1 -9 -1h-7q-6 1 -14 8q-8 6 -29 28q-34 37 -44 51q-10 13 -10 26q0 9 2 11q1 2 8 3zM476 704q5 0 14 -1q9 -2 10 -3q2 0 2 -1v-3q-2 -4 2 -6q8 -2 13 -139
t-1 -186q-4 -36 -5 -95q-2 -73 12 -158q6 -38 6 -49q0 -9 -2 -10q-1 -2 -10 -2q-8 0 -18 1q-9 1 -13 10q-6 16 -11 33q-7 29 -11 41q-1 4 -3 14q-5 -5 -18 -22q-52 -65 -121 -85q-52 -20 -97 -20q-24 0 -46 6q-23 5 -38 14q-14 9 -33 28q-49 51 -68 180q-8 42 -9 121
q-1 26 -1 50q0 47 2 84q4 51 7 78t7 45q5 17 16 24q11 6 19 6q4 -2 12 -5q-1 -5 -3 -19q-4 -18 0 -80q4 -67 7 -146q9 -228 78 -306q30 -21 55 -24q26 -3 70 15q30 17 63 27q41 52 64 121q6 23 7 45t2 126q1 143 5 170q5 33 8 62q4 33 11 45q3 8 6 11q3 2 10 3z" />
    <glyph glyph-name="Uacute" unicode="&#xda;" horiz-adv-x="544" 
d="M284 796q14 11 31 11h4q17 0 17 -6v-1q0 -2 -2 -4q1 -10 1 -15t-15 -18q-25 -20 -37 -37q-12 -11 -17 -15t-15 -11q-10 -11 -14 -12q-4 0 -12 -3h-14q1 3 2 11q2 14 26 48q25 35 45 52zM37 664q2 0 11 1q8 1 10 1h2h1q1 0 1 -2q1 -2 2 -12q2 -10 3 -23q1 -14 5 -44
q6 -80 8 -92q3 -36 7 -116q7 -129 19 -179q17 -36 41 -75q9 -15 9 -20q-1 -6 10 -9q71 -24 141 14q42 22 71 62q28 41 37 90q4 19 7 180q0 138 3 165q0 14 2 21t6 19q8 6 15 5q6 -1 13 0q14 2 18 0q6 -3 -5 -261q-5 -119 -2 -181t16 -96q5 -13 15 -50q10 -33 13 -42
q3 -7 3 -10q0 -1 -1 -2q-1 -2 -19 -4q-7 -1 -14 -1q-10 0 -19 2q-15 3 -20 22q-9 34 -15 74q-4 35 -8 34q-3 0 -14 -14q-38 -53 -97 -73q-56 -18 -109 -17t-82 19q-13 9 -27 32q-32 49 -46 109q-13 61 -18 184q-8 177 -8 242q0 33 2 37q2 8 13 10z" />
    <glyph glyph-name="Ucircumflex" unicode="&#xdb;" horiz-adv-x="562" 
d="M248 813q6 2 11 2q7 0 14 -5q12 -7 36 -40q10 -13 14 -17q4 -5 11 -18q8 -12 15 -15q5 -3 13 -14q4 -8 4 -12q0 -2 -2 -3q-4 -3 -7 0q-5 -13 -15 -13q-8 0 -16 3q-8 2 -27 30q-29 35 -36 51q-10 -16 -31 -35q-12 -15 -36 -39q-10 -14 -21 -10q0 -2 -1 -2q-2 1 -5 4
q-7 5 -11 8q-5 4 -3 6q2 1 -1 5q-1 1 -1 2q0 6 12 20q16 16 24 28q11 16 32 38q21 23 27 26zM432 654q3 9 29 9h3q3 -1 3 -6q0 -4 7 -4q4 0 5 -6q1 -7 3 -35q2 -38 8 -91q15 -119 16 -165v-47t-5 -44l-3 -27q2 -12 9 -47q12 -71 20 -102q7 -24 7 -43q0 -18 -7 -19
q-7 -3 -14 -3q-12 0 -22 10q-9 10 -15 18q-5 8 -10 28q-8 27 -12 51q-1 8 -4 23q-3 -4 -13 -18q-39 -51 -86 -78q-21 -10 -48 -19q-27 -8 -41 -9q-16 0 -19 -3q-3 -2 -27 2q-22 4 -34 9q-48 18 -92 72q-44 53 -52 104q-12 76 -12 250v26q0 80 1 101q1 20 6 40q5 19 7 23
q2 3 11 4q7 1 18 0q12 -2 13 -14q-2 -36 5 -161q6 -125 11 -173q7 -66 12 -91q5 -24 17 -48q16 -35 30 -46q14 -12 42 -26q15 -7 26 -9q12 -1 28 0q61 25 107 56q28 36 48 68q11 31 17 51q5 20 3 74q-3 64 -5 69t2 122q5 118 7 124z" />
    <glyph glyph-name="Udieresis" unicode="&#xdc;" horiz-adv-x="556" 
d="M170 766q20 14 31 14h1q7 -1 9 -3q1 -2 2 -11v-3q0 -10 -4 -22q-5 -15 -12 -17h-6q-7 0 -21 2q-15 5 -15 12t15 28zM336 776q9 5 20 5q10 0 20 -5q2 -2 2 -7q0 -4 -2 -10q-4 -16 -23 -27q-13 -9 -24 -9q-4 0 -8 1q-6 1 -7 3v2q0 2 1 6q6 28 21 41zM459 649q2 7 12 7h14
q0 -6 2 -23q1 -24 3 -86q1 -45 6 -104q4 -58 7 -65q2 -4 5 -99q1 -70 5 -98q3 -28 14 -87q6 -37 6 -47q0 -8 -2 -10t-11 -5q-15 -6 -27 -6q-5 0 -9 1q-11 2 -13 4t-4 10q-2 16 -12 64q-10 47 -10 48q-1 0 -4 -4q-3 -5 -7 -13q-9 -16 -24 -31q-14 -15 -30 -26
q-86 -63 -199 -40q-34 6 -47 14t-25 32q-31 57 -45 126q-4 23 -9 79q-5 55 -5 87q0 35 -3 72q-7 89 -7 132q0 27 3 35q4 17 4 22q0 6 13 12q14 5 22 6q6 0 8 -6q3 -5 1 -11q-7 -27 5 -204q1 -11 8 -104q12 -113 35 -193q10 -19 17 -28t20 -16q62 -31 137 6q37 19 63 46
q44 50 59 86q7 30 8 70t-1 155q-3 152 -1 168q2 12 4 15q1 3 6 3q7 0 8 6z" />
    <glyph glyph-name="Yacute" unicode="&#xdd;" horiz-adv-x="532" 
d="M321 809q15 3 25 3h4q5 0 8 -2q4 -3 4 -7q-6 -17 -47 -53q-37 -43 -53 -50q-7 -4 -20 -8h-9h-2q-2 0 -2 4q0 6 9 20q27 43 51 70q10 13 16 17t16 6zM496 667q8 2 15 2h4q9 -1 9 -5q0 -5 -6 -5q-7 0 -40 -62q-19 -37 -76 -119q-23 -34 -57 -88q-29 -46 -41 -66
q-3 -11 -6 -18q-3 -6 -4 -17q-1 -14 -1 -44v-61q-3 -15 2 -73q4 -67 4 -87v-27q-2 -1 -10 -3q-11 -1 -25 -1h-9q-4 0 -12 1q0 8 -2 34q-3 31 -2 154v20q1 84 -1 103t-24 48q-4 6 -7 9q-79 111 -104 150q-33 49 -45 76q-16 30 -25 44q-9 12 -9 15q0 1 5 2q6 1 13 0q8 0 14 -2
q7 -2 9 0q2 3 13 -10t45 -62q69 -99 82 -114q8 -8 28 -32t27 -34q3 -4 8 -12l20 24q19 22 38 47q15 19 30 40q12 15 29 38q24 32 41 59q33 50 46 62q14 12 24 14z" />
    <glyph glyph-name="Thorn" unicode="&#xde;" horiz-adv-x="551" 
d="M60 664h8q11 0 16 -2q7 -12 7 -71q0 -27 1 -80q2 0 8 2q60 13 111 18q107 10 191 -25t109 -88q6 -14 6 -33q0 -14 -3 -31q-20 -89 -73 -125q-35 -29 -95 -47q-18 -5 -52 -11q-35 -5 -54 -5q-18 0 -74 -6q-48 -7 -63 -7h-12v-29q0 -35 4 -54q3 -17 -2 -27q-2 -5 -5 -8
q-2 -2 -3 -1q-3 2 -3 -1q-2 -5 -8 -5t-15 4l-6 6q-12 13 -15 52q-1 11 -1 27q0 38 5 102q5 79 5 253q0 179 2 184q2 6 11 8zM299 474q-30 5 -67 5q-16 0 -34 -1q-57 -4 -89 -14q-4 -1 -14 -4q0 -14 -1 -55q3 -101 0 -169q-1 -9 -2 -28h74q89 1 139 8q50 8 78 27
q45 21 68 100q7 31 7 40v0q-1 9 -6 17q-38 59 -153 74z" />
    <glyph glyph-name="germandbls" unicode="&#xdf;" horiz-adv-x="523" 
d="M214 702q28 5 51 5q45 0 72 -17q22 -12 34 -30q13 -18 18 -51q5 -40 -7 -66t-55 -84q-36 -48 -44 -73q-8 -24 -1 -41q13 -28 83 -67q45 -25 49 -36q35 -23 50 -48q18 -30 18 -67q0 -13 -2 -27q-9 -54 -42 -80q-29 -21 -73 -25q-5 -1 -11 -1q-19 0 -44 6q-33 7 -62 22
q-32 14 -29 18q1 2 4 2q5 0 -1 3t1 3q5 0 4 3q0 4 -5 12q-3 9 1 11q6 3 12 1q7 -2 10 -9q4 -12 14 -19q10 -6 23 -10q50 -16 77 -10q26 7 44 20q18 12 21 25q4 11 4 41q0 47 -24 75t-81 60q-61 26 -88 58q-26 35 -28 65q-1 12 0 17q2 6 9 16q8 19 66 80q27 31 37 63
q5 18 7 41q1 23 -2 35q-3 9 -18 19t-31 15q-17 5 -37 -1q-58 -15 -93 -58t-48 -102q-8 -41 3 -172q4 -54 2 -123q-2 -47 -7 -102q-5 -54 -5 -74v-22h-22q-8 0 -10 2q-2 1 -3 8q-5 9 -7 146q-1 135 -5 165q-4 32 -4 111t4 96q19 75 63 118q22 24 46 36q25 11 62 17z" />
    <glyph glyph-name="agrave" unicode="&#xe0;" horiz-adv-x="520" 
d="M218 678l4 2q4 1 7 1q5 0 8 -3q6 -5 30 -36q6 -8 11 -12q20 -25 31 -42q12 -19 22 -31q10 -14 10 -17t-11 -8q-12 -4 -19 -4q-5 0 -7 7t-58 63q-61 50 -60 58q-4 2 -4 4q0 3 3 6q4 1 10 3q9 4 11 5q3 2 12 4zM222 446q23 4 51 4h15q61 -1 89 -25q9 -6 13 -7t19 1
q20 3 23 0t2 -60t-4 -91q-3 -24 -2 -37t7 -49q7 -41 14 -60t34 -79q9 -16 9 -21q0 -12 -24 -16q-24 -5 -42 3q-9 4 -13 8q-3 5 -7 20q-18 56 -24 56q-2 0 -10 -13q-20 -30 -38 -44t-47 -25q-26 -8 -54 -12q-9 -1 -19 -1q-20 0 -43 4q-56 11 -86 33q-17 11 -31 39
q-23 46 -23 109q0 76 30 140q30 63 81 96q31 19 80 27zM299 407q-13 4 -28 4q-23 0 -51 -10q-44 -17 -83 -54q-27 -27 -40 -74q-12 -38 -12 -82q0 -9 1 -19q2 -36 9 -44q8 -9 24 -25q24 -23 58 -36q25 -9 46 -9q8 0 15 1q37 4 73 29q15 10 26 30q17 33 21 60t10 78
q2 25 2 44v9q-1 23 -2 39q-1 15 -4 15q-4 0 -17 15q-20 20 -48 29z" />
    <glyph glyph-name="aacute" unicode="&#xe1;" horiz-adv-x="521" 
d="M328 653q9 6 14 6q4 0 5 -3q5 -7 10 -6q4 2 4 0v-2q-2 -7 -20 -27q-21 -24 -46 -50q-13 -20 -20 -27q-6 -6 -12 -7q-4 -1 -7 -1t-5 1q-1 0 -1 3q0 2 2 8q4 15 33 56t43 49zM243 468q7 1 14 1q28 0 65 -16q46 -21 61 -36q3 -3 9 -8q2 1 6 7q5 7 20 8h14v-21q-1 -21 -8 -75
q-17 -116 -2 -166q16 -53 45 -83q17 -20 19 -30t6 -12q3 -2 3 -4q0 -3 -9 -5q-4 -1 -8 -1q-22 0 -49 24q-21 19 -32 34q-10 15 -17 40q-2 6 -5 19q-5 -5 -21 -22q-67 -76 -158 -82q-51 -4 -106 29q-34 20 -49 42t-22 61q-3 19 -3 36q0 49 25 91q18 32 44 67t60 56
q22 17 41 25q28 20 57 21zM309 407q-15 4 -38 4h-18q-35 -3 -56 -14q-26 -14 -60 -50q-34 -35 -47 -63q-19 -42 -19 -84q0 -23 1 -31q2 -7 9 -23q14 -28 41 -40q28 -13 59 -20q6 -1 12 -1q13 0 31 5q26 8 40 15q14 8 31 25q56 58 69 111q3 33 7 41q3 10 5 30v13v9
q-1 6 -9 21q-9 20 -27 34t-31 18z" />
    <glyph glyph-name="acircumflex" unicode="&#xe2;" horiz-adv-x="508" 
d="M197 639q9 7 24 7q12 0 23 -10t36 -45q24 -31 40 -45q19 -18 19 -27q0 -3 -3 -5q-25 -7 -45 5q-20 13 -44 46q-22 29 -25 27t-21 -32t-34 -41q-17 -11 -17 -17q0 -3 -3 -5q-3 -1 -13 -1q-16 0 -18 5q-3 5 -6 4q-11 -1 -11 4q0 3 29 35q28 38 44 62q16 26 25 33zM221 417
q17 4 34 4q14 0 28 -3q30 -6 51 -20q5 -4 8 -5q4 -2 6 -2t3 2v4q0 10 5 13q4 4 14 5q5 0 14 2v-18q0 -18 10 -74q10 -52 18 -101q20 -121 54 -163q9 -11 9 -16v-1q-1 -4 -16 -8q-16 -4 -19 -1q-3 4 -10 4q-27 0 -41 47q-7 25 -15 47q-8 27 -9 34q-2 8 -5 0q-2 -6 -6 -25
q-14 -50 -30 -68q-16 -19 -51 -32q-31 -12 -58 -15q-6 -1 -13 -1q-24 0 -57 8q-32 8 -51 18q-16 17 -25 28q-9 12 -16 25q-5 12 -13 26q-7 13 -8 21q-1 7 -1 33v1q0 69 30 131q5 12 26 32q13 14 26 23q13 8 40 22q45 24 68 23zM282 374q-16 7 -35 7q-27 0 -58 -14
q-53 -23 -87 -72q-9 -14 -13 -26q-3 -12 -9 -50q-3 -22 -3 -35q0 -4 1 -8q1 -13 15 -40q14 -23 51 -48q29 -14 45 -17q6 -1 12 -1q11 0 21 3q35 9 59 36q29 29 41 65t15 97q1 19 1 29v7q-1 7 -7 18q-17 28 -49 49z" />
    <glyph glyph-name="atilde" unicode="&#xe3;" horiz-adv-x="498" 
d="M190 633q15 4 29 3h6q22 0 62 -25q12 -9 22 -11q9 -2 26 1q17 4 30 15q8 9 22 14t19 1q1 -1 1 -3q0 -4 -4 -13q-5 -14 -11 -24q-31 -48 -78 -41q-23 0 -37 5t-27 16q-25 22 -40 22q-9 -3 -33 -19q-25 -16 -42 -31t-26 -15q-11 0 -11 19v2q0 8 4 10q3 2 17 19q36 45 71 55
zM247 438q12 2 25 2q44 0 83 -21q31 -16 46 -18q11 -1 14 -3t5 -7q3 -14 6 -112q1 -49 14 -127q14 -79 23 -99q6 -13 6 -15q0 -4 -8 -14q-8 -11 -11 -12q-11 -5 -32 5q-6 3 -20 9q-2 7 -8 26q-8 25 -9 38q0 11 -2 17q-3 6 -10 -4q-1 -1 -2 -3q-10 -14 -34 -36t-42 -33
q-44 -29 -95 -28q-25 0 -51 6q-73 20 -103 81q-13 29 -18 48q-5 20 -5 52q0 35 6 57q5 21 21 54q9 20 18 31t30 34q22 20 33 29q11 8 29 17q43 21 91 26zM284 385q-23 1 -41 1q-45 0 -63 -9q-53 -35 -80 -91q-21 -43 -21 -88q0 -13 2 -27q10 -63 39 -91q25 -24 62 -24h9
q27 4 63 28q35 24 55 55q27 38 34 71q6 33 14 112q0 11 2 33l-12 12q-23 11 -63 18z" />
    <glyph glyph-name="adieresis" unicode="&#xe4;" horiz-adv-x="471" 
d="M299 655h9q19 0 26 -14q4 -6 4 -12q0 -12 -13 -24q-14 -8 -24 -8q-2 0 -5 1q-16 3 -21 7q-5 5 -5 15q0 22 29 35zM152 649q3 0 6 1h5l2 1h2q6 0 9 -6q2 -3 2 -6t-4 -5q-3 -10 -3 -17q0 -6 -3 -15q-4 -9 -6 -9q-2 -1 -21 -2q-5 -1 -10 -1q-6 0 -11 2q-12 6 -12 20t12 24
q15 9 32 13zM218 452q15 2 30 2q21 0 41 -3q35 -7 50 -20q11 -11 22 -15q1 0 6 -2t5 -17q0 -28 12 -116q13 -88 22 -124q7 -25 11 -34q4 -8 15 -24q9 -12 11 -17q2 -4 2 -10q0 -3 -1 -6q-1 -12 -2 -15q-2 -3 -9 -5q-11 -4 -23 -2q-11 2 -26 15q-39 27 -37 77q-1 7 -2 23
q-2 -5 -7 -21q-23 -72 -63 -85q-37 -19 -84 -23h-6q-18 0 -42 4q-27 6 -47 15q-35 19 -51 51q-7 17 -12 56q-3 23 -3 41q0 12 2 22q7 52 36 108q30 57 76 94q29 25 74 31zM260 401q-13 4 -27 5q-13 0 -27 -5q-16 -5 -37 -26q-31 -40 -52 -75q-19 -40 -27 -84q-2 -7 -2 -17
q0 -16 4 -40q6 -43 15 -54q10 -11 39 -21q18 -6 35 -6q39 0 73 35q33 32 50 91q18 59 23 137q0 7 1 22q-5 3 -18 10q-24 24 -50 28z" />
    <glyph glyph-name="aring" unicode="&#xe5;" horiz-adv-x="462" 
d="M204 669q16 4 37 4q20 0 30 -5q14 -4 23 -23q11 -14 11 -37q0 -16 -4 -23q-4 -8 -15 -20q-14 -15 -13 -16q2 -1 2 -7t-14 -9q-8 -2 -17 -2q-8 0 -16 1q-13 2 -31 10q-19 8 -27 16q-13 12 -14 35v4q0 20 8 37q12 27 40 35zM256 626q-11 12 -23 12q-11 0 -25 -14
q-10 -8 -16 -19q0 -6 5 -17q5 -9 17 -18q12 -8 24 -9q2 -1 3 -1q4 1 6 2q3 3 8 13q8 16 9 30v1q0 12 -8 20zM237 450q21 3 38 3t29 -3q33 -11 46 -28q5 -6 9 -7q3 -1 14 1q15 2 19 1q10 -3 1 -23q-7 -19 -11 -135q-3 -80 20 -138q4 -15 7 -23q4 -8 5 -14q2 -9 2 -15
q0 -3 -1 -5q-3 -5 -1 -13q1 -9 -3 -9q-9 -6 -30 6q-20 10 -26 17t-14 43q-2 9 -7 29q-3 -5 -9 -18q-14 -27 -36 -49q-23 -22 -44 -32q-45 -24 -88 -24q-6 0 -12 1q-49 3 -79 34q-14 14 -26 38q-12 23 -13 39q-1 4 -1 9q0 21 6 59q8 48 17 76q25 72 76 120q50 48 112 60z
M275 403q-14 7 -25 7q-5 0 -10 -1q-15 -4 -38 -15q-24 -13 -47 -35q-23 -23 -39 -57q-20 -48 -28 -101q-3 -22 -3 -40q0 -23 6 -37q22 -50 65 -58l14 -2q14 0 31 5q26 8 39 21q36 34 57 99t28 150q1 7 2 22q-4 5 -18 19q-20 17 -34 23z" />
    <glyph glyph-name="ae" unicode="&#xe6;" horiz-adv-x="819" 
d="M247 505q22 4 40 4q25 0 41 -8q23 -11 42 -35q18 -25 22 -49q1 -5 2 -14q3 4 12 15q13 15 34 31t38 23q21 8 53 11t58 0q18 -3 45 -14t46 -25q17 -12 47 -49t43 -62q15 -28 12 -38q-2 -10 -23 -16q-22 -8 -68 -9q-202 -15 -235 -21q-22 -5 -28 -4h-13q-2 0 -9 -1v-26
q0 -25 7 -44q25 -62 70 -91q44 -29 89 -18q35 10 75 37q24 19 37 37t25 44q9 23 13 29t12 10q11 5 30 6q18 1 24 -4q1 -1 1 -3q-1 -12 -19 -55q-29 -66 -95 -111q-26 -16 -50 -25q-24 -10 -59 -12q-49 -1 -81 12q-31 13 -59 40q-6 5 -17 16q0 -4 2 -14q1 -5 3 -20
q2 -14 2 -17q1 -8 3 -23q-3 -3 -12 -13q-9 -11 -14 -11q-2 0 -3 1q-5 4 -21 10q-12 5 -14 8q-3 3 -6 16q-3 15 -6 47q-2 34 -5 37t-22 -14q-40 -33 -91 -58q-63 -32 -119 -39q-15 -2 -34 2q-19 5 -26 11q-15 14 -15 48q0 15 3 34q10 62 41 104q30 41 73 73q43 33 74 40
q75 22 116 6q4 -1 4 5q1 6 0 45q-5 68 -22 87q-8 8 -14 10t-28 1q-40 0 -68 -10q-83 -29 -109 -80q-9 -16 -16 -20q-8 -4 -20 2q-23 11 -13 31q5 10 25 30t36 31q28 20 67 37q38 18 67 22zM590 443q-11 6 -28 6q-9 0 -19 -2q-31 -5 -55 -22q-34 -23 -60 -59q-25 -36 -25 -68
v-18q9 1 36 6q36 6 100 10q64 5 88 10q26 5 47 7q8 1 23 2q-4 8 -17 29q-52 78 -90 99zM293 274q-9 4 -20 4q-8 0 -16 -2q-46 -11 -86 -44q-39 -32 -62 -76q-13 -26 -13 -46q0 -14 6 -25t22 -21q16 -11 29 -11q16 0 82 35q27 14 65 42q37 28 39 36q2 7 3 37q-3 19 -11 34
q-14 28 -38 37z" />
    <glyph glyph-name="ccedilla" unicode="&#xe7;" horiz-adv-x="490" 
d="M216 426q17 2 38 2q14 0 29 -1q39 -2 63 -8q69 -20 69 -48q0 -9 -12 -12q-24 -7 -29 9q-5 15 -48 26q-42 10 -81 6q-44 -5 -81 -26q-37 -22 -60 -55q-17 -26 -28 -65t-11 -75q0 -31 8 -48q23 -49 89 -58q17 -2 24 -2q8 1 25 7q23 8 75 34q51 26 60 35q22 19 80 22
q34 2 37 -3q2 -4 2 -7v-1q-1 -3 -9 -12q-7 -7 -28 -21q-21 -13 -26 -13q-2 0 -44 -22q-42 -21 -52 -28q-14 -9 -35 -28l-21 -21q5 2 20 5q22 5 52 6q27 0 34 -4q8 -4 8 -18q0 -10 -4 -15t-23 -20q-27 -21 -32 -30q-4 -7 -3 -9q0 -3 6 -9q9 -9 20 -17q16 -14 3 -32t-62 -52
q-47 -29 -63 -29h-2q0 3 -10 3t-10 4q0 5 12 17q11 12 27 22q20 13 34 27q13 13 13 19q0 5 -14 19q-23 21 -8 41q31 39 23 39q-7 -3 -31 -5q-49 -3 -50 13q-3 34 16 55q4 4 3 5l-7 -2q-13 -4 -50 -2q-37 1 -52 5q-76 22 -90 107q-3 15 -3 32q0 16 3 34q9 65 39 107
q29 43 81 69q42 22 86 28z" />
    <glyph glyph-name="egrave" unicode="&#xe8;" horiz-adv-x="487" 
d="M180 673h14q12 0 22 -2q5 -2 29 -51q22 -43 22 -51l-1 -1t-13 -1t-48 37q-38 39 -38 56q0 9 9 12q2 1 4 1zM229 464q14 2 32 2q11 0 24 -1q33 -2 46 -6q34 -12 63 -43q30 -32 49 -76q12 -30 8 -49t-28 -27q-16 -7 -31 -7q-13 0 -35 -5q-45 -9 -112 -16q-67 -8 -105 -8
q-26 0 -42 -3q-5 -2 -16 -4q0 -4 2 -14q3 -14 11 -38q23 -71 74 -101q51 -31 110 -13q32 9 68 32q36 22 61 49q26 32 27 43q0 5 16 6q8 0 11 -1q3 -2 3 -8q0 -31 -25 -70q-26 -39 -63 -60q-41 -25 -101 -31q-18 -2 -36 -2q-41 1 -79 11q-31 7 -46 14t-31 22q-49 46 -62 127
q-4 24 -4 46q0 52 22 93q34 58 85 95q24 16 53 29q29 12 51 14zM291 418q-20 4 -39 4q-11 0 -22 -1q-46 -10 -74 -32q-28 -21 -50 -64q-19 -41 -19 -54q0 -3 1 -5h4q16 0 102 12q24 4 74 11q33 5 66 9t46 6q1 0 1 1q0 4 -6 16q-7 15 -17 29q-14 20 -19 28q-9 13 -21 24
q-11 11 -27 16z" />
    <glyph glyph-name="eacute" unicode="&#xe9;" horiz-adv-x="519" 
d="M291 662q14 4 30 4h17q-3 -6 -12 -22q-11 -22 -44 -55q-30 -31 -38 -38t-12 -7q-11 0 -13 9q-1 2 -1 5q0 8 7 17q6 9 8 17q3 11 17 34q13 23 18 27q6 4 23 9zM236 479q20 4 44 4q10 0 19 -1q36 -1 56 -13q23 -10 62 -62q38 -52 53 -90q11 -35 1 -48q-5 -6 -19 -8
q-15 -1 -71 -2q-72 -10 -124 -11q-65 -7 -102 -9q-51 -4 -59 -6q-7 -2 -7 -12q0 -23 10 -51q10 -29 27 -55q21 -30 44 -41q24 -11 55 -18q15 -4 22 -3q7 0 23 3q43 11 86 41q26 23 60 66q10 16 18 21q9 6 26 7q25 1 33 -5q3 -2 3 -7q0 -6 -6 -17q-17 -30 -47 -63t-55 -50
q-63 -40 -133 -45h-10q-37 0 -72 13q-41 15 -70 45q-59 58 -75 137q-3 18 -3 26t4 29q7 42 25 86q18 45 36 70q19 26 47 42q29 16 99 27zM312 423q-14 9 -37 9q-7 0 -16 -1q-57 -8 -108 -37q-18 -12 -27 -35t-25 -77v-3q0 -2 1 -3q0 -1 4 -1q3 0 8 1q22 3 50 7q39 5 90 9
q113 15 136 12q25 3 26 4t1 2q-1 4 -9 18q-11 18 -21 31q-15 16 -39 37q-23 20 -34 27z" />
    <glyph glyph-name="ecircumflex" unicode="&#xea;" horiz-adv-x="493" 
d="M212 692q2 0 5 1h6l2 1q3 0 18 -15q16 -15 43 -48q25 -30 41 -47q12 -13 12 -17t-7 -7q-6 -3 -14 -3t-29 15t-41 42q-17 25 -23 30q-5 4 -11 -3q-7 -6 -18 -27q-10 -20 -17 -30q-6 -3 -9 -13q0 -8 -9 -10t-13 -6q-4 2 -6 -1q-1 -3 -11 -3t-12 3v2q0 2 3 5q16 13 42 66
q19 37 29 50q9 14 19 15zM211 480q12 2 24 2q70 0 117 -47q21 -21 34 -46q12 -24 31 -56q17 -36 16 -44q-1 -10 -28 -16q-26 -5 -130 -19q-61 -13 -82 -11q-28 -4 -65 -7q-45 -3 -47 -5q-6 -3 -3 -28q2 -26 15 -52q11 -24 33 -45q21 -20 41 -31q34 -15 71 -8q36 7 85 39
q24 22 53 70q13 26 22 32q8 6 45 6q21 0 24 -4v-1q0 -5 -13 -23q-3 -4 -18 -25t-23 -32q-28 -41 -52 -61q-25 -21 -52 -29q-54 -16 -87 -16q-53 0 -94 23q-22 11 -55 47q-34 35 -44 57q-13 26 -13 66q0 22 4 49q11 74 47 127q27 39 72 64q38 20 72 24zM251 433q-14 6 -20 6
q-1 1 -2 1q-7 0 -21 -3q-43 -10 -70 -40q-28 -30 -45 -87q-7 -20 -7 -31q0 -5 2 -8q17 7 131 19q114 21 134 22v1q0 4 -13 29q-16 29 -28 48q-14 21 -30 29q-15 7 -31 14z" />
    <glyph glyph-name="edieresis" unicode="&#xeb;" horiz-adv-x="512" 
d="M166 651q7 5 20 5q3 1 5 1q16 -1 21 -9q8 -14 8 -19q0 -3 -2 -4q-3 0 -7 -10q-5 -12 -24 -15q-5 -1 -9 -1q-13 0 -19 9q-4 5 -4 12q0 3 1 7q3 12 10 24zM323 653q9 2 17 2q17 0 33 -8q9 -8 9 -18v0q1 -9 -6 -19q-6 -8 -10 -10q-5 -1 -21 -1q-5 -1 -9 -1q-24 0 -25 6
q-2 6 -5 11q-2 3 -2 11v6q1 12 5 15t14 6zM256 488q10 1 20 1q70 0 117 -55q35 -35 50 -60q11 -17 21 -47t10 -39q0 -5 -2 -6q-1 -2 -7 -2q-8 0 -23 -5q-15 -6 -70 -5q-67 1 -109 -11q-43 -12 -131 -40q-15 -4 -44 -14v-10q0 -26 34 -57q35 -31 74 -48q40 -17 77 -10
q24 4 36 9t29 15t34 27q19 21 43 49q23 28 23 31q0 6 13 10q14 4 22 4q9 0 11 -5v-1q0 -6 -7 -22q-9 -19 -21 -36q-14 -20 -50 -57q-37 -37 -49 -43q-42 -21 -95 -25h-19q-41 0 -74 12q-38 13 -63 29q-24 16 -50 42q-26 27 -34 56q-5 16 -5 38q0 17 2 37q5 29 10 44
q5 16 18 45q14 32 44 63q22 21 33 33q11 11 42 26q49 27 90 27zM303 422q-22 12 -51 13h-12q-15 0 -23 -2q-11 -3 -33 -18q-77 -41 -101 -139q-3 -11 -3 -16q0 -2 1 -2q0 -1 1 -1t2 1q76 35 189 42q36 5 63 10q15 2 36 5q12 1 15 3q3 1 3 2v2q-3 4 -10 23q-22 56 -77 77z
" />
    <glyph glyph-name="igrave" unicode="&#xec;" horiz-adv-x="169" 
d="M22 665q7 1 15 1q7 0 15 -1q15 -2 19 -4q3 -2 10 -25q0 -1 39 -79q1 -3 1 -5v-1l-1 -1q-2 0 -5 1q-4 1 -7 2q-6 3 -8 5q-1 1 -9 5q-14 6 -47 43q-33 35 -33 42v0q2 6 2 8q0 8 9 9zM79 481q6 6 16 6q4 0 10 -1q17 -4 18 -7l-1 -82q-2 -85 1 -135q3 -68 3 -117
q0 -57 -4 -89q-3 -28 -10 -34q-6 -6 -6 -10q0 -2 -9 -2h-4q-12 0 -22 23q-7 14 -9 24q-1 10 -3 36v14q0 34 4 96q5 76 12 125q5 45 2 80q-6 60 2 73z" />
    <glyph glyph-name="iacute" unicode="&#xed;" horiz-adv-x="190" 
d="M123 659q7 4 21 4t22 -4q2 -1 7 -3q-3 -5 -12 -19q-19 -20 -42 -51q-10 -13 -16 -21q-3 -7 -17 -18q-12 -20 -20 -25q-6 -5 -12 -5h-2q-6 2 -7 10q0 4 3 4q4 0 38 72q24 50 37 56zM81 479q5 1 11 1q7 0 14 -1q3 1 8 1q0 -38 1 -154v-76q0 -144 -3 -187q-4 -52 -14 -61
q-2 -2 -5 -3q-4 0 -9 3q-13 6 -16 9q-1 2 -6 45q-5 44 -6 46q-4 5 -6 80v59q0 36 1 61q8 168 30 177z" />
    <glyph glyph-name="icircumflex" unicode="&#xee;" horiz-adv-x="222" 
d="M87 660q7 3 15 3h8q9 -1 20 -10q12 -10 51 -50q55 -54 55 -67v-1q-2 -11 -18 -11h-4q-21 1 -30 15q-5 8 -8 12q-4 -1 -29 27q-20 20 -29 33l-5 5q-5 4 -7 6q-5 -6 -17 -18q-19 -13 -34 -33q-14 -14 -26 -24q-11 -12 -9 -16q2 -3 -2 -4q-12 -4 -17 11q-2 2 -2 6q0 8 8 21
q10 19 30 41q22 24 32 38q11 15 18 16zM84 462q12 19 22 19q5 0 10 -2t4 -6q-2 -8 2 -10q6 -1 9 -56q3 -53 6 -142q5 -61 8 -158q1 -38 1 -61q0 -38 -3 -41q-1 -1 -10 -3q-2 -1 -5 -1q-4 0 -11 3q-11 3 -18 14q-11 14 -12 24q-11 64 -13 99t-2 126q1 167 12 195z" />
    <glyph glyph-name="idieresis" unicode="&#xef;" horiz-adv-x="195" 
d="M-7 644q12 9 22 9t18 -9q7 -7 8 -13v0q0 -6 -6 -16q-6 -9 -21 -15q-8 -4 -15 -4q-5 0 -8 2q-9 4 -9 20t11 26zM164 651q6 2 12 2q24 0 31 -21q0 -16 -15 -28q-16 -12 -32 -12q-11 0 -15 7q-4 6 -4 16q0 3 1 6q-2 26 22 30zM66 468q10 3 20 3h10q10 0 11 -7q3 -13 9 -188
q2 -92 7 -128q6 -38 6 -81v-7q0 -37 -5 -40q-5 -5 -22 -5q-18 0 -23 6q-13 13 -16 50q-2 37 -2 197q1 197 5 200z" />
    <glyph glyph-name="eth" unicode="&#xf0;" horiz-adv-x="503" 
d="M164 667q9 1 17 1q9 0 15 -2q12 -2 30 -12q25 -10 43 -24l18 -18q9 3 36 14q29 12 56 17t30 1q2 -2 3 -9q1 -3 -6 -7q-8 -4 -34 -14q-26 -13 -43 -20q-5 -3 -15 -7q4 -5 17 -18q28 -33 46 -64q9 -19 24 -47q31 -47 43 -79q24 -62 24 -144q0 -22 -2 -47q-9 -116 -43 -151
q-28 -31 -76 -43q-29 -8 -64 -8h-4q-32 0 -61 6q-23 6 -57 28t-58 43q-37 37 -62 85q-14 30 -18 52q-1 8 -1 17q0 15 4 33q13 72 58 130q45 59 104 78q34 11 73 12t64 -7q3 -2 6 -3t4 -1h2l-20 36q-14 25 -28 47q-14 21 -20 23q-16 -2 -44 -18q-29 -16 -39 -26q-7 -7 -22 -4
q-8 2 -8 5q0 2 -8 2q-6 0 3 7q1 1 2 4q21 27 68 46q25 10 26 11q2 1 -2 5t-12 9q-7 6 -16 12q-10 9 -20 16q-6 5 -27 15q-20 11 -20 14t14 4zM306 419q-21 11 -41 11h-3q-21 -1 -48 -16q-56 -30 -92 -97q-25 -46 -25 -87q0 -18 5 -35q7 -27 29 -59q22 -31 46 -49
q14 -11 48 -29q33 -16 50 -16h2q25 0 50 8t37 19q18 16 28 65t11 119q-11 82 -23 104q-13 17 -35 35q-22 19 -39 27z" />
    <glyph glyph-name="ntilde" unicode="&#xf1;" horiz-adv-x="486" 
d="M402 670q5 5 17 5h11q-1 -4 -3 -17q-3 -27 -33 -56q-30 -28 -57 -28q-14 0 -55 12t-63 24q-21 11 -33 7q-12 -3 -40 -29q-30 -27 -33 -27q-1 -7 -9 -8h-1q-6 1 -9 6q-1 3 -1 6q0 11 12 30q12 16 34 34q23 17 39 22q14 4 32 7q17 2 25 -2q11 -5 31 -19q39 -12 62 -17
q21 5 74 50zM276 499q23 4 39 4q20 0 32 -6q37 -12 54 -57q10 -26 12 -54q2 -27 -1 -100q-6 -123 4 -161q5 -16 20 -62q20 -38 20 -43v-1q-5 -4 -17 -6q-7 -2 -12 -2t-9 1q-9 1 -14 6q-4 6 -16 33q-22 29 -30 57q-8 26 -17 67t-9 55t11 67q9 54 8 90q-1 32 -6 35
q-4 2 -20 13q-24 18 -58 14q-47 -15 -83 -60q-37 -44 -63 -120q-12 -35 -14 -53t1 -58q4 -38 1 -66q-3 -21 -5 -45q-2 -18 -10 -23q-10 -4 -23 -4q-1 4 -8 4t-8 7q-1 8 -1 73q-1 197 -9 316v5q-2 25 -2 38q0 11 1 14q3 7 18 7h2h13q4 -4 16 -19q10 -45 10 -87v-20q3 4 10 16
q18 27 45 51q27 25 48 39q37 26 70 35z" />
    <glyph glyph-name="ograve" unicode="&#xf2;" horiz-adv-x="488" 
d="M155 670q5 3 20 5h6q13 0 28 -6q15 -3 28 -37q16 -33 25 -48t9 -23q0 -7 4 -9q2 -1 3 -3q0 -2 -8 -4q-4 -1 -7 -1q-14 1 -43 46q-27 39 -58 67q-3 3 -5 6t-3 4q0 2 1 3zM290 507h1q3 0 9 -4q13 -4 41 -19q43 -22 78 -73t42 -95q2 -16 2 -38v-25q-2 -39 -9 -62
q-14 -52 -46 -96q-31 -45 -69 -65q-54 -28 -117 -28q-120 0 -168 106q-16 32 -22 59q-5 27 -5 70q0 69 21 122q11 30 42 66q30 36 56 49q37 19 105 18q41 1 41 6q0 1 -1 3q-3 4 -1 6zM272 456q-17 5 -24 6h-2q-7 0 -24 -4q-18 -4 -40 -13q-21 -8 -32 -17q-14 -12 -29 -36
t-26 -51q-14 -36 -14 -89q0 -52 14 -88q12 -31 24 -49t32 -33q37 -28 67 -32q6 -1 13 -1q25 0 54 14q62 36 94 100q19 50 20 100q0 72 -41 143q-15 29 -20 30q-4 0 -19 1q-17 1 -22 4q-6 4 -25 15z" />
    <glyph glyph-name="oacute" unicode="&#xf3;" horiz-adv-x="491" 
d="M296 668q10 2 20 2h3q13 0 17 -4q1 -3 1 -5q0 -10 -16 -24q-21 -22 -37 -39q-17 -23 -21 -23q-5 0 -7 -4q-1 -4 -8 -6q-4 -1 -7 -1q-4 0 -9 1q-2 1 -8 3q2 4 7 16q4 15 11 23q19 22 32 48q5 10 22 13zM212 486q21 6 54 9h8q11 0 17 -2q7 -3 18 -7q12 -7 19 -10t15 -7
q35 -17 51 -33q17 -16 36 -47q24 -34 30 -55q7 -22 7 -64q0 -68 -21 -128q-20 -60 -56 -97q-27 -28 -57 -42t-78 -14h-8q-38 0 -64 11q-28 11 -59 32q-37 23 -63 65q-25 42 -33 91q-3 16 -3 35q0 23 4 51q6 51 19 82q7 18 19 36q11 19 16 22q6 4 6 6q0 5 19 20q20 16 36 22
q31 20 68 24zM303 447q-16 7 -35 10q-8 2 -13 2q-6 0 -8 -2q-2 -4 -9 -4t-28 -8q-24 -11 -22 -6q0 2 5 7q5 4 3 3q-3 -1 -20 -9q-22 -14 -51 -49q-14 -24 -30 -60t-19 -55q-4 -19 -4 -40q0 -34 12 -69q18 -58 60 -93q17 -14 28 -19t36 -10q15 -4 31 -4q10 0 20 2q47 8 82 33
q28 21 49 78t21 118q0 37 -7 52t-32 53q-23 33 -36 46t-33 24z" />
    <glyph glyph-name="ocircumflex" unicode="&#xf4;" horiz-adv-x="489" 
d="M200 650q4 6 15 22h21h20q4 -5 15 -19q12 -16 25 -38q12 -18 30 -42q5 -7 8 -11t4 -7q2 -2 2 -3v-1q-1 -1 -3 -2q-16 -14 -53 22q-22 20 -35 38q-5 8 -17 22q-5 -6 -20 -22q-18 -21 -36 -40q-15 -17 -15 -18t-4 -1q-8 -1 -16 -4q-4 -2 -9 -2q-2 0 -6 1q-4 0 -4 3q0 1 1 3
q2 4 21 24q29 37 56 75zM199 481q24 8 56 9h4q30 0 50 -7q37 -13 85 -48q30 -22 42 -40q12 -17 21 -53q7 -25 7 -69v-7q-1 -49 -8 -76q-12 -45 -43 -90q-30 -45 -62 -71q-22 -16 -42 -22q-21 -7 -68 -14q-15 -2 -28 -2q-57 0 -101 31q-55 39 -77 123q-7 28 -7 94q0 67 7 94
t17 43t30 36q45 45 117 69zM294 450q-17 9 -24 9q-4 0 -4 -3t-5 -3t-7 -5q-1 -4 -14 -1q-12 2 -27 -7q-36 -21 -67 -47t-45 -55q-23 -48 -23 -101q0 -38 12 -78q9 -31 20 -40q12 -8 35 -32q23 -22 38 -32q15 -11 42 -18q12 -3 20 -3q4 0 7 1q10 2 33 18q55 35 82 86
q26 51 26 123q0 56 -15 99q-6 15 -35 46t-49 43z" />
    <glyph glyph-name="otilde" unicode="&#xf5;" horiz-adv-x="492" 
d="M383 662q3 9 5 11t8 2q9 0 9 -9q0 -5 -3 -13q-4 -8 -3 -16q0 -9 -12 -31q-13 -22 -24 -30q-22 -16 -41 -20q-5 -1 -12 -1q-14 0 -31 6q-20 6 -30 11q-10 6 -24 23q-21 24 -26 27q-6 4 -23 -5q-16 -9 -38 -28q-16 -16 -26 -18q-9 -3 -21 -2q-7 1 -7 6q0 6 11 20
q9 11 21 21q54 42 95 32q26 -1 57 -34q21 -21 26 -23q11 -7 47 22q36 28 42 49zM199 471q18 2 34 2q33 0 61 -7q37 -10 76 -35q38 -25 62 -56q33 -44 33 -113q0 -20 -3 -42q-12 -98 -70 -160q-23 -24 -70 -40q-48 -15 -99 -15q-123 0 -173 99q-29 56 -29 144q1 98 63 164
q27 28 53 42q25 13 62 17zM252 425q-13 3 -25 3q-5 0 -11 -1q-22 -3 -50 -18q-17 -9 -35 -24q-17 -15 -28 -36q-14 -30 -18 -49q-4 -20 -4 -60q0 -38 4 -59t16 -49q45 -81 134 -81q47 0 76 15q30 15 53 59q31 65 33 129q0 32 -6 50q-5 18 -21 40q-28 38 -46 51
q-19 13 -72 30z" />
    <glyph glyph-name="odieresis" unicode="&#xf6;" horiz-adv-x="466" 
d="M158 653q23 -1 26 -2q2 -1 2 -20q0 -18 -9 -28q-11 -11 -27 -11q-10 0 -22 4q-11 5 -11 15q0 6 5 16q12 17 18 21q5 3 18 5zM314 657q6 2 11 2q10 0 14 -8q3 -4 3 -14v-9q-2 -18 -7 -24t-13 -6q-6 0 -14 4q-17 9 -17 25q0 7 7 17q7 11 16 13zM187 482q13 2 31 2h27
q36 -2 57 -9q52 -17 88 -60t48 -96q5 -20 5 -57q0 -38 -4 -66q-8 -55 -37 -102t-71 -71q-48 -30 -104 -30q-27 0 -56 7q-30 7 -46 14q-69 38 -96 142q-10 41 -11 90v5q0 46 10 75q7 20 20 52q12 31 22 43q18 23 52 40q34 16 65 21zM259 440q-26 11 -44 11h-2q-18 0 -42 -12
q-17 -8 -26 -12q-20 -7 -39 -35q-20 -27 -29 -58q-9 -30 -9 -63q0 -28 7 -59q14 -66 52 -118q21 -28 45 -45q25 -16 57 -16q18 0 44 13q25 14 45 34q38 42 53 96q11 36 11 76q0 18 -2 37q-3 25 -6 39q-2 13 -20 39q-38 51 -95 73z" />
    <glyph glyph-name="divide" unicode="&#xf7;" horiz-adv-x="536" 
d="M252 497q8 1 13 2q3 0 8 -5t5 -18v-3q-1 -15 -9 -22q-4 -4 -17 -4h-19q-8 1 -8 5v10q0 14 5 22q6 10 22 13zM361 366q41 2 70 2q58 1 69 -9q6 -6 6 -17t-7 -12t-13 -4q-8 -3 -43 -4q-36 0 -253 2q-194 1 -197 -1q-1 -1 -2 -1q-3 0 -5 2q-2 0 -2 1t4 3q6 13 8 19
q2 7 39 10q38 3 149 4q116 2 177 5zM249 225q8 1 14 1t9 -2q4 -2 4 -8q0 -3 -1 -7q-2 -23 -18 -32q-11 -7 -21 -7q-4 0 -7 1q-16 8 -16 20q0 5 3 11q11 19 33 23z" />
    <glyph glyph-name="oslash" unicode="&#xf8;" horiz-adv-x="532" 
d="M435 489q8 8 19 8q4 0 8 -1q13 0 15 -3q2 -4 4 -1q1 0 2 -2q2 -1 2 -4q7 -9 -6 -21q-13 -13 -29 -34q-6 -7 -16 -22q1 -2 5 -8q33 -46 46 -102q7 -23 8 -74v-7q0 -46 -7 -67q-9 -49 -44 -84q-23 -23 -47 -38q-25 -15 -63 -27q-83 -28 -145 7q-15 6 -32 20t-17 18
q0 3 -5 -1q-6 -5 -20 -24q-13 -18 -21 -33q0 -6 -14 -10q-9 -3 -16 -3h-6q-6 1 -8 3q-1 1 -1 4q0 1 1 3q-3 18 30 60q25 31 26 37q2 5 -7 20q-44 65 -40 137q-2 38 2 57q5 19 20 51q52 103 110 124q16 5 56 8q39 2 54 -1q9 -1 9 -6q0 -3 -6 -3q-3 0 1 -1q4 -2 13 -4
q37 -3 65 -20q11 -6 15 -4q5 2 16 18q12 19 23 30zM211 422q11 7 12 8q0 1 -1 1q-3 0 -16 -6q-11 -5 -17 -6q-4 0 -22 -17q-61 -64 -68 -113v-14q-1 -46 32 -117q10 -16 13 -25h1q2 0 9 7q7 8 21 25t33 36q51 67 118 141q34 37 34 45v2q-3 4 -26 17q-18 10 -34 20
q-17 11 -68 -21q-21 -14 -34 -29q-23 -25 -39 -15q-4 7 13 27q17 19 39 34zM405 333q-10 19 -13 19v0q0 -4 -9 -14q-13 -21 -108 -125q-89 -105 -106 -123q-4 -3 -4 -4h2q3 1 17 -13q27 -25 74 -32q8 -2 17 -2q26 0 62 11q17 5 25 10q7 4 18 14q28 30 43 68q6 18 7 29
q2 11 2 42v13q0 57 -27 107z" />
    <glyph glyph-name="ugrave" unicode="&#xf9;" horiz-adv-x="443" 
d="M144 671q15 1 20 1h1q4 0 21 -10q18 -12 23 -19q8 -12 28 -40q43 -49 43 -58q0 -5 -12 -5q-4 0 -10 1q-10 1 -27 9q-17 7 -54 44q-31 30 -39 39q-9 9 -9 17t2 14q1 6 13 7zM69 474q16 5 21 5q1 0 2 -1q3 0 5 -64q6 -177 13 -234q6 -57 24 -93q12 -23 21 -26q8 -3 31 -3
q35 0 67 21q33 22 56 71q17 30 21 49q5 18 7 56q3 46 7 64q3 17 6 73q3 68 17 74q3 4 21 5q19 0 21 -4q8 -22 0 -101q-7 -49 -7 -78q2 -33 2 -91q1 -58 4 -68q3 -15 4 -63q1 -18 1 -52q-2 0 -8 -2q-20 -8 -20 2q0 4 -5 4q-11 -2 -16 5q-7 10 -7 50v40q-3 -6 -15 -23
q-54 -85 -129 -85q-7 -1 -13 -1q-23 0 -54 9q-41 13 -55 29q-44 52 -44 230q0 39 4 113q5 73 8 81q3 7 10 8z" />
    <glyph glyph-name="uacute" unicode="&#xfa;" horiz-adv-x="433" 
d="M258 669q13 3 14 3q3 0 12 -4q3 -2 10 -5q-5 -10 -9 -15t-9 -11q-55 -66 -58 -79q-1 -7 -3 -9t-7 -2q-19 1 -19 12v3q0 17 31 77q12 26 38 30zM360 488q4 4 8 4h2q6 -3 8 -11q2 -10 2 -60t-2 -64q-3 -15 -1 -116q3 -102 6 -115q3 -12 6 -66q1 -17 2 -53q-3 0 -11 -1
q-21 -1 -30 1q-6 1 -7 6t-3 30q-1 28 -2 34q-2 6 -7 1q-3 -3 -13 -15q-17 -21 -44 -42q-28 -22 -49 -29q-21 -8 -52 -8q-30 0 -47 8q-26 12 -47 47q-19 31 -30 96t-11 116q0 25 -3 107q-3 53 -3 76v13q2 17 13 19q10 2 14 8q20 4 28 4q4 0 5 -3q1 -2 -1 -15q-3 -29 -2 -121
q0 -92 4 -119q13 -77 34 -145q9 -19 14 -24q5 -6 17 -14q25 -16 53 -3q28 12 56 50q28 47 46 113q10 47 10 80q0 34 2 102q1 39 2 58q0 20 1 32q2 12 4 15q2 2 6 2q5 -1 22 2z" />
    <glyph glyph-name="ucircumflex" unicode="&#xfb;" horiz-adv-x="446" 
d="M180 658q15 4 24 4q5 0 8 -1q9 -2 26 -23q13 -14 23 -24q5 -5 24 -25q25 -24 31 -28q7 -5 7 -8q0 -5 -11 -7q-23 -5 -33 3q-11 4 -25 13q-14 8 -26 18q-10 10 -28 23q-5 5 -15 14q-4 -4 -14 -17q-44 -49 -41 -50q1 -3 -1 -5q-2 -1 -8 -1q-9 0 -9 -3t-12 -3q-9 0 -11 1
q-2 2 -2 8q0 8 7 16q8 11 27 39q23 31 35 43q12 11 24 13zM331 481q11 8 39 8q5 0 15 -1q0 -17 -1 -70q-1 -68 5 -164q6 -95 16 -139q5 -25 6 -45q1 -8 2 -24q-3 -1 -12 -3q-19 -6 -27 -4q-5 1 -7 4q-1 3 -2 14l-4 26t-4 25t-4 12q-6 -9 -16 -20q-13 -18 -33 -37
q-20 -18 -31 -25q-28 -18 -74 -21q-10 -1 -18 -1q-33 0 -54 10q-47 24 -68 110q-18 66 -24 177q-3 57 -6 94q-1 17 -1 30q0 28 6 34q5 4 25 5t22 -3q2 -3 5 -113q2 -77 5 -110q3 -32 11 -69q20 -64 49 -102q16 -16 26 -19t28 2q69 26 98 108q12 35 14 61q3 27 4 121
q0 40 1 120z" />
    <glyph glyph-name="udieresis" unicode="&#xfc;" horiz-adv-x="451" 
d="M146 635q5 4 15 4h5q13 -1 17 -6q2 -3 2 -7t-2 -9q-2 -11 -7 -18q-3 -2 -7 -2q-5 0 -12 2q-3 1 -10 4q-7 2 -10 2q-2 1 -3 2q-4 1 -4 5q0 6 9 18q3 2 7 5zM293 632q6 3 15 3q1 0 3 -1q12 0 16 -4q2 -5 2 -9q0 -15 -24 -35q-5 -4 -10 -4q-6 0 -13 6q-8 8 -7 16q0 4 2 9
q5 7 16 19zM366 494q6 3 12 3q3 0 6 -1q2 -3 7 -3q8 0 9 -5q2 -10 2 -218q0 -179 3 -198q2 -16 5 -32v-7v-5q-1 -2 -9 -4q-41 -18 -48 -3q-3 6 -1 62q2 54 -1 54q-4 -3 -4 -6t-14 -33q-19 -39 -40 -57q-22 -19 -68 -31q-22 -5 -43 -5q-25 0 -49 7q-29 9 -49 45
q-21 36 -33 90q-10 49 -10 114q0 34 3 74q5 77 9 100q5 24 13 33q17 10 28 10q7 0 9 -1t0 -5q-5 -13 -7 -112q-2 -100 3 -145q11 -98 49 -147q19 -21 44 -14q66 18 106 90q22 46 33 96q5 21 11 79t6 87q0 38 5 50q4 11 4 22t9 16z" />
    <glyph glyph-name="yacute" unicode="&#xfd;" horiz-adv-x="434" 
d="M307 692q4 2 7 2q3 -1 4 -3q3 -3 12 -3q11 -2 11 -10q0 -6 -6 -16q-12 -25 -86 -60q-8 -4 -19 -14q-11 -11 -22 -14q-7 -2 -11 -2h-3q-4 3 -4 7q0 16 42 52q26 31 51 49q15 14 24 12zM42 477q3 2 7 2q3 0 6 -1q22 -4 28 -4q6 -1 6 -9q0 -17 37 -80q16 -26 22 -39
q8 -14 16 -34q12 -19 42 -71q39 -77 40 -77q2 -2 15 37q14 40 41 113q30 86 47 117q14 29 26 25q6 0 21 6q18 6 19 4v-1q0 -3 -5 -11q-8 -13 -38 -102q-5 -12 -11 -35q-6 -22 -13 -38q-6 -17 -9 -26q-5 -22 -17 -46q-1 -2 -4 -11q-3 -10 -9 -24q-5 -14 -10 -27
q-28 -83 -30 -99q0 -7 -2 -8q-5 -8 -9 -19q-33 -104 -101 -136q-15 -7 -23 -9q-8 -1 -33 -1q-24 0 -33 1t-21 8q-18 8 -24 23q-5 8 -5 11v1q0 2 10 3q9 11 12 6q3 -6 33 -11q21 -4 28 -4t18 4q23 9 39 32q16 22 43 84q13 26 13 29t-3 10q-5 3 -11 26q-6 25 -13 51
q-9 18 -31 69q-18 39 -37 79q-20 38 -35 73q-5 11 -23 51q-24 54 -19 58z" />
    <glyph glyph-name="thorn" unicode="&#xfe;" horiz-adv-x="427" 
d="M73 662q13 6 24 6h9q0 -14 -2 -55q-1 -51 1 -132q1 -25 2 -75q3 2 11 11q8 10 24 26q16 15 29 21q36 17 85 15q49 -1 73 -21q19 -14 31 -42q13 -28 28 -83q17 -61 17 -116q0 -65 -23 -117t-64 -78q-16 -9 -23 -11q-8 -1 -33 -2t-36 0q-11 2 -33 9q-38 14 -69 45l-11 11
q0 -1 -2 -43t-4 -87q-1 -45 -1 -52t2 -27q2 -15 1 -18q0 -4 -4 -4q-6 0 -6 -11q0 -12 -2 -16q-3 -4 -11 -4q-10 0 -20 3q-10 4 -13 20q-3 15 -4 40q-2 24 -2 71q0 91 3 127q2 37 3 240q0 190 5 266q5 75 15 83zM268 438q-8 3 -16 3q-9 0 -19 -4q-19 -5 -47 -23
q-28 -19 -55 -46q-15 -17 -21 -17q-2 0 -2 -7v-9q1 -13 5 -88q4 -76 4 -95v-12q3 1 13 2q8 1 11 0q2 -2 5 -9q6 -15 32 -39q25 -24 45 -35q11 -5 16 -5q6 0 13 5q23 16 41 39q17 23 27 48q10 28 16 99q0 86 -17 135t-51 58z" />
    <glyph glyph-name="ydieresis" unicode="&#xff;" horiz-adv-x="437" 
d="M315 652q5 2 12 2h4q10 -1 13 -1q4 0 7 -7q3 -5 3 -10q0 -2 -1 -3q-3 -17 -13 -27q-6 -8 -10 -9q-2 -1 -5 -1q-4 0 -9 1q-31 2 -31 17q0 7 11 22t19 16zM160 650q11 2 19 2q7 0 11 -1q9 -3 11 -18q1 -3 1 -6q0 -10 -10 -19q-12 -12 -24 -16q-5 -1 -10 -1t-10 1
q-8 3 -12 18q-1 6 -1 12v6q1 8 6 13q7 8 19 9zM363 479q2 4 5 17q7 5 12 6q4 1 10 1h5q10 0 15 -2t9 -5q-1 -5 -2 -15q-1 -35 -32 -98q-15 -34 -23 -55q-9 -21 -28 -84q-33 -107 -53 -158q-12 -30 -21 -62q-15 -67 -56 -110q-27 -27 -27 -30q0 -4 -21 -17q-21 -12 -36 -18
q-19 -5 -38 -5q-20 0 -40 5q-22 7 -36 15q-15 9 -19 17q-3 4 -3 7q0 5 4 9t28 12t30 5q6 -2 6 -11t12 -15q7 -4 10 -4q4 0 14 3q20 8 33 21q14 14 33 44q22 38 39 72q18 33 18 40q0 8 -3 10q-17 17 -39 88q-78 213 -114 289q-7 16 -7 27q0 8 2 10q1 1 12 4q15 2 26 -4
q21 -8 60 -108q40 -84 59 -140q15 -32 24 -55q12 -27 14 -29t4 4q-2 9 37 99q20 60 36 99q10 29 24 64q7 36 17 57z" />
    <glyph glyph-name="uni2010" unicode="&#x2010;" horiz-adv-x="315" 
d="M55 359q12 4 34 5h5q20 0 46 -5q24 -1 69 2q23 -3 57 0q16 -7 15 -19v-2q-15 -9 -16 -15q-1 -5 -21 -12q-25 -7 -35 -7h-1q-9 1 -39 5q-25 5 -60 6q-36 1 -46 -4q-6 -3 -17 -2q-12 0 -14 4t-2 9q0 7 3 15q7 15 22 20z" />
    <glyph glyph-name="uni2011" unicode="&#x2011;" horiz-adv-x="296" 
d="M51 362q12 5 34 5h5q20 0 46 -4q24 -2 69 2q23 -4 57 -1q16 -7 15 -18v-2q-15 -10 -15 -13q0 -2 -20 -9q-26 -7 -36 -7h-1q-9 1 -39 5q-24 5 -60 6t-45 -4q-6 -3 -18 -2q-12 0 -14 4t-2 9q0 6 3 12q6 12 21 17z" />
    <glyph glyph-name="uni2012" unicode="&#x2012;" horiz-adv-x="415" 
d="M78 342q10 3 41 3h17q45 -1 73 -6q35 -6 71 -6q70 0 80 -10q5 -5 5 -17v-2q0 -4 -3 -6q-4 -1 -28 -3q-55 -7 -73 -7h-2q-16 1 -65 12q-25 5 -60 6q-36 1 -45 -4q-7 -3 -18 -3q-12 1 -14 5t-2 8q-1 6 3 13q6 12 20 17z" />
    <glyph glyph-name="endash" unicode="&#x2013;" horiz-adv-x="500" 
d="M64 365q10 3 41 3h16q45 -1 74 -6q35 -6 70 -6q124 9 145 6q36 -3 46 -39v-2q0 -5 -5 -10q-7 -5 -131 -1q-56 -6 -73 -6h-3q-15 0 -65 11q-24 6 -60 7t-45 -5q-6 -3 -18 -2q-12 0 -14 5q-2 4 -2 9q0 7 3 15q6 16 21 21z" />
    <glyph glyph-name="emdash" unicode="&#x2014;" horiz-adv-x="543" 
d="M89 380q9 3 41 3h16q45 -1 74 -6q34 -6 70 -6q124 10 145 6q36 -3 46 -38v-2q0 -5 -5 -10q-7 -6 -131 -1q-56 -7 -73 -7h-3q-16 1 -65 12q-24 5 -60 6t-45 -4q-6 -3 -18 -3q-12 1 -14 5t-2 10t3 15q6 15 21 20z" />
    <glyph glyph-name="quoteleft" unicode="&#x2018;" horiz-adv-x="172" 
d="M96 656q8 8 23 10q7 0 20 -11t13 -16q0 -3 -6 -5q-7 -2 -13 -1q-6 2 -11 -6q-8 -12 -17 -47t-11 -64q-1 -28 5 -33q8 0 0 -15q-5 -9 -17 -9h-2q-9 0 -13 9q-5 11 -9 42q-2 13 -2 27q1 21 3 43q11 57 37 76z" />
    <glyph glyph-name="quoteright" unicode="&#x2019;" horiz-adv-x="158" 
d="M50 663q8 3 10 3q11 0 26 -6q15 -5 18 -10q5 -8 5 -24q0 -17 -6 -43q-5 -19 -22 -57q-17 -39 -26 -51q-6 -8 -9 -15q-10 -2 -17 -2q-4 0 -6 2v3q0 3 1 9q2 11 3 28t11 50q17 52 14 66q-2 9 -10 7q-6 -2 -12 3q-6 6 -6 14q1 6 8 13q6 6 18 10z" />
    <glyph glyph-name="quotedblleft" unicode="&#x201c;" horiz-adv-x="277" 
d="M196 658q16 6 38 7h2q19 -1 19 -14v-2q0 -4 -1 -7t-11 -4q-8 0 -13 -6q-8 -4 -11 -6t-8 -8q-4 -5 -7 -9q-15 -21 -14 -20q-8 -22 -7 -60q0 -39 6 -50q7 -14 -5 -15q-9 0 -20 19q-11 20 -12 38v16q0 26 5 54q6 36 18 53q8 9 21 14zM86 649q9 6 15 6q4 0 6 -3q9 -7 9 -12
t-7 -9q-32 -14 -43 -101q-4 -33 0 -44q3 -10 -1 -10q4 -5 4 -8l1 -3q-6 -6 -18 -7q-3 -1 -5 -1q-14 0 -21 24q-3 9 -4 22v13q0 33 18 74q22 48 46 59z" />
    <glyph glyph-name="quotedblright" unicode="&#x201d;" horiz-adv-x="273" 
d="M158 663q4 8 20 10q3 0 7 1q12 0 23 -5q9 -3 23 -22q15 -19 17 -33q3 -21 3 -38q0 -27 -8 -45q-17 -29 -31 -50q-11 -10 -18 -21t-9 -11l-1 1q-16 5 2 53q20 50 20 71q0 20 -19 46q-13 18 -20 16t-11 7q-2 3 -2 7q0 6 4 13zM35 662q7 4 16 8q4 2 10 2t13 -2q32 -3 43 -31
q4 -9 4 -23q0 -38 -37 -114q-11 -32 -20 -32q-12 0 -3 16q5 9 10 39q11 65 -5 98q-5 9 -9 11q-3 3 -11 3q-11 0 -15 4q-4 3 -3 8v3q1 6 7 10z" />
    <glyph glyph-name="uni20ac" unicode="&#x20ac;" horiz-adv-x="514" 
d="M294 660q20 5 61 6q72 0 115 -26q19 -11 25 -20q2 -4 2 -8t-3 -8q-11 -15 -21 -11q-10 2 -15 7q-5 7 -32 14l-40 10q-23 6 -63 3q-41 -3 -72 -16q-34 -13 -58 -37q-24 -25 -44 -53q-21 -26 -32 -58q-8 -21 -8 -26q1 -5 12 -5q10 0 32 -3q61 -11 152 -14q49 -3 60 -13
q10 -10 10 -18q0 -7 -8 -10t-44 -9q-64 -11 -99 0q-2 2 -58 0q-49 1 -52 -1t-1 -29t5 -32q3 -4 59 -9q71 -3 85 -3q37 -3 96 -4q53 -2 64 -4q12 -1 14 -7q0 -4 3 -9t-6 -7q-9 -1 -23 -2t-41 -2q-70 -2 -113 -5q-31 -2 -69 -2l-48 3q1 -4 5 -16q11 -24 27 -50q16 -27 44 -48
q27 -19 72 -35q41 -14 89 -16q48 -3 72 7q35 16 45 -3q4 -5 0 -9q-5 -5 -3 -8q3 -3 -6 -9q-8 -6 -22 -10q-30 -11 -68 -11q-7 0 -14 1q-24 1 -37 2t-35 4q-11 4 -34 11q-77 26 -133 82q-16 19 -37 43t-29 44q1 -5 -1 4q-5 11 -11 13t-44 5q-6 1 -10 1q-32 2 -42 6
q-9 4 -9 14q-1 1 -1 2q1 11 54 21q14 1 42 2q-1 4 -3 14q-2 11 -4 33q-1 9 -2 27q-3 0 -13 3q-16 3 -31 5q-24 3 -31 5q-8 3 -9 8q-3 8 6 25q8 16 16 13q1 -1 10 0h24q12 1 37 2q2 9 9 37q19 60 68 103q65 67 164 86z" />
    <glyph glyph-name="uni3000" unicode="&#x3000;" horiz-adv-x="1024" 
 />
    </font>
</defs>
</svg>
